SplineFontDB: 3.0
FontName: Parastoo
FullName: Parastoo
FamilyName: Parastoo
Weight: Regular
Copyright: Copyright (c) 2003 by Bitstream, Inc. All Rights Reserved.\nDejaVu changes are in public domain\nCopyright (c) 2015 by Saber Rastikerdar. All Rights Reserved.
Version: 0.8.2
ItalicAngle: 0
UnderlinePosition: -100
UnderlineWidth: 100
Ascent: 1536
Descent: 512
InvalidEm: 0
LayerCount: 2
Layer: 0 1 "Back" 1
Layer: 1 1 "Fore" 0
XUID: [1021 502 1027637223 7335572]
UniqueID: 4193122
UseUniqueID: 1
FSType: 0
OS2Version: 1
OS2_WeightWidthSlopeOnly: 0
OS2_UseTypoMetrics: 1
CreationTime: 1431850356
ModificationTime: 1452051189
PfmFamily: 17
TTFWeight: 400
TTFWidth: 5
LineGap: 0
VLineGap: 0
Panose: 2 11 6 3 3 8 4 2 2 4
OS2TypoAscent: 2000
OS2TypoAOffset: 0
OS2TypoDescent: -1000
OS2TypoDOffset: 0
OS2TypoLinegap: 0
OS2WinAscent: 2000
OS2WinAOffset: 0
OS2WinDescent: 1000
OS2WinDOffset: 0
HheadAscent: 2000
HheadAOffset: 0
HheadDescent: -1000
HheadDOffset: 0
OS2SubXSize: 1331
OS2SubYSize: 1433
OS2SubXOff: 0
OS2SubYOff: 286
OS2SupXSize: 1331
OS2SupYSize: 1433
OS2SupXOff: 0
OS2SupYOff: 983
OS2StrikeYSize: 102
OS2StrikeYPos: 530
OS2Vendor: 'PfEd'
OS2CodePages: 600001ff.dfff0000
Lookup: 1 0 0 "'case' Case-Sensitive Forms in Latin lookup 0" { "'case' Case-Sensitive Forms in Latin lookup 0 subtable"  } ['case' ('DFLT' <'dflt' > 'latn' <'CAT ' 'ESP ' 'GAL ' 'dflt' > ) ]
Lookup: 6 1 0 "'ccmp' Glyph Composition/Decomposition lookup 2" { "'ccmp' Glyph Composition/Decomposition lookup 2 subtable"  } ['ccmp' ('arab' <'KUR ' 'SND ' 'URD ' 'dflt' > 'hebr' <'dflt' > 'nko ' <'dflt' > ) ]
Lookup: 6 0 0 "'ccmp' Glyph Composition/Decomposition lookup 3" { "'ccmp' Glyph Composition/Decomposition lookup 3 subtable"  } ['ccmp' ('cyrl' <'MKD ' 'SRB ' 'dflt' > 'grek' <'dflt' > 'latn' <'ISM ' 'KSM ' 'LSM ' 'MOL ' 'NSM ' 'ROM ' 'SKS ' 'SSM ' 'dflt' > ) ]

StartChar: afii57388
Encoding: 1548 1548 2
Width: 706
VWidth: 2246
GlyphClass: 2
Flags: W
LayerCount: 2
Fore
SplineSet
387.876953125 246.180664062 m 1,0,-1
 402.534179688 246.180664062 l 2,1,2
 499.577148438 246.180664062 499.577148438 246.180664062 499.577148438 136.637695312 c 2,3,-1
 499.577148438 102.012695312 l 2,4,5
 499.65234375 2.080078125 499.65234375 2.080078125 396.750976562 2.080078125 c 2,6,-1
 358.96484375 2.080078125 l 2,7,8
 252.057617188 2.0048828125 252.057617188 2.0048828125 252.057617188 114.259765625 c 2,9,-1
 252.057617188 178.0078125 l 1,10,11
 271.5078125 421.21875 271.5078125 421.21875 446.247070312 570.302734375 c 2,12,-1
 448.161132812 571.936523438 l 1,13,-1
 512.009765625 540.043945312 l 1,14,-1
 508.65625 536.330078125 l 2,15,16
 390.333007812 405.059570312 390.333007812 405.059570312 387.876953125 246.180664062 c 1,0,-1
EndSplineSet
EndChar

StartChar: uni0615
Encoding: 1557 1557 3
Width: 0
VWidth: 2277
GlyphClass: 4
Flags: W
AnchorPoint: "Anchor-10" 569.754 1334.68 mark 0
AnchorPoint: "Anchor-9" 569.754 1334.68 mark 0
AnchorPoint: "Anchor-1" 569.754 2058 basemark 0
AnchorPoint: "Anchor-1" 569.754 1334.68 mark 0
LayerCount: 2
Fore
SplineSet
488.75390625 1521.15820312 m 1,0,-1
 574.205078125 1521.15820312 l 2,1,2
 618.995117188 1521.15820312 618.995117188 1521.15820312 648.6328125 1525.32226562 c 128,-1,3
 678.271484375 1529.48535156 678.271484375 1529.48535156 691.501953125 1537.30175781 c 0,4,5
 723.96875 1557.515625 723.96875 1557.515625 740.21484375 1573.9765625 c 0,6,7
 748.258789062 1582.12402344 748.258789062 1582.12402344 752.161132812 1590.42089844 c 128,-1,8
 756.063476562 1598.71875 756.063476562 1598.71875 756.063476562 1607.31640625 c 0,9,10
 756.063476562 1628.43847656 756.063476562 1628.43847656 746.092773438 1644.21582031 c 128,-1,11
 736.12109375 1659.9921875 736.12109375 1659.9921875 715.765625 1671.40136719 c 0,12,13
 708.098632812 1673.78515625 708.098632812 1673.78515625 700.124023438 1671.81445312 c 0,14,15
 691.30078125 1669.62207031 691.30078125 1669.62207031 666.706054688 1658.58789062 c 128,-1,16
 641.93359375 1647.48632812 641.93359375 1647.48632812 626.657226562 1641.45214844 c 0,17,18
 565.95703125 1616.94433594 565.95703125 1616.94433594 503.967773438 1540.03515625 c 2,19,-1
 488.75390625 1521.15820312 l 1,0,-1
599.798828125 1431.96582031 m 2,20,-1
 292.025390625 1431.96582031 l 1,21,-1
 292.025390625 1521.15820312 l 1,22,-1
 382.162109375 1521.15820312 l 1,23,-1
 382.162109375 1965.16601562 l 1,24,-1
 472.467773438 1965.16601562 l 1,25,-1
 472.467773438 1569.80859375 l 1,26,-1
 494.471679688 1614.43066406 l 2,27,28
 513.543945312 1653.1015625 513.543945312 1653.1015625 550.9765625 1683.09179688 c 128,-1,29
 588.408203125 1713.08203125 588.408203125 1713.08203125 643.990234375 1734.4609375 c 0,30,31
 710.016601562 1759.61230469 710.016601562 1759.61230469 783.754882812 1732.22753906 c 0,32,33
 848.594726562 1707.28222656 848.594726562 1707.28222656 848.594726562 1624.0078125 c 0,34,35
 848.594726562 1614.49511719 848.594726562 1614.49511719 847.927734375 1605.40039062 c 128,-1,36
 847.260742188 1596.30566406 847.260742188 1596.30566406 845.926757812 1587.62988281 c 128,-1,37
 844.592773438 1578.95507812 844.592773438 1578.95507812 842.590820312 1570.70117188 c 128,-1,38
 840.587890625 1562.44726562 840.587890625 1562.44726562 837.919921875 1554.62011719 c 128,-1,39
 835.252929688 1546.79296875 835.252929688 1546.79296875 831.9140625 1539.39257812 c 128,-1,40
 828.576171875 1531.9921875 828.576171875 1531.9921875 824.57421875 1525.02441406 c 128,-1,41
 820.571289062 1518.05761719 820.571289062 1518.05761719 815.897460938 1511.52148438 c 128,-1,42
 811.22265625 1504.984375 811.22265625 1504.984375 805.885742188 1498.88867188 c 128,-1,43
 800.547851562 1492.79394531 800.547851562 1492.79394531 794.537109375 1487.1328125 c 128,-1,44
 788.525390625 1481.47265625 788.525390625 1481.47265625 781.852539062 1476.25976562 c 0,45,46
 762.71484375 1461.37597656 762.71484375 1461.37597656 735.997070312 1451.51757812 c 128,-1,47
 709.280273438 1441.65917969 709.280273438 1441.65917969 675.323242188 1436.8125 c 128,-1,48
 641.366210938 1431.96582031 641.366210938 1431.96582031 599.798828125 1431.96582031 c 2,20,-1
EndSplineSet
EndChar

StartChar: uni061B
Encoding: 1563 1563 4
Width: 692
VWidth: 2246
GlyphClass: 2
Flags: W
LayerCount: 2
Fore
SplineSet
364.428710938 711.57421875 m 5,0,-1
 379.0859375 711.57421875 l 6,1,2
 476.12890625 711.57421875 476.12890625 711.57421875 476.12890625 602.03125 c 6,3,-1
 476.12890625 567.40625 l 6,4,5
 476.204101562 467.473632812 476.204101562 467.473632812 373.302734375 467.473632812 c 6,6,-1
 335.516601562 467.473632812 l 6,7,8
 228.609375 467.3984375 228.609375 467.3984375 228.609375 579.653320312 c 6,9,-1
 228.609375 643.401367188 l 5,10,11
 248.059570312 886.612304688 248.059570312 886.612304688 422.798828125 1035.69628906 c 6,12,-1
 424.712890625 1037.33007812 l 5,13,-1
 488.561523438 1005.4375 l 5,14,-1
 485.208007812 1001.72363281 l 6,15,16
 366.884765625 870.453125 366.884765625 870.453125 364.428710938 711.57421875 c 5,0,-1
233.6875 121.872070312 m 128,-1,18
 233.6875 171.912109375 233.6875 171.912109375 268.08984375 207.357421875 c 0,19,20
 304.577148438 242.802734375 304.577148438 242.802734375 354.6171875 242.802734375 c 128,-1,21
 404.657226562 242.802734375 404.657226562 242.802734375 440.102539062 207.357421875 c 128,-1,22
 475.547851562 171.912109375 475.547851562 171.912109375 475.547851562 121.872070312 c 128,-1,23
 475.547851562 71.83203125 475.547851562 71.83203125 440.102539062 35.3447265625 c 0,24,25
 404.657226562 0.9423828125 404.657226562 0.9423828125 354.6171875 0.9423828125 c 128,-1,26
 304.577148438 0.9423828125 304.577148438 0.9423828125 268.08984375 35.3447265625 c 0,27,17
 233.6875 71.83203125 233.6875 71.83203125 233.6875 121.872070312 c 128,-1,18
442.7421875 227.508789062 m 1026,28,29
EndSplineSet
EndChar

StartChar: uni061F
Encoding: 1567 1567 5
Width: 1167
VWidth: 2240
GlyphClass: 2
Flags: W
LayerCount: 2
Fore
SplineSet
535.6875 121.872070312 m 128,-1,1
 535.6875 171.912109375 535.6875 171.912109375 570.08984375 207.357421875 c 0,2,3
 606.577148438 242.802734375 606.577148438 242.802734375 656.6171875 242.802734375 c 128,-1,4
 706.657226562 242.802734375 706.657226562 242.802734375 742.102539062 207.357421875 c 128,-1,5
 777.547851562 171.912109375 777.547851562 171.912109375 777.547851562 121.872070312 c 128,-1,6
 777.547851562 71.83203125 777.547851562 71.83203125 742.102539062 36.3872070312 c 128,-1,7
 706.657226562 0.9423828125 706.657226562 0.9423828125 656.6171875 0.9423828125 c 128,-1,8
 606.577148438 0.9423828125 606.577148438 0.9423828125 570.08984375 35.3447265625 c 0,9,0
 535.6875 71.83203125 535.6875 71.83203125 535.6875 121.872070312 c 128,-1,1
744.7421875 227.508789062 m 1026,10,11
907 1313.76044579 m 0,12,13
 599.236883999 1458.38752859 599.236883999 1458.38752859 438.540471083 1324.63827194 c 0,14,15
 359.989655909 1258.65096246 359.989655909 1258.65096246 359.989941311 1149.6547462 c 128,-1,16
 359.990226712 1040.65852994 359.990226712 1040.65852994 484.014675863 925.099465741 c 1,17,-1
 582.191847854 828.012478865 l 1,18,19
 677.358732715 736.437304291 677.358732715 736.437304291 706.620772607 653.528192957 c 128,-1,20
 735.8828125 570.619081622 735.8828125 570.619081622 735.8828125 486.459960938 c 2,21,-1
 735.8828125 473.99609375 l 1,22,-1
 565.310546875 473.99609375 l 1,23,-1
 565.310459744 484.650142957 l 2,24,25
 564.976507033 564.648619809 564.976507033 564.648619809 553.023982363 604.097459301 c 128,-1,26
 541.071457693 643.546298793 541.071457693 643.546298793 517.326366701 675.931784661 c 128,-1,27
 493.58127571 708.31727053 493.58127571 708.31727053 443.83706934 756.932063749 c 2,28,-1
 347.663075628 850.922483106 l 1,29,30
 177.380737171 1013.4582949 177.380737171 1013.4582949 177.184444423 1170.9562868 c 128,-1,31
 176.988151675 1328.4542787 176.988151675 1328.4542787 292.36909417 1429.2293612 c 128,-1,32
 407.750036665 1530.0044437 407.750036665 1530.0044437 605.875886899 1530.00635304 c 0,33,34
 791.502545295 1530.00814193 791.502545295 1530.00814193 966 1437.35482342 c 0,35,36
 989.590029869 1424.82917051 989.590029869 1424.82917051 981.325199164 1403 c 2,37,-1
 951.793303081 1325 l 2,38,39
 941.414713402 1297.5879438 941.414713402 1297.5879438 907 1313.76044579 c 0,12,13
EndSplineSet
EndChar

StartChar: uni0621
Encoding: 1569 1569 6
Width: 781
VWidth: 2481
GlyphClass: 2
Flags: W
AnchorPoint: "Anchor-7" 392.028 -268.835 basechar 0
AnchorPoint: "Anchor-10" 359.047 1016.6 basechar 0
LayerCount: 2
Fore
SplineSet
91.5634765625 -44.6474609375 m 1,0,-1
 160 125 l 1,1,2
 364 184 364 184 396 201 c 1,3,4
 97 230 97 230 128 446.092773438 c 0,5,6
 172 755 172 755 442 747 c 0,7,8
 575 743 575 743 622 575 c 1,9,10
 532 602 532 602 480 601 c 0,11,12
 350 599 350 599 290 549 c 0,13,14
 222 492 222 492 220 446.092773438 c 0,15,16
 214 314 214 314 435.994140625 300.190429688 c 0,17,18
 533 294 533 294 585.470703125 307.120117188 c 0,19,20
 679 330 679 330 689.697265625 335.303710938 c 1,21,-1
 621 153 l 1,22,23
 530 98 530 98 374 37 c 0,24,25
 231 -19 231 -19 91.5634765625 -44.6474609375 c 1,0,-1
EndSplineSet
EndChar

StartChar: uni0627
Encoding: 1575 1575 12
Width: 448
VWidth: 2457
GlyphClass: 2
Flags: W
AnchorPoint: "Anchor-10" 221.349 1613.87 basechar 0
AnchorPoint: "Anchor-7" 210.506 -241.941 basechar 0
LayerCount: 2
Fore
SplineSet
314.127929688 1494.015625 m 1,0,-1
 290.040039062 320.698242188 l 2,1,2
 282.996641409 -9.15728911009 282.996641409 -9.15728911009 216.190429688 -19.203125 c 2,3,-1
 206.890625 -20.6015625 l 1,4,5
 187 978 187 978 186 998 c 0,6,7
 177 1231 177 1231 153.921875 1379.7109375 c 1,8,-1
 314.127929688 1494.015625 l 1,0,-1
EndSplineSet
Substitution2: "'fina' Terminal Forms in Arabic lookup 9 subtable" uniFE8E
EndChar

StartChar: uni062D
Encoding: 1581 1581 18
Width: 1209
VWidth: 2479
GlyphClass: 2
Flags: W
AnchorPoint: "Anchor-7" 300.847 -772.203 basechar 0
AnchorPoint: "Anchor-10" 499.53 1070.36 basechar 0
LayerCount: 2
Fore
SplineSet
779 376.5 m 0,0,1
 584 335 584 335 480 281 c 0,2,3
 304 191 304 191 243.5 82.7841796875 c 0,4,5
 181 -29 181 -29 181 -131 c 0,6,7
 181 -220 181 -220 231 -288 c 0,8,9
 346 -445 346 -445 676 -459 c 0,10,11
 699 -460 699 -460 722.3828125 -460.251953125 c 0,12,13
 934 -463 934 -463 1117 -350 c 1,14,15
 966 -638 966 -638 631.153320312 -638.310546875 c 0,16,17
 356 -638 356 -638 223.265625 -501.655273438 c 0,18,19
 91 -365 91 -365 93.5 -178 c 0,20,21
 96 -6 96 -6 148.5 111 c 0,22,23
 300 446 300 446 781 516 c 1,24,25
 663 543 663 543 508 613 c 0,26,27
 464 633 464 633 421 643 c 0,28,29
 386 651 386 651 340 643 c 0,30,31
 244 628 244 628 168.1953125 471.625 c 1,32,-1
 151.874023438 472.548828125 l 2,33,34
 134 474 134 474 133.936523438 511.604492188 c 0,35,36
 134 550 134 550 150.129882812 621.016601562 c 0,37,38
 193 810 193 810 377.883789062 810.315429688 c 0,39,40
 506 810 506 810 675.657226562 709.658203125 c 0,41,42
 896 579 896 579 1117.08984375 566.360351562 c 1,43,-1
 1080 415 l 1,44,45
 876 397 876 397 779 376.5 c 0,0,1
EndSplineSet
Substitution2: "'fina' Terminal Forms in Arabic lookup 9 subtable" uniFEA2
Substitution2: "'medi' Medial Forms in Arabic lookup 11 subtable" uniFEA4
Substitution2: "'init' Initial Forms in Arabic lookup 13 subtable" uniFEA3
EndChar

StartChar: uni062F
Encoding: 1583 1583 20
Width: 869
VWidth: 2477
GlyphClass: 2
Flags: W
AnchorPoint: "Anchor-10" 322.871 1229.14 basechar 0
AnchorPoint: "Anchor-7" 317.732 -260.644 basechar 0
LayerCount: 2
Fore
SplineSet
757.841796875 142.958984375 m 0,0,1
 700 -20 700 -20 395.979714733 -19.4627249406 c 0,2,3
 90.3217542361 -19.0004865803 90.3217542361 -19.0004865803 90.8447265625 203.654296875 c 2,4,-1
 91.2177734375 362.478515625 l 1,5,6
 107 369 107 369 147.01171875 363.171875 c 1,7,-1
 147.044921875 359.782226562 l 2,8,9
 149 186 149 186 354.827148438 175.936523438 c 24,10,11
 521 168 521 168 594.5 185.5 c 0,12,13
 692 208 692 208 677.827148438 321.775390625 c 0,14,15
 653 520 653 520 335.162109375 680.130859375 c 1,16,-1
 412 889 l 1,17,18
 792 634 792 634 778.796875 247.219726562 c 0,19,20
 777 195 777 195 757.841796875 142.958984375 c 0,0,1
EndSplineSet
Substitution2: "'fina' Terminal Forms in Arabic lookup 9 subtable" uniFEAA
EndChar

StartChar: uni0631
Encoding: 1585 1585 22
Width: 773
VWidth: 2482
GlyphClass: 2
Flags: W
AnchorPoint: "Anchor-7" 314.601 -757.959 basechar 0
AnchorPoint: "Anchor-10" 383.943 959.25 basechar 0
LayerCount: 2
Fore
SplineSet
441.685546875 405.462890625 m 1,0,1
 519 510 519 510 579.1875 534.84375 c 1,2,3
 642 423 642 423 666.635563933 283 c 0,4,5
 703 80 703 80 643.775220483 -117 c 0,6,7
 567 -372 567 -372 419 -494 c 0,8,9
 377 -529 377 -529 332 -528 c 0,10,11
 149 -526 149 -526 29 -478 c 0,12,13
 9 -470 9 -470 26.3740234375 -457.302734375 c 0,14,15
 38 -449 38 -449 63.095703125 -439.788085938 c 0,16,17
 532 -269 532 -269 587.7265625 70.9326171875 c 24,18,19
 603 164 603 164 441.685546875 405.462890625 c 1,0,1
EndSplineSet
PairPos2: "'kern' Horizontal Kerning lookup 15-1" uni0632 dx=-80 dy=0 dh=-80 dv=0 dx=0 dy=0 dh=0 dv=0
PairPos2: "'kern' Horizontal Kerning lookup 15-1" uni0631 dx=-80 dy=0 dh=-80 dv=0 dx=0 dy=0 dh=0 dv=0
PairPos2: "'kern' Horizontal Kerning lookup 15-1" uni06CC dx=-100 dy=0 dh=-100 dv=0 dx=0 dy=0 dh=0 dv=0
PairPos2: "'kern' Horizontal Kerning lookup 15-1" uniFEEB dx=-170 dy=0 dh=-170 dv=0 dx=0 dy=0 dh=0 dv=0
PairPos2: "'kern' Horizontal Kerning lookup 15-1" uniFB7C dx=-100 dy=0 dh=-100 dv=0 dx=0 dy=0 dh=0 dv=0
PairPos2: "'kern' Horizontal Kerning lookup 15-1" uniFEDF dx=-170 dy=0 dh=-170 dv=0 dx=0 dy=0 dh=0 dv=0
PairPos2: "'kern' Horizontal Kerning lookup 15-1" uniFB90 dx=-170 dy=0 dh=-170 dv=0 dx=0 dy=0 dh=0 dv=0
PairPos2: "'kern' Horizontal Kerning lookup 15-1" uni06A9 dx=-170 dy=0 dh=-170 dv=0 dx=0 dy=0 dh=0 dv=0
PairPos2: "'kern' Horizontal Kerning lookup 15-1" uni0649 dx=-100 dy=0 dh=-100 dv=0 dx=0 dy=0 dh=0 dv=0
PairPos2: "'kern' Horizontal Kerning lookup 15-1" uni0647 dx=-170 dy=0 dh=-170 dv=0 dx=0 dy=0 dh=0 dv=0
PairPos2: "'kern' Horizontal Kerning lookup 15-1" uniFEE7 dx=-170 dy=0 dh=-170 dv=0 dx=0 dy=0 dh=0 dv=0
PairPos2: "'kern' Horizontal Kerning lookup 15-1" uniFEE3 dx=-170 dy=0 dh=-170 dv=0 dx=0 dy=0 dh=0 dv=0
PairPos2: "'kern' Horizontal Kerning lookup 15-1" uni0645 dx=-170 dy=0 dh=-170 dv=0 dx=0 dy=0 dh=0 dv=0
PairPos2: "'kern' Horizontal Kerning lookup 15-1" uni0644 dx=-100 dy=0 dh=-100 dv=0 dx=0 dy=0 dh=0 dv=0
PairPos2: "'kern' Horizontal Kerning lookup 15-1" uniFEDB dx=-170 dy=0 dh=-170 dv=0 dx=0 dy=0 dh=0 dv=0
PairPos2: "'kern' Horizontal Kerning lookup 15-1" uniFED7 dx=-170 dy=0 dh=-170 dv=0 dx=0 dy=0 dh=0 dv=0
PairPos2: "'kern' Horizontal Kerning lookup 15-1" uni0642 dx=-100 dy=0 dh=-100 dv=0 dx=0 dy=0 dh=0 dv=0
PairPos2: "'kern' Horizontal Kerning lookup 15-1" uniFED3 dx=-170 dy=0 dh=-170 dv=0 dx=0 dy=0 dh=0 dv=0
PairPos2: "'kern' Horizontal Kerning lookup 15-1" uni0641 dx=-170 dy=0 dh=-170 dv=0 dx=0 dy=0 dh=0 dv=0
PairPos2: "'kern' Horizontal Kerning lookup 15-1" uniFECF dx=-170 dy=0 dh=-170 dv=0 dx=0 dy=0 dh=0 dv=0
PairPos2: "'kern' Horizontal Kerning lookup 15-1" uniFECB dx=-170 dy=0 dh=-170 dv=0 dx=0 dy=0 dh=0 dv=0
PairPos2: "'kern' Horizontal Kerning lookup 15-1" uniFEC7 dx=-170 dy=0 dh=-170 dv=0 dx=0 dy=0 dh=0 dv=0
PairPos2: "'kern' Horizontal Kerning lookup 15-1" uni0638 dx=-170 dy=0 dh=-170 dv=0 dx=0 dy=0 dh=0 dv=0
PairPos2: "'kern' Horizontal Kerning lookup 15-1" uniFEC3 dx=-170 dy=0 dh=-170 dv=0 dx=0 dy=0 dh=0 dv=0
PairPos2: "'kern' Horizontal Kerning lookup 15-1" uni0637 dx=-170 dy=0 dh=-170 dv=0 dx=0 dy=0 dh=0 dv=0
PairPos2: "'kern' Horizontal Kerning lookup 15-1" uniFEBF dx=-170 dy=0 dh=-170 dv=0 dx=0 dy=0 dh=0 dv=0
PairPos2: "'kern' Horizontal Kerning lookup 15-1" uni0636 dx=-170 dy=0 dh=-170 dv=0 dx=0 dy=0 dh=0 dv=0
PairPos2: "'kern' Horizontal Kerning lookup 15-1" uniFEBB dx=-170 dy=0 dh=-170 dv=0 dx=0 dy=0 dh=0 dv=0
PairPos2: "'kern' Horizontal Kerning lookup 15-1" uni0635 dx=-170 dy=0 dh=-170 dv=0 dx=0 dy=0 dh=0 dv=0
PairPos2: "'kern' Horizontal Kerning lookup 15-1" uniFEB7 dx=-170 dy=0 dh=-170 dv=0 dx=0 dy=0 dh=0 dv=0
PairPos2: "'kern' Horizontal Kerning lookup 15-1" uni0634 dx=-170 dy=0 dh=-170 dv=0 dx=0 dy=0 dh=0 dv=0
PairPos2: "'kern' Horizontal Kerning lookup 15-1" uniFEB3 dx=-170 dy=0 dh=-170 dv=0 dx=0 dy=0 dh=0 dv=0
PairPos2: "'kern' Horizontal Kerning lookup 15-1" uni0633 dx=-170 dy=0 dh=-170 dv=0 dx=0 dy=0 dh=0 dv=0
PairPos2: "'kern' Horizontal Kerning lookup 15-1" uni0630 dx=-170 dy=0 dh=-170 dv=0 dx=0 dy=0 dh=0 dv=0
PairPos2: "'kern' Horizontal Kerning lookup 15-1" uni062F dx=-170 dy=0 dh=-170 dv=0 dx=0 dy=0 dh=0 dv=0
PairPos2: "'kern' Horizontal Kerning lookup 15-1" uniFEA7 dx=-170 dy=0 dh=-170 dv=0 dx=0 dy=0 dh=0 dv=0
PairPos2: "'kern' Horizontal Kerning lookup 15-1" uniFEA3 dx=-170 dy=0 dh=-170 dv=0 dx=0 dy=0 dh=0 dv=0
PairPos2: "'kern' Horizontal Kerning lookup 15-1" uniFE9F dx=-170 dy=0 dh=-170 dv=0 dx=0 dy=0 dh=0 dv=0
PairPos2: "'kern' Horizontal Kerning lookup 15-1" uniFE9B dx=-170 dy=0 dh=-170 dv=0 dx=0 dy=0 dh=0 dv=0
PairPos2: "'kern' Horizontal Kerning lookup 15-1" uni062B dx=-170 dy=0 dh=-170 dv=0 dx=0 dy=0 dh=0 dv=0
PairPos2: "'kern' Horizontal Kerning lookup 15-1" uniFE97 dx=-170 dy=0 dh=-170 dv=0 dx=0 dy=0 dh=0 dv=0
PairPos2: "'kern' Horizontal Kerning lookup 15-1" uni062A dx=-170 dy=0 dh=-170 dv=0 dx=0 dy=0 dh=0 dv=0
PairPos2: "'kern' Horizontal Kerning lookup 15-1" uni0629 dx=-170 dy=0 dh=-170 dv=0 dx=0 dy=0 dh=0 dv=0
PairPos2: "'kern' Horizontal Kerning lookup 15-1" uniFE91 dx=-104 dy=0 dh=-104 dv=0 dx=0 dy=0 dh=0 dv=0
PairPos2: "'kern' Horizontal Kerning lookup 15-1" uni0628 dx=-170 dy=0 dh=-170 dv=0 dx=0 dy=0 dh=0 dv=0
PairPos2: "'kern' Horizontal Kerning lookup 15-1" uni0627 dx=-190 dy=0 dh=-190 dv=0 dx=0 dy=0 dh=0 dv=0
PairPos2: "'kern' Horizontal Kerning lookup 15-1" uni0622 dx=-190 dy=0 dh=-190 dv=0 dx=0 dy=0 dh=0 dv=0
PairPos2: "'kern' Horizontal Kerning lookup 15-1" uniFB94 dx=-170 dy=0 dh=-170 dv=0 dx=0 dy=0 dh=0 dv=0
PairPos2: "'kern' Horizontal Kerning lookup 15-1" afii57509 dx=-170 dy=0 dh=-170 dv=0 dx=0 dy=0 dh=0 dv=0
PairPos2: "'kern' Horizontal Kerning lookup 15-1" uniFB56 dx=-170 dy=0 dh=-170 dv=0 dx=0 dy=0 dh=0 dv=0
PairPos2: "'kern' Horizontal Kerning lookup 15-1" afii57506 dx=-170 dy=0 dh=-170 dv=0 dx=0 dy=0 dh=0 dv=0
Substitution2: "'fina' Terminal Forms in Arabic lookup 9 subtable" uniFEAE
EndChar

StartChar: uni0633
Encoding: 1587 1587 24
Width: 2166
VWidth: 2483
GlyphClass: 2
Flags: W
AnchorPoint: "Anchor-7" 305.813 -718.563 basechar 0
AnchorPoint: "Anchor-10" 525.067 855.906 basechar 0
LayerCount: 2
Fore
SplineSet
1251.83496094 216.134277344 m 24,0,1
 1298 160 1298 160 1410.26660156 160.499023438 c 128,-1,2
 1522.53324614 160.99792579 1522.53324614 160.99792579 1545.10449219 365.319335938 c 2,3,-1
 1547.94335938 391.017578125 l 2,4,5
 1555 453 1555 453 1591.85253906 453.6015625 c 0,6,7
 1639 454 1639 454 1643.48828125 396.780273438 c 1,8,-1
 1644.70605469 371.893554688 l 2,9,10
 1655 165 1655 165 1815.61816406 169.479492188 c 0,11,12
 1939 173 1939 173 1955.390625 258.541992188 c 24,13,14
 1968 326 1968 326 1863.30957031 509.357421875 c 1,15,-1
 2023.55078125 654.75 l 1,16,17
 2052 576 2052 576 2074.5 395.5 c 128,-1,18
 2097 215 2097 215 2014.61230469 105.616210938 c 0,19,20
 1919 -23 1919 -23 1784 -20 c 128,-1,21
 1649 -17 1649 -17 1586.85644531 162.501953125 c 1,22,23
 1509 -28 1509 -28 1407.00683594 -19.978515625 c 1,24,25
 1289 -26 1289 -26 1247.01855469 64.6796875 c 1,26,27
 1246 12 1246 12 1236 -54 c 8,28,29
 1162 -541 1162 -541 652 -548 c 0,30,31
 351.983639763 -551.921782487 351.983639763 -551.921782487 220 -392 c 0,32,33
 83 -226 83 -226 139.260742188 92.9365234375 c 0,34,35
 163.53998223 223.309987131 163.53998223 223.309987131 235.321289062 392.310546875 c 1,36,-1
 305.6484375 337.49609375 l 1,37,38
 189 2 189 2 272 -173 c 0,39,40
 366 -373 366 -373 664 -367 c 0,41,42
 1097 -358 1097 -358 1128.25683594 -18.41796875 c 1,43,44
 1094 170 1094 170 1008.04785156 342.657226562 c 1,45,-1
 1151.33300781 464.58203125 l 1,46,47
 1184 298 1184 298 1251.83496094 216.134277344 c 24,0,1
EndSplineSet
Substitution2: "'fina' Terminal Forms in Arabic lookup 9 subtable" uniFEB2
Substitution2: "'medi' Medial Forms in Arabic lookup 11 subtable" uniFEB4
Substitution2: "'init' Initial Forms in Arabic lookup 13 subtable" uniFEB3
EndChar

StartChar: uni0635
Encoding: 1589 1589 26
Width: 2310
VWidth: 2483
GlyphClass: 2
Flags: W
AnchorPoint: "Anchor-10" 535.211 854.477 basechar 0
AnchorPoint: "Anchor-7" 305.697 -706.48 basechar 0
LayerCount: 2
Fore
SplineSet
1439.27539062 170.306640625 m 1,0,-1
 1642.42480469 170.306640625 l 2,1,2
 1978.01288947 170.00360041 1978.01288947 170.00360041 2067.5 195 c 128,-1,3
 2157 220 2157 220 2112 353.5 c 128,-1,4
 2067 487 2067 487 1922.26171875 503.06640625 c 0,5,6
 1801 517 1801 517 1622.39355469 367.737304688 c 0,7,8
 1524 286 1524 286 1439.27539062 170.306640625 c 1,0,-1
1222.2265625 221.198242188 m 24,9,10
 1280 174 1280 174 1352 180 c 1,11,12
 1694 679 1694 679 1928 673.5 c 0,13,14
 2105 670 2105 670 2182.69433594 518.161132812 c 0,15,16
 2234 417 2234 417 2218.79882812 273.4453125 c 24,17,18
 2200 104 2200 104 2040.49804688 32.6181640625 c 0,19,20
 1922.2755816 -19.8776300679 1922.2755816 -19.8776300679 1709.3125 -19.884765625 c 2,21,-1
 1447 -19.8935546875 l 2,22,23
 1295 -20 1295 -20 1221.04785156 66.2841796875 c 1,24,25
 1220 -3 1220 -3 1212 -54 c 8,26,27
 1135 -541 1135 -541 628 -548 c 0,28,29
 335.591656442 -551.822331288 335.591656442 -551.822331288 196 -392 c 0,30,31
 58 -234 58 -234 115.260742188 92.9365234375 c 0,32,33
 137.935907667 219.533384126 137.935907667 219.533384126 211.321289062 392.310546875 c 1,34,-1
 281.6484375 337.49609375 l 1,35,36
 165 2 165 2 248 -173 c 0,37,38
 342 -373 342 -373 640 -367 c 0,39,40
 1073 -358 1073 -358 1104.25683594 -18.41796875 c 1,41,42
 1070 170 1070 170 984.047851562 342.657226562 c 1,43,-1
 1127.33300781 464.58203125 l 1,44,45
 1167 266 1167 266 1222.2265625 221.198242188 c 24,9,10
EndSplineSet
Substitution2: "'fina' Terminal Forms in Arabic lookup 9 subtable" uniFEBA
Substitution2: "'medi' Medial Forms in Arabic lookup 11 subtable" uniFEBC
Substitution2: "'init' Initial Forms in Arabic lookup 13 subtable" uniFEBB
EndChar

StartChar: uni0637
Encoding: 1591 1591 28
Width: 1234
VWidth: 2483
GlyphClass: 2
Flags: W
AnchorPoint: "Anchor-10" 329.655 1574.94 basechar 0
AnchorPoint: "Anchor-7" 484.85 -259.665 basechar 0
LayerCount: 2
Fore
SplineSet
363.275390625 170.306640625 m 1,0,-1
 566.424804688 170.306640625 l 2,1,2
 903 170 903 170 991.5 195 c 0,3,4
 1081 220 1081 220 1036 353.5 c 128,-1,5
 991 487 991 487 846.26171875 503.06640625 c 0,6,7
 725 517 725 517 546.393554688 367.737304688 c 0,8,9
 448 286 448 286 363.275390625 170.306640625 c 1,0,-1
964.498046875 32.6181640625 m 0,10,11
 846.275581602 -18.9928644429 846.275581602 -18.9928644429 633.3125 -19 c 2,12,-1
 371 -19 l 1,13,14
 91.337890625 -19.1063168594 91.337890625 -19.1063168594 91.337890625 146 c 2,15,-1
 91.337890625 169.538085938 l 1,16,-1
 226.740234375 169.5390625 l 1,17,18
 271 224 271 224 315 279 c 1,19,20
 316 286 316 286 315.237304688 304.43359375 c 0,21,22
 315 308 315 308 306.237304688 787.43359375 c 0,23,24
 298 1223 298 1223 258.255859375 1380.81738281 c 1,25,-1
 414.360351562 1495.07519531 l 1,26,-1
 413.658203125 383.359375 l 1,27,28
 675 677 675 677 852 673.5 c 128,-1,29
 1029 670 1029 670 1106.69433594 518.161132812 c 0,30,31
 1158 417 1158 417 1142.79882812 273.4453125 c 24,32,33
 1123.79597956 102.161039231 1123.79597956 102.161039231 964.498046875 32.6181640625 c 0,10,11
EndSplineSet
Substitution2: "'fina' Terminal Forms in Arabic lookup 9 subtable" uniFEC2
Substitution2: "'medi' Medial Forms in Arabic lookup 11 subtable" uniFEC4
Substitution2: "'init' Initial Forms in Arabic lookup 13 subtable" uniFEC3
EndChar

StartChar: uni0639
Encoding: 1593 1593 30
Width: 1209
VWidth: 2479
GlyphClass: 2
Flags: W
AnchorPoint: "Anchor-10" 637.499 1320.97 basechar 0
AnchorPoint: "Anchor-7" 276.088 -799.68 basechar 0
LayerCount: 2
Fore
SplineSet
490 433 m 1,0,1
 372 551 372 551 371.785792314 665.085947045 c 0,2,3
 372 813 372 813 471.791015625 919.692382812 c 0,4,5
 544 998 544 998 635 1026 c 0,6,7
 693 1044 693 1044 761.791015625 1030.69238281 c 0,8,9
 960 991 960 991 995.791015625 770.692382812 c 1,10,11
 915 826 915 826 831 850.928525487 c 0,12,13
 694 892 694 892 577 837.201340472 c 0,14,15
 463 784 463 784 457.791015625 696.692382812 c 0,16,17
 453 609 453 609 590 518 c 0,18,19
 611 504 611 504 656 497 c 0,20,21
 712.09423215 487.984855547 712.09423215 487.984855547 858.383789062 517.400390625 c 2,22,-1
 1053.79101562 556.692382812 l 1,23,-1
 1007.96386719 412.84765625 l 1,24,25
 657 373 657 373 480 281 c 128,-1,26
 303 189 303 189 242 80 c 128,-1,27
 181 -29 181 -29 181 -124.5 c 128,-1,28
 181 -220 181 -220 231 -288 c 0,29,30
 357 -460 357 -460 732.414954371 -460.317196227 c 0,31,32
 938 -460 938 -460 1117 -350 c 1,33,34
 966 -638 966 -638 631.153320312 -638.310546875 c 0,35,36
 356 -638 356 -638 223.265625 -501.655273438 c 0,37,38
 91 -365 91 -365 91 -179.5 c 128,-1,39
 91 6 91 6 143.5 111 c 0,40,41
 252 328 252 328 490 433 c 1,0,1
EndSplineSet
Substitution2: "'fina' Terminal Forms in Arabic lookup 9 subtable" uniFECA
Substitution2: "'medi' Medial Forms in Arabic lookup 11 subtable" uniFECC
Substitution2: "'init' Initial Forms in Arabic lookup 13 subtable" uniFECB
EndChar

StartChar: afii57440
Encoding: 1600 1600 32
Width: 721
VWidth: 2500
GlyphClass: 2
Flags: W
AnchorPoint: "Anchor-10" 350.532 1457.35 basechar 0
AnchorPoint: "Anchor-7" 350.532 -152.768 basechar 0
LayerCount: 2
Fore
SplineSet
-13.783203125 -19 m 1,0,-1
 -13.783203125 169 l 1,1,-1
 735.595703125 169 l 1,2,-1
 735.595703125 -19 l 5,3,-1
 -13.783203125 -19 l 1,0,-1
EndSplineSet
EndChar

StartChar: uni0643
Encoding: 1603 1603 35
Width: 1790
VWidth: 2457
GlyphClass: 2
Flags: W
AnchorPoint: "Anchor-10" 488.766 1369.78 basechar 0
AnchorPoint: "Anchor-7" 554.937 -249.796 basechar 0
LayerCount: 2
Fore
SplineSet
1529.5 971.5 m 0,0,1
 1517 1253 1517 1253 1499.67089844 1369.84570312 c 1,2,-1
 1659.93457031 1484.19824219 l 1,3,-1
 1659.93457031 471.728515625 l 1,4,5
 1654 345 1654 345 1623 281 c 0,6,7
 1577 183 1577 183 1504 131 c 0,8,9
 1354 25 1354 25 1179.62109375 4.47900390625 c 0,10,11
 1000 -17 1000 -17 777.559570312 -18.8544921875 c 24,12,13
 403 -22 403 -22 282.805664062 41.0048828125 c 0,14,15
 89 143 89 143 91 417 c 0,16,17
 92 539 92 539 143.921875 639.721679688 c 1,18,-1
 208 607 l 1,19,20
 184 501 184 501 187 435 c 0,21,22
 198 189 198 189 552.961914062 173.509765625 c 0,23,24
 675 168 675 168 887 170 c 152,-1,25
 1099 172 1099 172 1169.86621094 183.932617188 c 0,26,27
 1524 244 1524 244 1538.71679688 428.803710938 c 24,28,29
 1548 549 1548 549 1529.5 971.5 c 0,0,1
615.793945312 736.935546875 m 1,30,31
 689 727 689 727 756.052734375 727.401367188 c 0,32,33
 823 727 823 727 878.55078125 749.248046875 c 0,34,35
 975 786 975 786 974.977539062 847.876953125 c 0,36,37
 975 917 975 917 863.2421875 934.5234375 c 0,38,39
 723 956 723 956 726.017578125 1085.21582031 c 0,40,41
 728 1174 728 1174 815.842773438 1218.60058594 c 0,42,43
 931 1277 931 1277 1066.11328125 1285.80566406 c 1,44,-1
 1031.27539062 1207.51171875 l 1,45,46
 886 1196 886 1196 821.060546875 1139.96777344 c 0,47,48
 793 1116 793 1116 793.470703125 1082.04785156 c 0,49,50
 793 1001 793 1001 888.647460938 987.006835938 c 0,51,52
 984 973 984 973 1012.91601562 946.430664062 c 128,-1,53
 1042 920 1042 920 1042.0078125 885.044921875 c 0,54,55
 1042 805 1042 805 1004.35058594 757.015625 c 0,56,57
 924 655 924 655 748 655 c 0,58,59
 680 655 680 655 615.793945312 665.458984375 c 1,60,-1
 615.793945312 736.935546875 l 1,30,31
EndSplineSet
Substitution2: "'fina' Terminal Forms in Arabic lookup 9 subtable" uniFEDA
Substitution2: "'medi' Medial Forms in Arabic lookup 11 subtable" uniFEDC
Substitution2: "'init' Initial Forms in Arabic lookup 13 subtable" uniFEDB
EndChar

StartChar: uni0644
Encoding: 1604 1604 36
Width: 1349
VWidth: 2483
GlyphClass: 2
Flags: W
AnchorPoint: "Anchor-10" 499.464 1032.96 basechar 0
AnchorPoint: "Anchor-7" 344.052 -721.785 basechar 0
LayerCount: 2
Fore
SplineSet
1218.50488281 407.482421875 m 2,0,1
 1218 154 1218 154 1218 153 c 0,2,3
 1218 66 1218 66 1209 -14 c 24,4,5
 1149 -541 1149 -541 628 -548 c 0,6,7
 321.067003793 -552.012196029 321.067003793 -552.012196029 196 -392 c 0,8,9
 60 -218 60 -218 115.260742188 92.9365234375 c 0,10,11
 138.809279405 221.589634132 138.809279405 221.589634132 211.321289062 392.310546875 c 1,12,-1
 281.6484375 337.49609375 l 1,13,14
 165 2 165 2 248 -173 c 0,15,16
 342 -373 342 -373 640 -367 c 0,17,18
 1073 -358 1073 -358 1104.25683594 -18.41796875 c 0,19,20
 1132 289 1132 289 1096.94921875 777.430664062 c 0,21,22
 1068 1185 1068 1185 1058.22949219 1379.15722656 c 1,23,-1
 1218.50488281 1493.51660156 l 1,24,-1
 1218.50488281 407.482421875 l 2,0,1
EndSplineSet
Substitution2: "'fina' Terminal Forms in Arabic lookup 9 subtable" uniFEDE
Substitution2: "'medi' Medial Forms in Arabic lookup 11 subtable" uniFEE0
Substitution2: "'init' Initial Forms in Arabic lookup 13 subtable" uniFEDF
EndChar

StartChar: uni0645
Encoding: 1605 1605 37
Width: 984
VWidth: 2502
GlyphClass: 2
Flags: W
AnchorPoint: "Anchor-10" 507.276 1092.79 basechar 0
AnchorPoint: "Anchor-7" 224.744 -797.412 basechar 0
LayerCount: 2
Fore
SplineSet
780 310 m 0,0,1
 830.587316176 312.199448529 830.587316176 312.199448529 806 374 c 0,2,3
 769 467 769 467 682 533 c 0,4,5
 559.993929264 622.592108043 559.993929264 622.592108043 478 516 c 0,6,7
 432 456 432 456 414 324 c 1,8,9
 588 302 588 302 780 310 c 0,0,1
855 185 m 0,10,11
 809 135 809 135 649.836914062 144.21484375 c 0,12,13
 535 151 535 151 406.112304688 159.987304688 c 0,14,15
 242 172 242 172 202 92 c 0,16,17
 165.861809611 20.7274578431 165.861809611 20.7274578431 198.295898438 -136.41015625 c 2,18,-1
 293.666992188 -598.466796875 l 1,19,-1
 147.193359375 -717.892578125 l 1,20,-1
 91.1708984375 -108.258789062 l 2,21,22
 77 44 77 44 109 131 c 0,23,24
 166 289 166 289 301.055664062 310.100585938 c 1,25,26
 327 566 327 566 468 684 c 0,27,28
 564 765 564 765 667 721 c 0,29,30
 859 641 859 641 892.576171875 361.1484375 c 0,31,32
 907 243 907 243 855 185 c 0,10,11
EndSplineSet
Substitution2: "'init' Initial Forms in Arabic lookup 13 subtable" uniFEE3
Substitution2: "'medi' Medial Forms in Arabic lookup 11 subtable" uniFEE4
Substitution2: "'fina' Terminal Forms in Arabic lookup 9 subtable" uniFEE2
EndChar

StartChar: uni0647
Encoding: 1607 1607 39
Width: 754
VWidth: 2478
GlyphClass: 2
Flags: W
AnchorPoint: "Anchor-10" 347.765 1026.56 basechar 0
AnchorPoint: "Anchor-7" 341.562 -234.046 basechar 0
LayerCount: 2
Fore
SplineSet
377 554 m 1,0,1
 198.211456148 351.783991781 198.211456148 351.783991781 198.211456148 277.298871892 c 128,-1,2
 198.211456148 202.813752003 198.211456148 202.813752003 296.345703125 170.94921875 c 0,3,4
 348.638606873 153.972691243 348.638606873 153.972691243 398.177981975 153.972691243 c 128,-1,5
 447.717357077 153.972691243 447.717357077 153.972691243 494 173 c 0,6,7
 562.343403119 201.056765491 562.343403119 201.056765491 562.343403119 263.842449893 c 0,8,9
 562.343403119 288.331319376 562.343403119 288.331319376 551.946289062 318.103515625 c 0,10,11
 505 454 505 454 377 554 c 1,0,1
125.36328125 102.5625 m 0,12,13
 91.4272076901 160.657356752 91.4272076901 160.657356752 91.4272076901 235.772652772 c 128,-1,14
 91.4272076901 310.887948792 91.4272076901 310.887948792 156.713603845 424.943974396 c 128,-1,15
 222 539 222 539 304 634 c 1,16,-1
 268 661 l 1,17,-1
 350.547851562 810.465820312 l 1,18,19
 537 646 537 646 599.583333333 501.083333333 c 128,-1,20
 662.166666667 356.166666667 662.166666667 356.166666667 662.166666667 257.243055556 c 0,21,22
 662.166666667 118.75 662.166666667 118.75 556 33 c 0,23,24
 493.318030985 -17.5499750125 493.318030985 -17.5499750125 383.253593655 -17.5499750125 c 0,25,26
 194.587971639 -17.5499750125 194.587971639 -17.5499750125 125.36328125 102.5625 c 0,12,13
EndSplineSet
Substitution2: "'fina' Terminal Forms in Arabic lookup 9 subtable" uniFEEA
Substitution2: "'medi' Medial Forms in Arabic lookup 11 subtable" uniFEEC
Substitution2: "'init' Initial Forms in Arabic lookup 13 subtable" uniFEEB
EndChar

StartChar: uni0648
Encoding: 1608 1608 40
Width: 759
VWidth: 2501
GlyphClass: 2
Flags: W
AnchorPoint: "Anchor-10" 358.355 1012.56 basechar 0
AnchorPoint: "Anchor-7" 260.725 -748.915 basechar 0
LayerCount: 2
Fore
SplineSet
364.764648438 442.666015625 m 0,0,1
 247 440 247 440 223.57421875 292.483398438 c 0,2,3
 208 195 208 195 283.463867188 164.397460938 c 0,4,5
 388 122 388 122 552.384765625 172.18359375 c 1,6,7
 554 247 554 247 518.043945312 327.389648438 c 0,8,9
 466 445 466 445 364.764648438 442.666015625 c 0,0,1
667.116210938 -20 m 0,10,11
 658 -69 658 -69 643.775220483 -117 c 0,12,13
 577 -347 577 -347 423.130859375 -492 c 0,14,15
 385.492929242 -527.588367778 385.492929242 -527.588367778 330 -527.680664062 c 0,16,17
 138 -528 138 -528 28 -478 c 0,18,19
 8 -469 8 -469 26.3671875 -456.19921875 c 0,20,21
 35 -450 35 -450 63.095703125 -439.788085938 c 0,22,23
 473 -289 473 -289 568 -8.30859375 c 1,24,25
 468 -41 468 -41 347.077148438 -29.1826171875 c 0,26,27
 218 -17 218 -17 156.4921875 79.419921875 c 0,28,29
 103 163 103 163 115.798828125 287.47265625 c 0,30,31
 136 483 136 483 241.100585938 585.75 c 0,32,33
 300 643 300 643 404.21484375 633.663085938 c 0,34,35
 442 630 442 630 479.329101562 607.534179688 c 0,36,37
 517 585 517 585 553.979492188 543.495117188 c 0,38,39
 599 494 599 494 626.618164062 423.815429688 c 0,40,41
 655 350 655 350 665.5 262.865234375 c 0,42,43
 687 85 687 85 667.116210938 -20 c 0,10,11
EndSplineSet
Substitution2: "'fina' Terminal Forms in Arabic lookup 9 subtable" uniFEEE
EndChar

StartChar: uni0649
Encoding: 1609 1609 41
Width: 1274
VWidth: 2497
GlyphClass: 2
Flags: W
AnchorPoint: "Anchor-10" 425.337 965.22 basechar 0
AnchorPoint: "Anchor-7" 220.703 -576.382 basechar 0
LayerCount: 2
Fore
SplineSet
1160 490.092773438 m 1,0,-1
 1136 446.092773438 l 1,1,-1
 1097.265625 458.498046875 l 2,2,3
 939 509 939 509 848 395 c 0,4,5
 790 323 790 323 783.462890625 239.567382812 c 0,6,7
 777.976158163 166.683292271 777.976158163 166.683292271 962.697265625 167.94921875 c 2,8,-1
 985.211914062 168.103515625 l 2,9,10
 1066 169 1066 169 1116.98828125 157.446289062 c 0,11,12
 1186 143 1186 143 1183 14 c 24,13,14
 1179 -140 1179 -140 1040 -270 c 0,15,16
 860 -437 860 -437 594 -437 c 0,17,18
 88 -438 88 -438 91.28125 26.28125 c 0,19,20
 92 142 92 142 129.142578125 277.013671875 c 0,21,22
 166 412 166 412 224.270507812 514.80078125 c 1,23,-1
 290.600585938 475.02734375 l 1,24,25
 205 251 205 251 205.959960938 116.20703125 c 0,26,27
 207 -18 207 -18 262 -110 c 0,28,29
 352 -259 352 -259 640 -252 c 0,30,31
 679 -251 679 -251 732 -244 c 0,32,33
 1047 -201 1047 -201 1095 -34 c 0,34,35
 1108 11 1108 11 1046.65527344 14.3564453125 c 0,36,37
 1037 15 1037 15 1026.61132812 16.2001953125 c 1,38,-1
 916.228515625 16.4931640625 l 2,39,40
 792 17 792 17 744 56 c 0,41,42
 651 132 651 132 711.615234375 339.008789062 c 0,43,44
 758 495 758 495 843 571.092773438 c 0,45,46
 916 635 916 635 977 641.092773438 c 0,47,48
 1131 657 1131 657 1160 490.092773438 c 1,0,-1
EndSplineSet
Substitution2: "'fina' Terminal Forms in Arabic lookup 9 subtable" uniFEF0
Substitution2: "'medi' Medial Forms in Arabic lookup 11 subtable" uniFBE9
Substitution2: "'init' Initial Forms in Arabic lookup 13 subtable" uniFBE8
EndChar

StartChar: uni064B
Encoding: 1611 1611 43
Width: -21
VWidth: 1843
GlyphClass: 4
Flags: W
AnchorPoint: "Anchor-10" 487.615 889.456 mark 0
AnchorPoint: "Anchor-9" 487.615 889.456 mark 0
AnchorPoint: "Anchor-1" 455.615 1328.62 basemark 0
AnchorPoint: "Anchor-1" 487.615 889.456 mark 0
LayerCount: 2
Fore
SplineSet
241.612304688 846.409179688 m 1,0,-1
 241.612304688 938.201171875 l 1,1,-1
 644.543945312 1102.96289062 l 1,2,-1
 644.543945312 1011.16992188 l 1,3,-1
 241.612304688 846.409179688 l 1,0,-1
241.612304688 1065.21289062 m 1,4,-1
 241.612304688 1157.00390625 l 1,5,-1
 644.543945312 1321.765625 l 1,6,-1
 644.543945312 1229.97363281 l 1,7,-1
 241.612304688 1065.21289062 l 1,4,-1
EndSplineSet
EndChar

StartChar: uni064C
Encoding: 1612 1612 44
Width: -21
VWidth: 1843
GlyphClass: 4
Flags: W
AnchorPoint: "Anchor-10" 541.146 972.912 mark 0
AnchorPoint: "Anchor-9" 541.146 972.912 mark 0
AnchorPoint: "Anchor-1" 454.387 1526.68 basemark 0
AnchorPoint: "Anchor-1" 541.146 972.912 mark 0
LayerCount: 2
Fore
SplineSet
522.124023438 1386.29101562 m 0,0,1
 455.571289062 1386.29101562 455.571289062 1386.29101562 455.571289062 1326.91210938 c 0,2,3
 455.571289062 1283.86523438 455.571289062 1283.86523438 505.1640625 1264.02832031 c 0,4,5
 523.676757812 1256.62402344 523.676757812 1256.62402344 560.025390625 1245.42871094 c 1,6,-1
 570.47265625 1269.80273438 l 2,7,8
 579.752929688 1291.45800781 579.752929688 1291.45800781 579.752929688 1322.47753906 c 128,-1,9
 579.752929688 1353.49707031 579.752929688 1353.49707031 559.83984375 1369.89453125 c 128,-1,10
 539.92578125 1386.29101562 539.92578125 1386.29101562 522.124023438 1386.29101562 c 0,0,1
269.788085938 1109.39160156 m 0,11,12
 305.247070312 1033.41308594 305.247070312 1033.41308594 359.63671875 1033.41308594 c 128,-1,13
 414.025390625 1033.41308594 414.025390625 1033.41308594 474.21484375 1091.66210938 c 0,14,15
 509.388671875 1125.88574219 509.388671875 1125.88574219 529.4453125 1166 c 2,16,-1
 537.647460938 1182.40820312 l 1,17,-1
 519.700195312 1186.21582031 l 2,18,19
 445.576171875 1201.92773438 445.576171875 1201.92773438 405.114257812 1257.77148438 c 0,20,21
 382.6953125 1288.71289062 382.6953125 1288.71289062 382.6953125 1312.94238281 c 128,-1,22
 382.6953125 1337.17089844 382.6953125 1337.17089844 383.84765625 1346.81542969 c 0,23,24
 388.455078125 1385.38378906 388.455078125 1385.38378906 417.099609375 1421.37207031 c 128,-1,25
 445.744140625 1457.359375 445.744140625 1457.359375 509.552734375 1457.359375 c 128,-1,26
 573.361328125 1457.359375 573.361328125 1457.359375 612.091796875 1419.44433594 c 128,-1,27
 650.822265625 1381.52929688 650.822265625 1381.52929688 650.822265625 1316.06445312 c 0,28,29
 650.822265625 1282.99414062 650.822265625 1282.99414062 640.6328125 1250.72851562 c 2,30,-1
 635.115234375 1233.26074219 l 1,31,-1
 653.412109375 1232.30078125 l 2,32,33
 672.018554688 1231.31738281 672.018554688 1231.31738281 704.154296875 1230.6171875 c 1,34,-1
 704.154296875 1159.4609375 l 1,35,36
 673.32421875 1159.72265625 673.32421875 1159.72265625 659.130859375 1161.14648438 c 2,37,-1
 601.794921875 1166.65820312 l 1,38,39
 575.193359375 1104.31445312 575.193359375 1104.31445312 524.059570312 1051.65039062 c 128,-1,40
 472.924804688 998.986328125 472.924804688 998.986328125 435.029296875 980.666015625 c 128,-1,41
 397.134765625 962.345703125 397.134765625 962.345703125 357.666015625 962.345703125 c 0,42,43
 264.548828125 962.345703125 264.548828125 962.345703125 217.31640625 1092.24511719 c 0,44,45
 205.642578125 1124.14648438 205.642578125 1124.14648438 204.690429688 1212.39257812 c 1,46,-1
 257.685546875 1212.39257812 l 1,47,48
 258.626953125 1133.57421875 258.626953125 1133.57421875 269.788085938 1109.39160156 c 0,11,12
683.59375 1231.37597656 m 2,49,-1
 683.510742188 1231.38085938 l 2,50,51
 683.552734375 1231.37792969 683.552734375 1231.37792969 683.59375 1231.37597656 c 2,49,-1
EndSplineSet
EndChar

StartChar: uni064D
Encoding: 1613 1613 45
Width: -21
VWidth: 1843
GlyphClass: 4
Flags: W
AnchorPoint: "Anchor-7" 442.099 60.582 mark 0
AnchorPoint: "Anchor-6" 442.099 60.582 mark 0
AnchorPoint: "Anchor-0" 508.415 -374.489 basemark 0
AnchorPoint: "Anchor-0" 442.099 60.582 mark 0
LayerCount: 2
Fore
SplineSet
245.836914062 -412.342773438 m 1,0,-1
 245.836914062 -320.55078125 l 1,1,-1
 648.767578125 -155.790039062 l 1,2,-1
 648.767578125 -247.581054688 l 1,3,-1
 245.836914062 -412.342773438 l 1,0,-1
245.836914062 -193.540039062 m 1,4,-1
 245.836914062 -101.748046875 l 1,5,-1
 648.767578125 63.013671875 l 1,6,-1
 648.767578125 -28.7783203125 l 1,7,-1
 245.836914062 -193.540039062 l 1,4,-1
EndSplineSet
EndChar

StartChar: uni064E
Encoding: 1614 1614 46
Width: -21
VWidth: 1843
GlyphClass: 4
Flags: W
AnchorPoint: "Anchor-10" 462.271 1088.92 mark 0
AnchorPoint: "Anchor-9" 462.271 1088.92 mark 0
AnchorPoint: "Anchor-1" 430.271 1348.9 basemark 0
AnchorPoint: "Anchor-1" 462.271 1088.92 mark 0
LayerCount: 2
Fore
SplineSet
217.11328125 1064.3671875 m 1,0,-1
 217.11328125 1156.15917969 l 1,1,-1
 620.044921875 1320.92089844 l 1,2,-1
 620.044921875 1229.12890625 l 1,3,-1
 217.11328125 1064.3671875 l 1,0,-1
EndSplineSet
EndChar

StartChar: uni064F
Encoding: 1615 1615 47
Width: -21
VWidth: 1843
GlyphClass: 4
Flags: W
AnchorPoint: "Anchor-10" 492.498 1024.81 mark 0
AnchorPoint: "Anchor-9" 492.498 1024.81 mark 0
AnchorPoint: "Anchor-1" 437.215 1538.56 basemark 0
AnchorPoint: "Anchor-1" 492.498 1024.81 mark 0
LayerCount: 2
Fore
SplineSet
658.181640625 1171.37988281 m 1,0,1
 612.799804688 1172 612.799804688 1172 552.587890625 1178.41601562 c 1,2,3
 510.400390625 1119.20019531 510.400390625 1119.20019531 450.702148438 1082.39941406 c 0,4,5
 356 1023.20019531 356 1023.20019531 248.799804688 1019.20019531 c 1,6,-1
 248.799804688 1090.19335938 l 1,7,8
 353.599609375 1093.59960938 353.599609375 1093.59960938 416.251953125 1145.92773438 c 0,9,10
 444 1168.79980469 444 1168.79980469 455.759765625 1181.67578125 c 2,11,-1
 473.024414062 1199.86035156 l 1,12,-1
 448.551757812 1205.29296875 l 2,13,14
 443.200195312 1206.40039062 443.200195312 1206.40039062 411.861328125 1222.51464844 c 0,15,16
 381.599609375 1238.40039062 381.599609375 1238.40039062 359.088867188 1269.25585938 c 0,17,18
 336.799804688 1300 336.799804688 1300 336.723632812 1337.42578125 c 0,19,20
 336.799804688 1410.40039062 336.799804688 1410.40039062 393.420898438 1453.09179688 c 0,21,22
 415.200195312 1469.59960938 415.200195312 1469.59960938 471.169921875 1469.23730469 c 0,23,24
 527.200195312 1469.59960938 527.200195312 1469.59960938 566.120117188 1431.32226562 c 0,25,26
 604.799804688 1393.59960938 604.799804688 1393.59960938 604.849609375 1327.94335938 c 0,27,28
 604.799804688 1301.00097656 604.799804688 1301.00097656 592.834960938 1262.55175781 c 2,29,-1
 587.451171875 1245.24902344 l 1,30,-1
 605.544921875 1244.1796875 l 2,31,32
 636 1242.40039062 636 1242.40039062 658.181640625 1242.42285156 c 1,33,-1
 658.181640625 1171.37988281 l 1,0,1
514.053710938 1257.30761719 m 1,34,-1
 524.500976562 1281.6796875 l 2,35,36
 533.782226562 1303.33886719 533.782226562 1303.33886719 533.782226562 1334.35742188 c 128,-1,37
 533.782226562 1365.375 533.782226562 1365.375 513.865234375 1381.77246094 c 128,-1,38
 493.948242188 1398.16992188 493.948242188 1398.16992188 469.811523438 1398.16992188 c 128,-1,39
 445.674804688 1398.16992188 445.674804688 1398.16992188 427.637695312 1384.4296875 c 128,-1,40
 409.599609375 1370.68945312 409.599609375 1370.68945312 409.599609375 1333.21679688 c 128,-1,41
 409.599609375 1295.74414062 409.599609375 1295.74414062 459.192382812 1275.90527344 c 0,42,43
 477.728515625 1268.4921875 477.728515625 1268.4921875 514.053710938 1257.30761719 c 1,34,-1
EndSplineSet
EndChar

StartChar: uni0650
Encoding: 1616 1616 48
Width: -21
VWidth: 1843
GlyphClass: 4
Flags: W
AnchorPoint: "Anchor-7" 453.913 -12.96 mark 0
AnchorPoint: "Anchor-6" 453.913 -12.96 mark 0
AnchorPoint: "Anchor-0" 492.019 -261.556 basemark 0
AnchorPoint: "Anchor-0" 453.913 -12.96 mark 0
LayerCount: 2
Fore
SplineSet
254.28515625 -282.244140625 m 1,0,-1
 254.28515625 -190.451171875 l 1,1,-1
 657.215820312 -25.6904296875 l 1,2,-1
 657.215820312 -117.482421875 l 1,3,-1
 254.28515625 -282.244140625 l 1,0,-1
EndSplineSet
EndChar

StartChar: uni0651
Encoding: 1617 1617 49
Width: -21
VWidth: 1843
GlyphClass: 4
Flags: W
AnchorPoint: "Anchor-10" 487.615 1112.18 mark 0
AnchorPoint: "Anchor-9" 487.615 1112.18 mark 0
AnchorPoint: "Anchor-1" 463.077 1472.27 basemark 0
AnchorPoint: "Anchor-1" 487.615 1112.18 mark 0
LayerCount: 2
Fore
SplineSet
461.92578125 1225.53710938 m 1,0,1
 437.599609375 1093.59960938 437.599609375 1093.59960938 321.987304688 1093.50097656 c 0,2,3
 206.400390625 1093.59960938 206.400390625 1093.59960938 205.749023438 1242.31445312 c 0,4,5
 205.599609375 1272 205.599609375 1272 218.169921875 1354.91113281 c 1,6,-1
 278.260742188 1354.91113281 l 1,7,8
 268 1283.20019531 268 1283.20019531 268 1260.79980469 c 0,9,10
 268 1170.40039062 268 1170.40039062 331.959960938 1170.46191406 c 0,11,12
 420 1170.40039062 420 1170.40039062 424.484375 1285.96191406 c 0,13,14
 425.599609375 1317.59960938 425.599609375 1317.59960938 425.5 1355.29296875 c 0,15,16
 425.599609375 1392.79980469 425.599609375 1392.79980469 425.490234375 1399.96484375 c 1,17,-1
 484.8984375 1399.96484375 l 1,18,19
 486.400390625 1371.20019531 486.400390625 1371.20019531 486.629882812 1332.79296875 c 0,20,21
 486.400390625 1220.16308594 486.400390625 1220.16308594 584.364257812 1220.32519531 c 2,22,-1
 584.869140625 1220.32617188 l 2,23,24
 644 1220.79980469 644 1220.79980469 644.177734375 1315.59765625 c 0,25,26
 644.799804688 1400 644.799804688 1400 635.458984375 1449.86816406 c 1,27,-1
 699.154296875 1449.86816406 l 1,28,29
 708 1386.40039062 708 1386.40039062 708 1311.20019531 c 0,30,31
 708 1188.79980469 708 1188.79980469 640.5234375 1159.93359375 c 0,32,33
 614.400390625 1148.79980469 614.400390625 1148.79980469 588.799804688 1148 c 0,34,35
 532 1145.59960938 532 1145.59960938 502.400390625 1167.20019531 c 0,36,37
 466.400390625 1193.59960938 466.400390625 1193.59960938 461.92578125 1225.53710938 c 1,0,1
EndSplineSet
EndChar

StartChar: uni0652
Encoding: 1618 1618 50
Width: -27
VWidth: 2304
GlyphClass: 4
Flags: W
AnchorPoint: "Anchor-10" 588.527 1187.7 mark 0
AnchorPoint: "Anchor-9" 588.527 1187.7 mark 0
AnchorPoint: "Anchor-1" 573.743 1793.31 basemark 0
AnchorPoint: "Anchor-1" 588.527 1187.7 mark 0
LayerCount: 2
Fore
SplineSet
707.344726562 1457.10253906 m 0,0,1
 707.344726562 1505.78320312 707.344726562 1505.78320312 673.299804688 1539.828125 c 128,-1,2
 639.258789062 1573.87304688 639.258789062 1573.87304688 589.884765625 1573.87304688 c 0,3,4
 539.819335938 1573.87304688 539.819335938 1573.87304688 506.124023438 1540.17675781 c 128,-1,5
 472.427734375 1506.48046875 472.427734375 1506.48046875 472.427734375 1457.10253906 c 0,6,7
 472.427734375 1407.03808594 472.427734375 1407.03808594 506.124023438 1373.34277344 c 128,-1,8
 539.819335938 1339.64648438 539.819335938 1339.64648438 589.884765625 1339.64648438 c 0,9,10
 639.260742188 1339.64648438 639.260742188 1339.64648438 673.299804688 1373.69140625 c 128,-1,11
 707.344726562 1407.73535156 707.344726562 1407.73535156 707.344726562 1457.10253906 c 0,0,1
779.41796875 1457.21875 m 128,-1,13
 779.41796875 1377.71484375 779.41796875 1377.71484375 724.528320312 1322.47265625 c 128,-1,14
 669.673828125 1267.2734375 669.673828125 1267.2734375 590.212890625 1267.2734375 c 0,15,16
 563.655273438 1267.2734375 563.655273438 1267.2734375 539.920898438 1273.39550781 c 128,-1,17
 516.186523438 1279.51757812 516.186523438 1279.51757812 495.203125 1291.77636719 c 128,-1,18
 474.220703125 1304.03515625 474.220703125 1304.03515625 455.8984375 1322.47265625 c 0,19,20
 428.400390625 1350.14648438 428.400390625 1350.14648438 414.704101562 1383.76074219 c 128,-1,21
 401.006835938 1417.375 401.006835938 1417.375 401.006835938 1457.21875 c 0,22,23
 401.006835938 1536.6953125 401.006835938 1536.6953125 455.8671875 1591.56542969 c 128,-1,24
 510.7265625 1646.42480469 510.7265625 1646.42480469 590.212890625 1646.42480469 c 128,-1,25
 669.698242188 1646.42480469 669.698242188 1646.42480469 724.556640625 1591.56542969 c 128,-1,12
 779.41796875 1536.6953125 779.41796875 1536.6953125 779.41796875 1457.21875 c 128,-1,13
EndSplineSet
EndChar

StartChar: uni0653
Encoding: 1619 1619 51
Width: 0
VWidth: 2277
GlyphClass: 4
Flags: W
AnchorPoint: "Anchor-10" 460.554 1319.1 mark 0
AnchorPoint: "Anchor-9" 460.554 1319.1 mark 0
AnchorPoint: "Anchor-1" 460.554 1668.52 basemark 0
AnchorPoint: "Anchor-1" 460.554 1319.1 mark 0
LayerCount: 2
Fore
SplineSet
301.348632812 1382.22753906 m 0,0,1
 256.633789062 1388.12402344 256.633789062 1388.12402344 192.205078125 1299.6484375 c 2,2,-1
 187.90625 1293.74511719 l 1,3,-1
 185.24609375 1300.54589844 l 2,4,5
 172.684570312 1332.65917969 172.684570312 1332.65917969 181.168945312 1388.86425781 c 0,6,7
 197.329101562 1486.90527344 197.329101562 1486.90527344 292.081054688 1486.19628906 c 0,8,9
 322.857421875 1485.83496094 322.857421875 1485.83496094 363.16015625 1476.97070312 c 0,10,11
 401.8984375 1468.15820312 401.8984375 1468.15820312 453.220703125 1467.94433594 c 0,12,13
 603.120117188 1468.15722656 603.120117188 1468.15722656 648.331054688 1536.95214844 c 2,14,-1
 654.6796875 1546.61230469 l 1,15,-1
 655.659179688 1535.09375 l 2,16,17
 656.374023438 1526.6875 656.374023438 1526.6875 656.778320312 1519.23828125 c 128,-1,18
 657.18359375 1511.79003906 657.18359375 1511.79003906 657.280273438 1505.11523438 c 128,-1,19
 657.377929688 1498.44042969 657.377929688 1498.44042969 657.153320312 1492.65136719 c 128,-1,20
 656.9296875 1486.86328125 656.9296875 1486.86328125 656.377929688 1481.85253906 c 128,-1,21
 655.827148438 1476.84179688 655.827148438 1476.84179688 654.943359375 1472.64550781 c 0,22,23
 630.275390625 1368.609375 630.275390625 1368.609375 468.3125 1370.16992188 c 0,24,25
 450.455078125 1370.35449219 450.455078125 1370.35449219 433.581054688 1370.93945312 c 128,-1,26
 416.706054688 1371.52539062 416.706054688 1371.52539062 400.7734375 1372.51464844 c 128,-1,27
 384.840820312 1373.50488281 384.840820312 1373.50488281 369.849609375 1374.89941406 c 0,28,29
 316.731445312 1380.10644531 316.731445312 1380.10644531 301.348632812 1382.22753906 c 0,0,1
EndSplineSet
EndChar

StartChar: uni0657
Encoding: 1623 1623 54
Width: -27
VWidth: 2304
GlyphClass: 4
Flags: W
AnchorPoint: "Anchor-10" 569.519 1347.15 mark 0
AnchorPoint: "Anchor-9" 569.519 1347.15 mark 0
AnchorPoint: "Anchor-1" 569.519 2081.6 basemark 0
AnchorPoint: "Anchor-1" 569.519 1347.15 mark 0
LayerCount: 2
Fore
SplineSet
659.133789062 1603.78173828 m 0,0,1
 659 1430 659 1430 491.074544274 1431.54492188 c 0,2,3
 421 1432 421 1432 372.388183594 1478.93945313 c 0,4,5
 324 1526 324 1526 323.975585938 1608.16308594 c 0,6,7
 323.99979061 1641.70979344 323.99979061 1641.70979344 338.994140625 1689.90234375 c 2,8,-1
 345.723632812 1711.53125 l 1,9,-1
 323.10546875 1712.8671875 l 2,10,11
 287 1715 287 1715 257.310546875 1715.06347656 c 1,12,-1
 257.310546875 1803.8671875 l 1,13,14
 314 1803 314 1803 389.303710938 1795.07324219 c 1,15,16
 442 1870 442 1870 516.661132812 1915.09375 c 0,17,18
 698 2026 698 2026 785 2030.74121094 c 5,19,-1
 785 1942 l 5,20,21
 692 1939 692 1939 559.72265625 1835.68164062 c 0,22,23
 533 1815 533 1815 510.338867188 1790.99804688 c 2,24,-1
 488.760742188 1768.28125 l 1,25,-1
 519.344726562 1761.47558594 l 2,26,27
 528 1760 528 1760 565.211425781 1739.94873047 c 0,28,29
 603 1720 603 1720 631.176757812 1681.52148438 c 0,30,31
 659 1643 659 1643 659.133789062 1603.78173828 c 0,0,1
480.167480469 1520.38085938 m 0,32,33
 568.038085938 1520.38085938 568.038085938 1520.38085938 568.038085938 1594.60449219 c 0,34,35
 568.038085938 1648.41148902 568.038085938 1648.41148902 506.048828125 1673.20996094 c 0,36,37
 482.976628637 1682.4430983 482.976628637 1682.4430983 437.471679688 1696.45898438 c 1,38,-1
 424.413085938 1665.99316406 l 2,39,40
 412.810546875 1638.92285156 412.810546875 1638.92285156 412.810546875 1600.15429688 c 128,-1,41
 412.810546875 1561.38574219 412.810546875 1561.38574219 437.703125 1540.88330078 c 128,-1,42
 462.595703125 1520.38085938 462.595703125 1520.38085938 480.167480469 1520.38085938 c 0,32,33
EndSplineSet
EndChar

StartChar: uni065A
Encoding: 1626 1626 55
Width: 1129
VWidth: 2304
GlyphClass: 4
Flags: W
AnchorPoint: "Anchor-10" 569.519 1347.15 mark 0
AnchorPoint: "Anchor-9" 569.519 1347.15 mark 0
AnchorPoint: "Anchor-1" 567.259 1855.62 basemark 0
AnchorPoint: "Anchor-1" 569.519 1347.15 mark 0
LayerCount: 2
Fore
SplineSet
495.958007812 1434.93457031 m 1,0,-1
 296.83203125 1767.83300781 l 1,1,-1
 413.142578125 1767.83300781 l 1,2,-1
 569.518554688 1533.26269531 l 1,3,-1
 725.89453125 1767.83300781 l 1,4,-1
 842.206054688 1767.83300781 l 1,5,-1
 643.077148438 1434.93457031 l 1,6,-1
 495.958007812 1434.93457031 l 1,0,-1
EndSplineSet
EndChar

StartChar: afii57392
Encoding: 1632 1632 56
Width: 835
VWidth: 2380
GlyphClass: 2
Flags: W
LayerCount: 2
Fore
SplineSet
342.015625 588.8125 m 132,-1,1
 311.791992188 558.583984375 311.791992188 558.583984375 311.791992188 516.420898438 c 132,-1,2
 311.791992188 474.2578125 311.791992188 474.2578125 342.015625 444.03125 c 132,-1,3
 372.2421875 413.806640625 372.2421875 413.806640625 414.407226562 413.806640625 c 132,-1,4
 456.57421875 413.806640625 456.57421875 413.806640625 486.797851562 444.03125 c 132,-1,5
 517.024414062 474.2578125 517.024414062 474.2578125 517.024414062 516.421875 c 132,-1,6
 517.024414062 558.583984375 517.024414062 558.583984375 486.797851562 588.8125 c 132,-1,7
 456.573242188 619.0390625 456.573242188 619.0390625 414.407226562 619.0390625 c 132,-1,0
 372.244140625 619.0390625 372.244140625 619.0390625 342.015625 588.8125 c 132,-1,1
180.82421875 513.331054688 m 128,-1,9
 180.82421875 611.57421875 180.82421875 611.57421875 250.181640625 681.3359375 c 128,-1,10
 319.497070312 751.057617188 319.497070312 751.057617188 417.081054688 751.057617188 c 0,11,12
 542.384765625 751.057617188 542.384765625 751.057617188 614.294921875 644.690429688 c 0,13,14
 653.337890625 586.939453125 653.337890625 586.939453125 653.337890625 501.009765625 c 128,-1,15
 653.337890625 415.081054688 653.337890625 415.081054688 583.982421875 345.327148438 c 128,-1,16
 514.662109375 275.608398438 514.662109375 275.608398438 417.081054688 275.608398438 c 128,-1,17
 319.49609375 275.608398438 319.49609375 275.608398438 250.181640625 345.327148438 c 128,-1,8
 180.82421875 415.088867188 180.82421875 415.088867188 180.82421875 513.331054688 c 128,-1,9
EndSplineSet
EndChar

StartChar: afii57393
Encoding: 1633 1633 57
Width: 659
VWidth: 2378
GlyphClass: 2
Flags: W
LayerCount: 2
Fore
SplineSet
405.56764339 -6.56121748429 m 1,0,1
 362.215905511 783.033389479 362.215905511 783.033389479 161.521900302 1327.89349059 c 1,2,-1
 285.882003106 1480.1556211 l 5,3,4
 506.944037932 1017.30785199 506.944037932 1017.30785199 498.54451034 226.747904189 c 0,5,6
 497.585258841 136.515204894 497.585258841 136.515204894 471.846637834 76.4164108766 c 0,7,8
 448.977635764 23.0189202709 448.977635764 23.0189202709 405.56764339 -6.56121748429 c 1,0,1
EndSplineSet
EndChar

StartChar: afii57394
Encoding: 1634 1634 58
Width: 1145
VWidth: 2229
GlyphClass: 2
Flags: W
LayerCount: 2
Fore
SplineSet
280.47265625 1483.45996094 m 1,0,1
 320 1388 320 1388 363.4140625 1300.5546875 c 0,2,3
 452 1119 452 1119 663.458007812 1115.765625 c 4,4,5
 863 1113 863 1113 913.5 1379.5 c 0,6,7
 917 1398 917 1398 928.0859375 1431.20703125 c 0,8,9
 942 1471 942 1471 965.801757812 1470.76171875 c 0,10,11
 1002 1471 1002 1471 995 1386.5 c 0,12,13
 985.400256056 1263.14329032 985.400256056 1263.14329032 962.5 1191 c 4,14,15
 886 950 886 950 669.155273438 937.94140625 c 0,16,17
 652 937 652 937 604.451171875 937.09765625 c 128,-1,18
 557 937 557 937 492.047851562 956.98828125 c 1,19,20
 584 683 584 683 583.943359375 306.765625 c 0,21,22
 584 34 584 34 479.421875 -8.2861328125 c 1,23,24
 469 454 469 454 356.208984375 866.047851562 c 0,25,26
 319 1002 319 1002 150.204101562 1384.83398438 c 1,27,-1
 280.47265625 1483.45996094 l 1,0,1
EndSplineSet
EndChar

StartChar: afii57395
Encoding: 1635 1635 59
Width: 1321
VWidth: 2229
GlyphClass: 2
Flags: W
LayerCount: 2
Fore
SplineSet
459.120308036 959.103799107 m 1,0,1
 552 685 552 685 551.86072631 284.573958583 c 0,2,3
 552 26 552 26 445.381193744 -9.6952325978 c 1,4,5
 439 306 439 306 399.5 518.5 c 128,-1,6
 360 731 360 731 321.907663935 867.070845734 c 128,-1,7
 284 1003 284 1003 116.138196957 1384.9222611 c 1,8,-1
 246.405660708 1483.54490571 l 1,9,10
 281 1400 281 1400 321.243348629 1316.70244792 c 0,11,12
 417 1121 417 1121 563.844948998 1121.16394475 c 0,13,14
 634 1121 634 1121 669.716596879 1173.58197238 c 0,15,16
 705 1226 705 1226 733.340470089 1397.44625265 c 0,17,18
 743 1455 743 1455 772.37455157 1456.60441476 c 0,19,20
 806.695449936 1458.0149299 806.695449936 1458.0149299 807.530474163 1416.84655825 c 0,21,22
 810 1270 810 1270 829 1222 c 0,23,24
 869 1121 869 1121 965.213154059 1120.8382733 c 0,25,26
 1091 1121 1091 1121 1130.359375 1416.33496094 c 0,27,28
 1137 1465 1137 1465 1172.38781083 1465.75747062 c 0,29,30
 1180 1466 1180 1466 1188.44628906 1463.63476562 c 0,31,32
 1211 1458 1211 1458 1210.13869796 1403.90674627 c 0,33,34
 1209 1320 1209 1320 1190 1214 c 0,35,36
 1144 951 1144 951 964.130670978 950.616386139 c 0,37,38
 845 951 845 951 773.125580167 1087.14222967 c 1,39,40
 709 940 709 940 549.554421123 939.193392708 c 0,41,42
 498 939 498 939 459.120308036 959.103799107 c 1,0,1
EndSplineSet
EndChar

StartChar: afii57396
Encoding: 1636 1636 60
Width: 1009
VWidth: 2375
GlyphClass: 2
Flags: W
LayerCount: 2
Fore
SplineSet
437.021484375 754.336914062 m 1,0,1
 215 866 215 866 162.487304688 938.150390625 c 1,2,3
 213 1288 213 1288 619.27734375 1452.51171875 c 1,4,5
 644 1412 644 1412 650 1289 c 1,6,7
 338 1115 338 1115 272 983 c 1,8,9
 437 902 437 902 713.844726562 854.852539062 c 1,10,11
 708 793 708 793 704.033203125 733.958984375 c 1,12,13
 409 568 409 568 266 323 c 5,14,15
 425 246 425 246 829.491210938 288.375976562 c 1,16,-1
 858.647460938 70.2412109375 l 1,17,18
 400 37 400 37 150.05859375 232.245117188 c 1,19,20
 172 539 172 539 437.021484375 754.336914062 c 1,0,1
EndSplineSet
EndChar

StartChar: afii57397
Encoding: 1637 1637 61
Width: 1221
VWidth: 2377
GlyphClass: 2
Flags: W
LayerCount: 2
Fore
SplineSet
262.073242188 497.108398438 m 0,0,1
 254 368 254 368 352.720703125 298.98828125 c 0,2,3
 452 230 452 230 635.443359375 240.646484375 c 4,4,5
 831 251 831 251 895.5546875 353.631835938 c 0,6,7
 1018 545 1018 545 743.79296875 865.889648438 c 0,8,9
 634 995 634 995 553.09765625 1038.29296875 c 1,10,11
 425 911 425 911 347.583984375 768.287109375 c 0,12,13
 270 626 270 626 262.073242188 497.108398438 c 0,0,1
496.137695312 1300.24902344 m 1,14,15
 769 1141 769 1141 916.561523438 933.940429688 c 0,16,17
 1057 735 1057 735 1070.10449219 515.028320312 c 0,18,19
 1082 310 1082 310 972.405273438 185.100585938 c 0,20,21
 846 42 846 42 597.5546875 42.35546875 c 0,22,23
 359 43 359 43 244.345703125 178.813476562 c 0,24,25
 130 315 130 315 150.25 504.392578125 c 0,26,27
 171 694 171 694 262.708984375 846.424804688 c 0,28,29
 354 999 354 999 472.396484375 1121.13183594 c 1,30,-1
 415 1159 l 1,31,-1
 496.137695312 1300.24902344 l 1,14,15
EndSplineSet
EndChar

StartChar: afii57398
Encoding: 1638 1638 62
Width: 1283
VWidth: 2377
GlyphClass: 2
Flags: W
LayerCount: 2
Fore
SplineSet
110.560546875 1392.94042969 m 1,0,1
 506 1293 506 1293 952.349609375 1394.11621094 c 1,2,3
 978 190 978 190 1130 199 c 1,4,5
 1142.64108581 -9.69708312979 l 1,6,7
 962 -5 962 -5 905 288 c 0,8,9
 829 674 829 674 821.93359375 1210.43945312 c 1,10,-1
 786.154296875 1200.00585938 l 2,11,12
 683 1170 683 1170 531.815429688 1170.31445312 c 0,13,14
 387 1170 387 1170 288.13671875 1184.50390625 c 0,15,16
 189 1199 189 1199 149.736328125 1238.24707031 c 0,17,18
 110.560546875 1278.45098619 110.560546875 1278.45098619 110.560546875 1347.19824219 c 2,19,-1
 110.560546875 1392.94042969 l 1,0,1
EndSplineSet
EndChar

StartChar: afii57399
Encoding: 1639 1639 63
Width: 1175
VWidth: 2378
GlyphClass: 2
Flags: W
LayerCount: 2
Fore
SplineSet
946.747070312 1433.8125 m 5,0,-1
 1034.50878906 1266.93261719 l 5,1,2
 840.244140625 947.2734375 840.244140625 947.2734375 729.28125 489.35546875 c 4,3,4
 706.135742188 393.837890625 706.135742188 393.837890625 689.17578125 307.127929688 c 132,-1,5
 672.215820312 220.41796875 672.215820312 220.41796875 661.541015625 143.171875 c 132,-1,6
 650.866210938 65.92578125 650.866210938 65.92578125 646.454101562 -1.8330078125 c 5,7,-1
 556.861328125 -1.8330078125 l 5,8,9
 554.989257812 35.8291015625 554.989257812 35.8291015625 550.142578125 78.326171875 c 132,-1,10
 545.295898438 120.823242188 545.295898438 120.823242188 537.48828125 168.171875 c 132,-1,11
 529.681640625 215.520507812 529.681640625 215.520507812 518.854492188 268.052734375 c 132,-1,12
 508.028320312 320.5859375 508.028320312 320.5859375 494.259765625 378.077148438 c 132,-1,13
 480.491210938 435.567382812 480.491210938 435.567382812 463.658203125 498.592773438 c 4,14,15
 337.440429688 968.676757812 337.440429688 968.676757812 140.637695312 1267.10839844 c 5,16,-1
 230.247070312 1434.1796875 l 5,17,18
 380.766601562 1237.70507812 380.766601562 1237.70507812 500.950195312 811.234375 c 4,19,20
 525.345703125 724.202148438 525.345703125 724.202148438 543.150390625 652.163085938 c 132,-1,21
 560.956054688 580.124023438 560.956054688 580.124023438 572.05859375 523.640625 c 132,-1,22
 583.161132812 467.15625 583.161132812 467.15625 587.629882812 426.036132812 c 6,23,-1
 597.068359375 339.178710938 l 5,24,-1
 607.5 425.921875 l 6,25,26
 617.665039062 510.454101562 617.665039062 510.454101562 637.170898438 606.951171875 c 132,-1,27
 656.676757812 703.44921875 656.676757812 703.44921875 685.526367188 811.853515625 c 4,28,29
 795.61328125 1226.18261719 795.61328125 1226.18261719 946.747070312 1433.8125 c 5,0,-1
EndSplineSet
EndChar

StartChar: afii57400
Encoding: 1640 1640 64
Width: 1175
VWidth: 2378
GlyphClass: 2
Flags: W
LayerCount: 2
Fore
SplineSet
946.747070312 6.8837890625 m 5,0,1
 795.61328125 214.513671875 795.61328125 214.513671875 685.525390625 628.845703125 c 4,2,3
 627.844726562 845.588867188 627.844726562 845.588867188 607.5 1014.77441406 c 6,4,-1
 597.068359375 1101.51757812 l 5,5,-1
 587.629882812 1014.66015625 l 6,6,7
 583.162109375 973.544921875 583.162109375 973.544921875 572.05859375 917.057617188 c 132,-1,8
 560.955078125 860.569335938 560.955078125 860.569335938 543.149414062 788.530273438 c 132,-1,9
 525.344726562 716.491210938 525.344726562 716.491210938 500.954101562 629.475585938 c 4,10,11
 380.766601562 202.991210938 380.766601562 202.991210938 230.247070312 6.5166015625 c 5,12,-1
 140.637695312 173.587890625 l 5,13,14
 337.440429688 472.01953125 337.440429688 472.01953125 463.661132812 942.116210938 c 4,15,16
 547.649414062 1256.58300781 547.649414062 1256.58300781 556.861328125 1442.52929688 c 5,17,-1
 646.454101562 1442.52929688 l 5,18,19
 659.7578125 1238.24804688 659.7578125 1238.24804688 729.28125 951.340820312 c 4,20,21
 840.244140625 493.422851562 840.244140625 493.422851562 1034.50878906 173.763671875 c 5,22,-1
 946.747070312 6.8837890625 l 5,0,1
EndSplineSet
EndChar

StartChar: afii57401
Encoding: 1641 1641 65
Width: 1136
VWidth: 2378
GlyphClass: 2
Flags: W
LayerCount: 2
Fore
SplineSet
694.140625 666.307617188 m 1,0,1
 623 658 623 658 560.448242188 658.227539062 c 0,2,3
 345 658 345 658 253 731 c 0,4,5
 150 813 150 813 150.26171875 1011.90917969 c 0,6,7
 151 1230 151 1230 272 1364 c 0,8,9
 360 1460 360 1460 474 1460 c 0,10,11
 574 1460 574 1460 644 1398 c 0,12,13
 780 1277 780 1277 792 1000 c 0,14,15
 820 345 820 345 980 169 c 1,16,-1
 985.770507812 -22.0654296875 l 1,17,-1
 980.608398438 -22.0654296875 l 2,18,19
 814 -22 814 -22 761.143554688 241.391601562 c 0,20,21
 735 372 735 372 694.140625 666.307617188 c 1,0,1
674.883789062 865.498046875 m 1,22,-1
 667.56640625 957.05859375 l 2,23,24
 657.115234375 1087.83105469 657.115234375 1087.83105469 600.5 1171 c 0,25,26
 543 1256 543 1256 477.2109375 1258.37792969 c 0,27,28
 397 1261 397 1261 344 1204 c 0,29,30
 278 1134 278 1134 273 1032 c 128,-1,31
 268 930 268 930 328 884 c 0,32,33
 373.87109375 848.83203125 373.87109375 848.83203125 503 849 c 0,34,35
 603 849 603 849 674.883789062 865.498046875 c 1,22,-1
EndSplineSet
EndChar

StartChar: afii57381
Encoding: 1642 1642 66
Width: 1224
VWidth: 2277
GlyphClass: 2
Flags: W
LayerCount: 2
Fore
SplineSet
479.685546875 1342.53222656 m 2,0,-1
 479.685546875 1208.37207031 l 2,1,2
 479.685546875 1167.97265625 479.685546875 1167.97265625 446.565429688 1167.96191406 c 2,3,-1
 314.486328125 1167.97167969 l 2,4,5
 277.206054688 1167.97167969 277.206054688 1167.97167969 277.206054688 1209.41210938 c 2,6,-1
 277.206054688 1342.53222656 l 2,7,8
 277.206054688 1377.73242188 277.206054688 1377.73242188 318.645507812 1377.73242188 c 2,9,-1
 438.245117188 1377.73242188 l 2,10,11
 479.685546875 1377.73242188 479.685546875 1377.73242188 479.685546875 1342.53222656 c 2,0,-1
949.559570312 247.203125 m 2,12,-1
 949.559570312 113.04296875 l 2,13,14
 949.559570312 72.6416015625 949.559570312 72.6416015625 916.439453125 72.6416015625 c 2,15,-1
 784.359375 72.6416015625 l 2,16,17
 747.080078125 72.6416015625 747.080078125 72.6416015625 747.080078125 114.08203125 c 2,18,-1
 747.080078125 247.203125 l 2,19,20
 747.080078125 282.40234375 747.080078125 282.40234375 788.51953125 282.40234375 c 2,21,-1
 908.120117188 282.40234375 l 2,22,23
 949.559570312 282.40234375 949.559570312 282.40234375 949.559570312 247.203125 c 2,12,-1
905.426757812 1435.02441406 m 1,24,-1
 1024.91113281 1373.46484375 l 1,25,-1
 313.83984375 1.3701171875 l 1,26,-1
 195.032226562 66.66015625 l 1,27,-1
 905.426757812 1435.02441406 l 1,24,-1
EndSplineSet
EndChar

StartChar: uni066B
Encoding: 1643 1643 67
Width: 739
VWidth: 2277
GlyphClass: 2
Flags: W
LayerCount: 2
Fore
SplineSet
459.865234375 528.153320312 m 1,0,-1
 594.876953125 527.146484375 l 1,1,-1
 591.403320312 521.184570312 l 2,2,3
 357.505859375 119.732421875 357.505859375 119.732421875 137.452148438 -235.486328125 c 2,4,-1
 136.259765625 -237.41015625 l 1,5,-1
 -1.76171875 -235.515625 l 1,6,-1
 1.9765625 -229.500976562 l 2,7,8
 100.618164062 -70.833984375 100.618164062 -70.833984375 458.689453125 526.194335938 c 2,9,-1
 459.865234375 528.153320312 l 1,0,-1
EndSplineSet
EndChar

StartChar: uni066C
Encoding: 1644 1644 68
Width: 723
VWidth: 2277
GlyphClass: 2
Flags: W
LayerCount: 2
Fore
SplineSet
300.927734375 1649.13085938 m 1,0,-1
 512.528320312 1649.13085938 l 1,1,-1
 512.528320312 1494.39257812 l 1,2,-1
 334.55078125 1148.20117188 l 1,3,-1
 213.038085938 1148.20117188 l 1,4,-1
 300.927734375 1490.125 l 1,5,-1
 300.927734375 1649.13085938 l 1,0,-1
EndSplineSet
EndChar

StartChar: afii63167
Encoding: 1645 1645 69
Width: 1241
VWidth: 2277
GlyphClass: 2
Flags: W
LayerCount: 2
Fore
SplineSet
132.336914062 832.334960938 m 1,0,-1
 504.708007812 832.334960938 l 1,1,-1
 620.943359375 1186.22558594 l 1,2,-1
 737.176757812 832.334960938 l 1,3,-1
 1109.55371094 832.334960938 l 1,4,-1
 808.728515625 612.424804688 l 1,5,-1
 923.837890625 258.795898438 l 1,6,-1
 620.943359375 477.669921875 l 1,7,-1
 318.046875 258.795898438 l 1,8,-1
 433.15625 612.424804688 l 1,9,-1
 132.336914062 832.334960938 l 1,0,-1
EndSplineSet
EndChar

StartChar: uni066E
Encoding: 1646 1646 70
Width: 1582
VWidth: 2483
GlyphClass: 2
Flags: W
AnchorPoint: "Anchor-10" 722.268 1175.4 basechar 0
AnchorPoint: "Anchor-7" 456.039 -283.659 basechar 0
LayerCount: 2
Fore
SplineSet
741 -19 m 4,0,1
 403 -24 403 -24 278.805664062 41.0048828125 c 0,2,3
 89 140 89 140 91 389 c 0,4,5
 92 532 92 532 139.921875 639.721679688 c 1,6,-1
 204 607 l 1,7,8
 180 501 180 501 183 435 c 0,9,10
 194 185 194 185 548.961914062 168.509765625 c 0,11,12
 625 165 625 165 821.40625 168.4375 c 0,13,14
 1229 176 1229 176 1348.84375 271.521484375 c 0,15,16
 1420.06370095 328.050561057 1420.06370095 328.050561057 1380.91210938 410.60546875 c 2,17,-1
 1294.43945312 592.94140625 l 1,18,-1
 1435.60253906 722.48046875 l 1,19,20
 1483 586 1483 586 1491 446.092773438 c 0,21,22
 1504 229 1504 229 1397 146 c 0,23,24
 1285 60 1285 60 1129 27 c 0,25,26
 924 -17 924 -17 741 -19 c 4,0,1
EndSplineSet
Substitution2: "'init' Initial Forms in Arabic lookup 13 subtable" uni066E.init
Substitution2: "'medi' Medial Forms in Arabic lookup 11 subtable" uni066E.medi
Substitution2: "'fina' Terminal Forms in Arabic lookup 9 subtable" uni066E.fina
EndChar

StartChar: uni066F
Encoding: 1647 1647 71
Width: 1326
VWidth: 2501
GlyphClass: 2
Flags: W
AnchorPoint: "Anchor-10" 456.703 1004.12 basechar 0
AnchorPoint: "Anchor-7" 279.917 -615.969 basechar 0
LayerCount: 2
Fore
SplineSet
932.131835938 543.548828125 m 0,0,1
 820.823242188 541.43359375 820.823242188 541.43359375 795.955078125 393.37109375 c 0,2,3
 777.173828125 279.423828125 777.173828125 279.423828125 852.678710938 264.717773438 c 0,4,5
 970.823242188 242.43359375 970.823242188 242.43359375 1118.94628906 276.05078125 c 1,6,7
 1120.82324219 355.43359375 1120.82324219 355.43359375 1081.95996094 439.827148438 c 0,8,9
 1034.82324219 545.43359375 1034.82324219 545.43359375 932.131835938 543.548828125 c 0,0,1
1222 54 m 8,10,11
 1148 -434 1148 -434 630 -440 c 0,12,13
 324 -444 324 -444 198 -284 c 0,14,15
 55 -102 55 -102 125.260742188 200.936523438 c 0,16,17
 163 363 163 363 221.321289062 500.310546875 c 1,18,-1
 291.6484375 445.49609375 l 1,19,20
 175 110 175 110 258 -65 c 0,21,22
 352 -265 352 -265 650 -259 c 0,23,24
 1083 -250 1083 -250 1116 93 c 1,25,26
 1022 69 1022 69 906.192382812 81.673828125 c 0,27,28
 740 99 740 99 696.975585938 238.942382812 c 0,29,30
 679 298 679 298 688.784179688 396.18359375 c 0,31,32
 708 585 708 585 813.487304688 686.640625 c 0,33,34
 872 742 872 742 958.530273438 735.587890625 c 0,35,36
 1050 728 1050 728 1129.13574219 639.2265625 c 0,37,38
 1209 550 1209 550 1228.98730469 380.953125 c 0,39,40
 1247.54983657 223.331113926 1247.54983657 223.331113926 1222 54 c 8,10,11
EndSplineSet
Substitution2: "'init' Initial Forms in Arabic lookup 13 subtable" uni066F.init
Substitution2: "'medi' Medial Forms in Arabic lookup 11 subtable" uni066F.medi
Substitution2: "'fina' Terminal Forms in Arabic lookup 9 subtable" uni066F.fina
EndChar

StartChar: uni0670
Encoding: 1648 1648 72
Width: 0
VWidth: 2277
GlyphClass: 4
Flags: W
AnchorPoint: "Anchor-10" 578.754 1340.68 mark 0
AnchorPoint: "Anchor-9" 578.754 1340.68 mark 0
AnchorPoint: "Anchor-1" 569.754 1923.36 basemark 0
AnchorPoint: "Anchor-1" 578.754 1340.68 mark 0
LayerCount: 2
Fore
SplineSet
562.208984375 1383.00195312 m 1,0,-1
 520.08984375 1818.01660156 l 5,1,-1
 619.357421875 1876.47558594 l 5,2,-1
 619.357421875 1383.00195312 l 1,3,-1
 562.208984375 1383.00195312 l 1,0,-1
EndSplineSet
EndChar

StartChar: uni0674
Encoding: 1652 1652 73
Width: 664
VWidth: 2277
GlyphClass: 2
Flags: W
LayerCount: 2
Fore
SplineSet
147.361328125 1581.3984375 m 1,0,-1
 258.600585938 1607.06835938 l 1,1,2
 149.586914062 1659.484375 149.586914062 1659.484375 149.586914062 1764.22070312 c 0,3,4
 149.586914062 1841.29101562 149.586914062 1841.29101562 212.977539062 1897.20410156 c 0,5,6
 266.541992188 1943.93066406 266.541992188 1943.93066406 356.719726562 1944.48046875 c 0,7,8
 380.103515625 1944.48046875 380.103515625 1944.48046875 401.6484375 1941.03808594 c 128,-1,9
 423.192382812 1937.59570312 423.192382812 1937.59570312 442.924804688 1930.69042969 c 128,-1,10
 462.658203125 1923.78417969 462.658203125 1923.78417969 480.4921875 1913.42578125 c 2,11,-1
 482.483398438 1912.26953125 l 1,12,-1
 482.483398438 1828.08007812 l 1,13,-1
 476.79296875 1830.73339844 l 2,14,15
 406.534179688 1863.49414062 406.534179688 1863.49414062 350.720703125 1857.76171875 c 0,16,17
 293.330078125 1851.91210938 293.330078125 1851.91210938 263.752929688 1830.6953125 c 128,-1,18
 234.17578125 1809.47851562 234.17578125 1809.47851562 230.983398438 1772.95605469 c 0,19,20
 229.040039062 1750.45605469 229.040039062 1750.45605469 234.96875 1731.39453125 c 128,-1,21
 240.897460938 1712.33300781 240.897460938 1712.33300781 254.866210938 1696.47753906 c 128,-1,22
 268.8359375 1680.62207031 268.8359375 1680.62207031 291.086914062 1668.07519531 c 128,-1,23
 313.337890625 1655.52832031 313.337890625 1655.52832031 343.924804688 1646.26464844 c 0,24,25
 360.875 1640.76660156 360.875 1640.76660156 400.96875 1644.88183594 c 128,-1,26
 441.061523438 1648.99707031 441.061523438 1648.99707031 500.958007812 1662.72558594 c 2,27,-1
 505.8515625 1663.84765625 l 1,28,-1
 505.8515625 1574.31835938 l 1,29,-1
 147.361328125 1493.8359375 l 1,30,-1
 147.361328125 1581.3984375 l 1,0,-1
EndSplineSet
EndChar

StartChar: uni06A1
Encoding: 1697 1697 77
Width: 1655
VWidth: 2501
GlyphClass: 2
Flags: W
AnchorPoint: "Anchor-10" 524.771 1369.91 basechar 0
AnchorPoint: "Anchor-7" 648.625 -225.346 basechar 0
LayerCount: 2
Fore
SplineSet
1266.71484375 776.290039062 m 0,0,1
 1155.40625 774.174804688 1155.40625 774.174804688 1130.53808594 626.112304688 c 0,2,3
 1111.75683594 512.165039062 1111.75683594 512.165039062 1187.26171875 497.458984375 c 0,4,5
 1305.40625 475.174804688 1305.40625 475.174804688 1453.52929688 508.791992188 c 1,6,7
 1455.40625 588.174804688 1455.40625 588.174804688 1416.54296875 672.568359375 c 0,8,9
 1369.40625 778.174804688 1369.40625 778.174804688 1266.71484375 776.290039062 c 0,0,1
1557.09472656 304.826171875 m 24,10,11
 1525 116 1525 116 1350.54736328 50.9130859375 c 0,12,13
 1173 -15 1173 -15 777.559570312 -18.8544921875 c 0,14,15
 403 -22 403 -22 282.805664062 41.0048828125 c 0,16,17
 97.0909039582 138.427730086 97.0909039582 138.427730086 98 379 c 0,18,19
 100 540 100 540 143.921875 639.721679688 c 1,20,-1
 208 607 l 1,21,22
 184 501 184 501 187 435 c 0,23,24
 198 192 198 192 552.961914062 173.509765625 c 0,25,26
 740 164 740 164 927.559570312 168.541015625 c 0,27,28
 1433 181 1433 181 1450.58300781 325.741210938 c 1,29,30
 1356 302 1356 302 1240.77539062 314.415039062 c 0,31,32
 1074 332 1074 332 1031.55859375 471.68359375 c 0,33,34
 1013 531 1013 531 1023.3671875 628.924804688 c 0,35,36
 1044 819 1044 819 1148.0703125 919.381835938 c 0,37,38
 1206 975 1206 975 1293.11328125 968.329101562 c 0,39,40
 1384 961 1384 961 1463.71875 871.967773438 c 0,41,42
 1543 783 1543 783 1563.5703125 613.694335938 c 0,43,44
 1583 455 1583 455 1557.09472656 304.826171875 c 24,10,11
EndSplineSet
Substitution2: "'init' Initial Forms in Arabic lookup 13 subtable" uni06A1.init
Substitution2: "'medi' Medial Forms in Arabic lookup 11 subtable" uni06A1.medi
Substitution2: "'fina' Terminal Forms in Arabic lookup 9 subtable" uni06A1.fina
EndChar

StartChar: uni06A9
Encoding: 1705 1705 78
Width: 1728
VWidth: 2483
GlyphClass: 2
Flags: W
AnchorPoint: "Anchor-10" 494.259 1170.33 basechar 0
AnchorPoint: "Anchor-7" 397.289 -272.695 basechar 0
LayerCount: 2
Fore
SplineSet
1427 339 m 0,0,1
 1424 213 1424 213 1370 145 c 0,2,3
 1243 -15 1243 -15 777.559570312 -18.8544921875 c 0,4,5
 403 -22 403 -22 282.805664062 41.0048828125 c 0,6,7
 91.2491381883 142.456909413 91.2491381883 142.456909413 96 380 c 0,8,9
 99 530 99 530 143.921875 639.721679688 c 1,10,-1
 208 607 l 1,11,12
 184 501 184 501 187 435 c 0,13,14
 198 189 198 189 552.961914062 173.509765625 c 0,15,16
 675 168 675 168 863.559570312 168.541015625 c 0,17,18
 968 169 968 169 1060 180.861328125 c 0,19,20
 1294 212 1294 212 1319.109375 312.1484375 c 24,21,22
 1340 396 1340 396 1166.52441406 580.974609375 c 0,23,24
 1009 749 1009 749 910.967773438 789.07421875 c 1,25,26
 891.035367465 1003.6193176 891.035367465 1003.6193176 1021.72265625 1081.71777344 c 2,27,-1
 1687.8203125 1479.77636719 l 1,28,29
 1655 1326 1655 1326 1618.73632812 1254.45898438 c 1,30,-1
 1032.11035156 929.399414062 l 1,31,32
 1432 541 1432 541 1427 339 c 0,0,1
EndSplineSet
Substitution2: "'init' Initial Forms in Arabic lookup 13 subtable" uniFB90
Substitution2: "'medi' Medial Forms in Arabic lookup 11 subtable" uniFB91
Substitution2: "'fina' Terminal Forms in Arabic lookup 9 subtable" uniFB8F
EndChar

StartChar: afii57514
Encoding: 1722 1722 80
Width: 1296
VWidth: 2483
GlyphClass: 2
Flags: W
AnchorPoint: "Anchor-10" 622.054 1070.87 basechar 0
AnchorPoint: "Anchor-7" 313.976 -845.017 basechar 0
LayerCount: 2
Fore
SplineSet
1183 -94 m 0,0,1
 1093 -470 1093 -470 621 -476 c 0,2,3
 314.790363097 -480.002740352 314.790363097 -480.002740352 189 -318 c 4,4,5
 57 -148 57 -148 116.260742188 166.936523438 c 0,6,7
 141.818094427 300.319150465 141.818094427 300.319150465 212.321289062 466.310546875 c 1,8,-1
 282.6484375 411.49609375 l 1,9,10
 166 76 166 76 249 -99 c 0,11,12
 343 -299 343 -299 641 -293 c 0,13,14
 1075 -285 1075 -285 1103.25683594 31.58203125 c 1,15,16
 1089 146 1089 146 1062.5 227.5 c 128,-1,17
 1036 309 1036 309 988.047851562 417.657226562 c 1,18,-1
 1131.33300781 539.58203125 l 1,19,20
 1190 350 1190 350 1201 244 c 0,21,22
 1220 59 1220 59 1183 -94 c 0,0,1
EndSplineSet
Substitution2: "'init' Initial Forms in Arabic lookup 13 subtable" uni06BA.init
Substitution2: "'medi' Medial Forms in Arabic lookup 11 subtable" uni06BA.medi
Substitution2: "'fina' Terminal Forms in Arabic lookup 9 subtable" uniFB9F
EndChar

StartChar: uni06F4
Encoding: 1780 1780 87
Width: 1167
VWidth: 2174
GlyphClass: 2
Flags: W
LayerCount: 2
Fore
SplineSet
505.379882812 1048.17089844 m 1,0,1
 594 966 594 966 782.829101562 966.095703125 c 0,2,3
 890 966 890 966 995.598632812 1005.92871094 c 0,4,5
 1009 1011 1009 1011 1014.5 1006 c 128,-1,6
 1020 1001 1020 1001 1015.33496094 985.206054688 c 0,7,8
 974 809 974 809 740.716796875 802.99609375 c 0,9,10
 637 800 637 800 482.229492188 876.42578125 c 1,11,12
 566 532 566 532 566 273.989257812 c 128,-1,13
 566 15.9764779997 566 15.9764779997 491.75 -3.587890625 c 2,14,-1
 466.762695312 -10.171875 l 1,15,16
 456 448 456 448 348.272460938 833 c 0,17,18
 312 963 312 963 150.274414062 1331.59960938 c 1,19,-1
 275.614257812 1426.50292969 l 1,20,-1
 416 1102 l 1,21,22
 498 1469 498 1469 760.274414062 1465.08789062 c 0,23,24
 892 1463 892 1463 954.188476562 1324.84375 c 0,25,26
 965 1301 965 1301 965 1292 c 0,27,28
 965 1264 965 1264 932.5 1286 c 0,29,30
 873 1326 873 1326 800 1325 c 4,31,32
 579 1325 579 1325 505.379882812 1048.17089844 c 1,0,1
EndSplineSet
EndChar

StartChar: uni06F5
Encoding: 1781 1781 88
Width: 1255
VWidth: 2229
GlyphClass: 2
Flags: W
LayerCount: 2
Fore
SplineSet
635.083984375 369 m 4,0,1
 714 169 714 169 863.75 170.759765625 c 5,2,3
 1029 187 1029 187 984.845703125 440.747070312 c 4,4,5
 948 656 948 656 787.383789062 886.689453125 c 4,6,7
 679 1042 679 1042 604.10546875 1110.84179688 c 5,8,9
 299 734 299 734 257.314453125 398.073242188 c 4,10,11
 230 182 230 182 406.477539062 171.077148438 c 4,12,13
 503 165 503 165 607.400390625 370 c 4,14,15
 623 401 623 401 635.083984375 369 c 4,0,1
497 1218 m 5,16,-1
 597.8046875 1376.40429688 l 5,17,18
 630 1344 630 1344 661.465820312 1311.1640625 c 4,19,20
 1158 810 1158 810 1104.77441406 271.31640625 c 4,21,22
 1076 -20 1076 -20 835.314453125 -12.3134765625 c 4,23,24
 680 -7 680 -7 621 205 c 5,25,26
 560 -13 560 -13 411.104492188 -12.8486328125 c 4,27,28
 170 -13 170 -13 150.905273438 270.814453125 c 4,29,30
 127 623 127 623 532.831054688 1185.76269531 c 5,31,-1
 497 1218 l 5,16,-1
EndSplineSet
EndChar

StartChar: uni06F6
Encoding: 1782 1782 89
Width: 1101
VWidth: 2378
GlyphClass: 2
Flags: W
LayerCount: 2
Fore
SplineSet
452 693 m 1,0,1
 196 721 196 721 150 930 c 0,2,3
 120 1067 120 1067 236 1230 c 0,4,5
 326 1357 326 1357 446 1390 c 0,6,7
 641 1444 641 1444 728 1300.0390625 c 0,8,9
 773 1225 773 1225 720 1229.48730469 c 0,10,11
 601 1240 601 1240 540.846679688 1230.98242188 c 0,12,13
 275 1194 275 1194 265 1044 c 0,14,15
 250 813 250 813 598 836 c 0,16,17
 719 844 719 844 950.920898438 951.584960938 c 1,18,-1
 891 727 l 1,19,20
 522 625 522 625 249 168 c 1,21,-1
 162 -13 l 1,22,23
 81 39 81 39 214 337 c 0,24,25
 315 565 315 565 452 693 c 1,0,1
EndSplineSet
EndChar

StartChar: uniFB8F
Encoding: 64399 64399 104
Width: 1889
VWidth: 2483
GlyphClass: 2
Flags: W
AnchorPoint: "Anchor-10" 399.721 1209.5 basechar 0
AnchorPoint: "Anchor-7" 470.166 -284.4 basechar 0
LayerCount: 2
Fore
SplineSet
773.559570312 -18.8544921875 m 0,0,1
 399 -22 399 -22 278.805664062 41.0048828125 c 0,2,3
 89.0912361386 140.951934162 89.0912361386 140.951934162 91 391 c 0,4,5
 92 522 92 522 139.921875 639.721679688 c 1,6,-1
 204 607 l 1,7,8
 180 501 180 501 183 435 c 0,9,10
 194 189 194 189 548.961914062 173.509765625 c 0,11,12
 671 168 671 168 859.559570312 168.541015625 c 0,13,14
 964 169 964 169 1056 180.861328125 c 0,15,16
 1290 212 1290 212 1315.109375 312.1484375 c 24,17,18
 1336 396 1336 396 1162.52441406 580.974609375 c 0,19,20
 1005 749 1005 749 906.967773438 789.07421875 c 1,21,22
 887.03515625 1003.61914062 887.03515625 1003.61914062 1017.72265625 1081.71777344 c 2,23,-1
 1683.8203125 1479.77636719 l 1,24,25
 1651 1326 1651 1326 1614.73632812 1254.45898438 c 1,26,-1
 1018.11035156 939.399414062 l 1,27,28
 1092 882 1092 882 1202.5 763 c 0,29,30
 1327 629 1327 629 1417 496 c 0,31,32
 1639 168 1639 168 1874.015625 169 c 1,33,-1
 1898.00195312 169 l 1,34,-1
 1898.00195312 -19 l 1,35,-1
 1874.30175781 -19 l 1,36,37
 1631 -20 1631 -20 1418.59375 312.396484375 c 1,38,39
 1411 197 1411 197 1330 116 c 0,40,41
 1198 -15 1198 -15 773.559570312 -18.8544921875 c 0,0,1
EndSplineSet
EndChar

StartChar: uniFB9F
Encoding: 64415 64415 112
Width: 1408
VWidth: 2483
GlyphClass: 2
Flags: W
AnchorPoint: "Anchor-10" 229.917 804.731 basechar 0
AnchorPoint: "Anchor-7" 120.671 -830.33 basechar 0
LayerCount: 2
Fore
SplineSet
235.321289062 392.310546875 m 5,0,-1
 305.6484375 337.49609375 l 5,1,2
 189 2 189 2 272 -173 c 4,3,4
 366 -373 366 -373 664 -367 c 0,5,6
 1097 -358 1097 -358 1128.25683594 -18.41796875 c 1,7,8
 1094 170 1094 170 1008.04785156 342.657226562 c 1,9,-1
 1151.33300781 464.58203125 l 1,10,11
 1191 266 1191 266 1246.2265625 221.198242188 c 0,12,13
 1310.76126981 169.192382812 1310.76126981 169.192382812 1372.61328125 169.192382812 c 2,14,-1
 1423.42285156 169.192382812 l 1,15,-1
 1423.42285156 -19.12890625 l 1,16,-1
 1396.08007812 -19.12890625 l 2,17,18
 1299 -19 1299 -19 1241.11621094 64.751953125 c 1,19,20
 1246 12 1246 12 1236 -54 c 8,21,22
 1159 -541 1159 -541 652 -548 c 0,23,24
 347.427002633 -551.981346371 347.427002633 -551.981346371 220 -392 c 0,25,26
 83 -220 83 -220 139.260742188 92.9365234375 c 4,27,28
 163.124511482 222.331810611 163.124511482 222.331810611 235.321289062 392.310546875 c 5,0,-1
EndSplineSet
EndChar

StartChar: uniFBE8
Encoding: 64488 64488 115
Width: 559
VWidth: 2482
GlyphClass: 2
Flags: W
AnchorPoint: "Anchor-10" 281.647 898.64 basechar 0
AnchorPoint: "Anchor-7" 249.102 -254.182 basechar 0
LayerCount: 2
Fore
SplineSet
61.0400390625 -19 m 2,0,-1
 -8.0419921875 -19 l 1,1,-1
 -8.0419921875 169 l 1,2,-1
 82 169 l 2,3,4
 338 169 338 169 353.741210938 258.836914062 c 24,5,6
 366 327 366 327 257.534179688 522.900390625 c 1,7,-1
 417.586914062 668.12109375 l 1,8,9
 450 587 450 587 466.452282745 452.382073183 c 0,10,11
 483 318 483 318 468.5 244.5 c 0,12,13
 454 169 454 169 412.942382812 115.977539062 c 0,14,15
 310 -19 310 -19 61.0400390625 -19 c 2,0,-1
EndSplineSet
EndChar

StartChar: uniFBE9
Encoding: 64489 64489 116
Width: 722
VWidth: 2482
GlyphClass: 2
Flags: W
AnchorPoint: "Anchor-10" 378.914 844.818 basechar 0
AnchorPoint: "Anchor-7" 310.077 -224.207 basechar 0
LayerCount: 2
Fore
SplineSet
355.783203125 421.658203125 m 2,0,1
 360.245499203 484.996735993 360.245499203 484.996735993 403.923828125 484.416015625 c 128,-1,2
 447.513690106 484.004590065 447.513690106 484.004590065 451.33984375 427.594726562 c 2,3,-1
 456.352539062 353.69140625 l 2,4,5
 469 169 469 169 697.517578125 169 c 2,6,-1
 736.615234375 169 l 1,7,-1
 736.615234375 -9 l 1,8,-1
 736.615234375 -19 l 1,9,-1
 689.475585938 -19 l 2,10,11
 486 -19 486 -19 412.3359375 144.889648438 c 1,12,13
 292 -19 292 -19 37.828125 -19 c 2,14,-1
 -15.4033203125 -19 l 1,15,-1
 -15.4033203125 169 l 1,16,-1
 25.115234375 169 l 2,17,18
 337.983048024 169 337.983048024 169 350.869140625 351.907226562 c 2,19,-1
 355.783203125 421.658203125 l 2,0,1
EndSplineSet
EndChar

StartChar: uniFE73
Encoding: 65139 65139 124
Width: 595
VWidth: 2277
GlyphClass: 2
Flags: W
AnchorPoint: "Anchor-10" 219.222 1334.68 basechar 0
AnchorPoint: "Anchor-7" 219.222 -111.96 basechar 0
LayerCount: 2
Fore
SplineSet
309.999023438 368.76953125 m 2,0,1
 309.999023438 335.791992188 309.999023438 335.791992188 324.422851562 304.853515625 c 128,-1,2
 338.846679688 273.915039062 338.846679688 273.915039062 367.923828125 244.8359375 c 0,3,4
 420.283203125 192.475585938 420.283203125 192.475585938 535.256835938 192.475585938 c 2,5,-1
 607.1171875 192.475585938 l 1,6,-1
 607.1171875 10.919921875 l 1,7,-1
 474.052734375 10.919921875 l 2,8,9
 320.840820312 10.919921875 320.840820312 10.919921875 221.860351562 109.900390625 c 0,10,11
 175.162109375 156.598632812 175.162109375 156.598632812 151.802734375 218.052734375 c 128,-1,12
 128.444335938 279.5078125 128.444335938 279.5078125 128.444335938 355.416015625 c 2,13,-1
 128.444335938 391.666015625 l 1,14,-1
 309.999023438 391.666015625 l 1,15,-1
 309.999023438 368.76953125 l 2,0,1
EndSplineSet
EndChar

StartChar: uniFE8E
Encoding: 65166 65166 150
Width: 529
VWidth: 2457
GlyphClass: 2
Flags: W
AnchorPoint: "Anchor-10" 203.417 1590.04 basechar 0
AnchorPoint: "Anchor-7" 251.017 -305.026 basechar 0
LayerCount: 2
Fore
SplineSet
298.670898438 1494 m 5,0,-1
 299.282226562 464.482421875 l 2,1,2
 299 265 299 265 345.56640625 217.2734375 c 0,3,4
 392 169 392 169 505.502929688 169 c 2,5,-1
 544.752929688 169 l 1,6,-1
 544.752929688 -19 l 1,7,-1
 495.043945312 -19 l 2,8,9
 351 -19 351 -19 271.950195312 65.1591796875 c 0,10,11
 201 141 201 141 195.310546875 422.887695312 c 0,12,13
 189 761 189 761 167.381835938 1150.24414062 c 0,14,15
 164 1219 164 1219 140.594726562 1379.62011719 c 5,16,-1
 298.670898438 1494 l 5,0,-1
EndSplineSet
EndChar

StartChar: uniFEA2
Encoding: 65186 65186 170
Width: 1214
VWidth: 2479
GlyphClass: 2
Flags: W
AnchorPoint: "Anchor-7" 350.484 -754.604 basechar 0
AnchorPoint: "Anchor-10" 516.666 1098.24 basechar 0
LayerCount: 2
Fore
SplineSet
806 382.32421875 m 1,0,1
 790 379 790 379 776 376.5 c 0,2,3
 601 345 601 345 477 281 c 0,4,5
 300 189 300 189 239 80 c 128,-1,6
 178 -29 178 -29 178 -124.5 c 128,-1,7
 178 -220 178 -220 228 -288 c 0,8,9
 351 -456 351 -456 719.3828125 -460.251953125 c 0,10,11
 931 -463 931 -463 1114 -350 c 1,12,13
 963 -638 963 -638 628.153320312 -638.310546875 c 0,14,15
 353 -638 353 -638 220.265625 -501.655273438 c 0,16,17
 88 -365 88 -365 90.5 -185.5 c 128,-1,18
 93 -6 93 -6 145.5 111 c 0,19,20
 297 446 297 446 778 516 c 1,21,22
 648 546 648 546 555 589.5 c 128,-1,23
 462 633 462 633 422.5 642 c 128,-1,24
 383 651 383 651 337 643 c 0,25,26
 240 626 240 626 165.1953125 471.625 c 1,27,-1
 148.874023438 472.548828125 l 2,28,29
 131 474 131 474 131 512 c 128,-1,30
 131 550 131 550 147.129882812 621.016601562 c 0,31,32
 190 810 190 810 374.883789062 810.315429688 c 0,33,34
 488.072181132 810.038911512 488.072181132 810.038911512 672.5 708.5 c 0,35,36
 896 586 896 586 1114.08984375 566.360351562 c 1,37,-1
 1077 415 l 1,38,39
 976 406 976 406 901 396.534179688 c 1,40,41
 915.002715857 169 915.002715857 169 1174.18359375 169 c 2,42,-1
 1232.34667969 169 l 1,43,-1
 1232.34667969 -19 l 1,44,-1
 1181.57226562 -19 l 2,45,46
 814 -18.5419921875 814 -18.5419921875 806 382.32421875 c 1,0,1
EndSplineSet
EndChar

StartChar: uniFEA3
Encoding: 65187 65187 171
Width: 1227
VWidth: 2483
GlyphClass: 2
Flags: W
AnchorPoint: "Anchor-10" 369.508 1112.4 basechar 0
AnchorPoint: "Anchor-7" 490.225 -227.501 basechar 0
LayerCount: 2
Fore
SplineSet
1122.30273438 357.919921875 m 1,0,1
 815.140345202 266.636077027 815.140345202 266.636077027 568.801757812 138.841308594 c 0,2,3
 264.545132384 -19 264.545132384 -19 16.919921875 -19 c 2,4,-1
 -15.41796875 -19 l 1,5,-1
 -15.41796875 169 l 1,6,-1
 6.677734375 169 l 2,7,8
 314.319134755 168.749255364 314.319134755 168.749255364 465.33203125 241.583984375 c 0,9,10
 679.247008113 344.756890351 679.247008113 344.756890351 852.594726562 400.723632812 c 1,11,12
 748 420 748 420 552.999214787 511.113631083 c 0,13,14
 358 602 358 602 292.83203125 591.803710938 c 0,15,16
 186 576 186 576 99.1279296875 402.337890625 c 1,17,-1
 82.833984375 403.259765625 l 2,18,19
 47 405 47 405 81.091796875 551.748046875 c 0,20,21
 126 745 126 745 300.125 764.056640625 c 0,22,23
 425.894384407 777.991151169 425.894384407 777.991151169 687.93359375 626.697265625 c 0,24,25
 873 519 873 519 1148.15917969 492.86328125 c 1,26,-1
 1122.30273438 357.919921875 l 1,0,1
EndSplineSet
EndChar

StartChar: uniFEA4
Encoding: 65188 65188 172
Width: 1227
VWidth: 2483
GlyphClass: 2
Flags: W
AnchorPoint: "Anchor-10" 397.733 1103.09 basechar 0
AnchorPoint: "Anchor-7" 511.195 -257.174 basechar 0
LayerCount: 2
Fore
SplineSet
1117.91894531 -19 m 1,0,1
 873.027947882 -20.4742083538 873.027947882 -20.4742083538 837 259 c 1,2,3
 731.553146384 219.984664162 731.553146384 219.984664162 539.484375 123.150390625 c 0,4,5
 257.532026087 -19 257.532026087 -19 16.919921875 -19 c 2,6,-1
 -15.41796875 -19 l 1,7,-1
 -15.41796875 169 l 1,8,-1
 6.677734375 169 l 2,9,10
 314 168.747070312 314 168.747070312 464.814453125 241.583984375 c 0,11,12
 674.728034979 342.963243493 674.728034979 342.963243493 852.594726562 400.723632812 c 1,13,14
 748 420 748 420 552.999214786 511.113631083 c 0,15,16
 358 602 358 602 292.83203125 591.803710938 c 0,17,18
 186 576 186 576 99.1279296875 402.337890625 c 1,19,-1
 82.833984375 403.259765625 l 2,20,21
 47 405 47 405 81.091796875 551.748046875 c 0,22,23
 126 745 126 745 300.125 764.056640625 c 0,24,25
 426.441461688 778.051764124 426.441461688 778.051764124 687.93359375 626.697265625 c 0,26,27
 874 519 874 519 1148.15917969 492.86328125 c 1,28,-1
 1122.30273438 353.922851562 l 1,29,30
 1037 329 1037 329 935.59375 294.052734375 c 1,31,32
 934.998423987 169 934.998423987 169 1125.69042969 169 c 2,33,-1
 1241.37109375 169 l 1,34,-1
 1241.37109375 -19 l 1,35,-1
 1117.91894531 -19 l 1,0,1
EndSplineSet
EndChar

StartChar: uniFEAA
Encoding: 65194 65194 178
Width: 1030
VWidth: 2477
GlyphClass: 2
Flags: W
AnchorPoint: "Anchor-10" 511.818 1177.29 basechar 0
AnchorPoint: "Anchor-7" 353.272 -319.722 basechar 0
LayerCount: 2
Fore
SplineSet
769.533203125 161.85546875 m 1,0,1
 719 -19.5143703552 719 -19.5143703552 404.709008552 -19 c 128,-1,2
 90.3282578412 -18.5148768921 90.3282578412 -18.5148768921 90.8447265625 203.654296875 c 2,3,-1
 91.2177734375 364.478515625 l 1,4,5
 107 371 107 371 153.115234375 365.268554688 c 1,6,7
 162 183 162 183 354.481445312 169.104492188 c 0,8,9
 549 155 549 155 650.958007812 196.884765625 c 0,10,11
 716.359037648 223.144158443 716.359037648 223.144158443 681.592773438 315.53125 c 2,12,-1
 526 729 l 1,13,-1
 618.497070312 844.159179688 l 1,14,-1
 782 389 l 2,15,16
 861 169 861 169 1009.44921875 169 c 2,17,-1
 1043.53222656 169 l 1,18,-1
 1043.53222656 -19 l 1,19,-1
 1012.20605469 -19 l 2,20,21
 858 -19.41015625 858 -19.41015625 769.533203125 161.85546875 c 1,0,1
EndSplineSet
EndChar

StartChar: uniFEAE
Encoding: 65198 65198 182
Width: 859
VWidth: 2482
GlyphClass: 2
Flags: W
AnchorPoint: "Anchor-10" 503.584 843.621 basechar 0
AnchorPoint: "Anchor-7" 372.166 -723.165 basechar 0
LayerCount: 2
Fore
SplineSet
587.7265625 70.92578125 m 24,0,1
 603 160 603 160 471.762695312 355.107421875 c 1,2,3
 546 459 546 459 610.03515625 484.833007812 c 1,4,5
 666 352 666 352 685.751953125 219.490234375 c 0,6,7
 693 169 693 169 856.50390625 169 c 2,8,-1
 872.772460938 169 l 1,9,-1
 872.772460938 -19 l 1,10,-1
 823.521484375 -19 l 2,11,12
 711 -18.92578125 711 -18.92578125 674.94140625 15.1376953125 c 1,13,14
 614 -307 614 -307 417.822265625 -494 c 0,15,16
 381 -529 381 -529 336 -528.81640625 c 0,17,18
 135 -528 135 -528 27 -476 c 0,19,20
 0 -463 0 -463 36 -450 c 0,21,22
 50 -445 50 -445 63.0751953125 -439.795898438 c 0,23,24
 530 -263 530 -263 587.7265625 70.92578125 c 24,0,1
EndSplineSet
PairPos2: "'kern' Horizontal Kerning lookup 15-1" uni0644 dx=-100 dy=0 dh=-100 dv=0 dx=0 dy=0 dh=0 dv=0
PairPos2: "'kern' Horizontal Kerning lookup 15-1" uni0642 dx=-100 dy=0 dh=-100 dv=0 dx=0 dy=0 dh=0 dv=0
PairPos2: "'kern' Horizontal Kerning lookup 15-1" uni0632 dx=-80 dy=0 dh=-80 dv=0 dx=0 dy=0 dh=0 dv=0
PairPos2: "'kern' Horizontal Kerning lookup 15-1" uni0631 dx=-80 dy=0 dh=-80 dv=0 dx=0 dy=0 dh=0 dv=0
PairPos2: "'kern' Horizontal Kerning lookup 15-1" uniFB8A dx=-80 dy=0 dh=-80 dv=0 dx=0 dy=0 dh=0 dv=0
PairPos2: "'kern' Horizontal Kerning lookup 15-1" afii57508 dx=-80 dy=0 dh=-80 dv=0 dx=0 dy=0 dh=0 dv=0
PairPos2: "'kern' Horizontal Kerning lookup 15-1" uniFB7C dx=-100 dy=0 dh=-100 dv=0 dx=0 dy=0 dh=0 dv=0
PairPos2: "'kern' Horizontal Kerning lookup 15-1" uni06CC dx=-100 dy=0 dh=-100 dv=0 dx=0 dy=0 dh=0 dv=0
PairPos2: "'kern' Horizontal Kerning lookup 15-1" uniFEEB dx=-170 dy=0 dh=-170 dv=0 dx=0 dy=0 dh=0 dv=0
PairPos2: "'kern' Horizontal Kerning lookup 15-1" uniFEDF dx=-170 dy=0 dh=-170 dv=0 dx=0 dy=0 dh=0 dv=0
PairPos2: "'kern' Horizontal Kerning lookup 15-1" uniFB90 dx=-170 dy=0 dh=-170 dv=0 dx=0 dy=0 dh=0 dv=0
PairPos2: "'kern' Horizontal Kerning lookup 15-1" uni06A9 dx=-170 dy=0 dh=-170 dv=0 dx=0 dy=0 dh=0 dv=0
PairPos2: "'kern' Horizontal Kerning lookup 15-1" uni0649 dx=-100 dy=0 dh=-100 dv=0 dx=0 dy=0 dh=0 dv=0
PairPos2: "'kern' Horizontal Kerning lookup 15-1" uni0647 dx=-170 dy=0 dh=-170 dv=0 dx=0 dy=0 dh=0 dv=0
PairPos2: "'kern' Horizontal Kerning lookup 15-1" uniFEE7 dx=-170 dy=0 dh=-170 dv=0 dx=0 dy=0 dh=0 dv=0
PairPos2: "'kern' Horizontal Kerning lookup 15-1" uniFEE3 dx=-170 dy=0 dh=-170 dv=0 dx=0 dy=0 dh=0 dv=0
PairPos2: "'kern' Horizontal Kerning lookup 15-1" uni0645 dx=-170 dy=0 dh=-170 dv=0 dx=0 dy=0 dh=0 dv=0
PairPos2: "'kern' Horizontal Kerning lookup 15-1" uniFEDB dx=-170 dy=0 dh=-170 dv=0 dx=0 dy=0 dh=0 dv=0
PairPos2: "'kern' Horizontal Kerning lookup 15-1" uniFED7 dx=-170 dy=0 dh=-170 dv=0 dx=0 dy=0 dh=0 dv=0
PairPos2: "'kern' Horizontal Kerning lookup 15-1" uniFED3 dx=-170 dy=0 dh=-170 dv=0 dx=0 dy=0 dh=0 dv=0
PairPos2: "'kern' Horizontal Kerning lookup 15-1" uni0641 dx=-170 dy=0 dh=-170 dv=0 dx=0 dy=0 dh=0 dv=0
PairPos2: "'kern' Horizontal Kerning lookup 15-1" uniFECF dx=-170 dy=0 dh=-170 dv=0 dx=0 dy=0 dh=0 dv=0
PairPos2: "'kern' Horizontal Kerning lookup 15-1" uniFECB dx=-170 dy=0 dh=-170 dv=0 dx=0 dy=0 dh=0 dv=0
PairPos2: "'kern' Horizontal Kerning lookup 15-1" uniFEC7 dx=-170 dy=0 dh=-170 dv=0 dx=0 dy=0 dh=0 dv=0
PairPos2: "'kern' Horizontal Kerning lookup 15-1" uni0638 dx=-170 dy=0 dh=-170 dv=0 dx=0 dy=0 dh=0 dv=0
PairPos2: "'kern' Horizontal Kerning lookup 15-1" uniFEC3 dx=-170 dy=0 dh=-170 dv=0 dx=0 dy=0 dh=0 dv=0
PairPos2: "'kern' Horizontal Kerning lookup 15-1" uni0637 dx=-170 dy=0 dh=-170 dv=0 dx=0 dy=0 dh=0 dv=0
PairPos2: "'kern' Horizontal Kerning lookup 15-1" uniFEBF dx=-170 dy=0 dh=-170 dv=0 dx=0 dy=0 dh=0 dv=0
PairPos2: "'kern' Horizontal Kerning lookup 15-1" uni0636 dx=-170 dy=0 dh=-170 dv=0 dx=0 dy=0 dh=0 dv=0
PairPos2: "'kern' Horizontal Kerning lookup 15-1" uniFEBB dx=-170 dy=0 dh=-170 dv=0 dx=0 dy=0 dh=0 dv=0
PairPos2: "'kern' Horizontal Kerning lookup 15-1" uni0635 dx=-170 dy=0 dh=-170 dv=0 dx=0 dy=0 dh=0 dv=0
PairPos2: "'kern' Horizontal Kerning lookup 15-1" uniFEB7 dx=-170 dy=0 dh=-170 dv=0 dx=0 dy=0 dh=0 dv=0
PairPos2: "'kern' Horizontal Kerning lookup 15-1" uni0634 dx=-170 dy=0 dh=-170 dv=0 dx=0 dy=0 dh=0 dv=0
PairPos2: "'kern' Horizontal Kerning lookup 15-1" uniFEB3 dx=-170 dy=0 dh=-170 dv=0 dx=0 dy=0 dh=0 dv=0
PairPos2: "'kern' Horizontal Kerning lookup 15-1" uni0633 dx=-170 dy=0 dh=-170 dv=0 dx=0 dy=0 dh=0 dv=0
PairPos2: "'kern' Horizontal Kerning lookup 15-1" uni0630 dx=-170 dy=0 dh=-170 dv=0 dx=0 dy=0 dh=0 dv=0
PairPos2: "'kern' Horizontal Kerning lookup 15-1" uni062F dx=-170 dy=0 dh=-170 dv=0 dx=0 dy=0 dh=0 dv=0
PairPos2: "'kern' Horizontal Kerning lookup 15-1" uniFEA7 dx=-170 dy=0 dh=-170 dv=0 dx=0 dy=0 dh=0 dv=0
PairPos2: "'kern' Horizontal Kerning lookup 15-1" uniFEA3 dx=-170 dy=0 dh=-170 dv=0 dx=0 dy=0 dh=0 dv=0
PairPos2: "'kern' Horizontal Kerning lookup 15-1" uniFE9F dx=-170 dy=0 dh=-170 dv=0 dx=0 dy=0 dh=0 dv=0
PairPos2: "'kern' Horizontal Kerning lookup 15-1" uniFE9B dx=-170 dy=0 dh=-170 dv=0 dx=0 dy=0 dh=0 dv=0
PairPos2: "'kern' Horizontal Kerning lookup 15-1" uni062B dx=-170 dy=0 dh=-170 dv=0 dx=0 dy=0 dh=0 dv=0
PairPos2: "'kern' Horizontal Kerning lookup 15-1" uniFE97 dx=-170 dy=0 dh=-170 dv=0 dx=0 dy=0 dh=0 dv=0
PairPos2: "'kern' Horizontal Kerning lookup 15-1" uni062A dx=-170 dy=0 dh=-170 dv=0 dx=0 dy=0 dh=0 dv=0
PairPos2: "'kern' Horizontal Kerning lookup 15-1" uni0629 dx=-170 dy=0 dh=-170 dv=0 dx=0 dy=0 dh=0 dv=0
PairPos2: "'kern' Horizontal Kerning lookup 15-1" uni0628 dx=-170 dy=0 dh=-170 dv=0 dx=0 dy=0 dh=0 dv=0
PairPos2: "'kern' Horizontal Kerning lookup 15-1" uni0627 dx=-190 dy=0 dh=-190 dv=0 dx=0 dy=0 dh=0 dv=0
PairPos2: "'kern' Horizontal Kerning lookup 15-1" uni0622 dx=-190 dy=0 dh=-190 dv=0 dx=0 dy=0 dh=0 dv=0
PairPos2: "'kern' Horizontal Kerning lookup 15-1" uniFB94 dx=-170 dy=0 dh=-170 dv=0 dx=0 dy=0 dh=0 dv=0
PairPos2: "'kern' Horizontal Kerning lookup 15-1" afii57509 dx=-170 dy=0 dh=-170 dv=0 dx=0 dy=0 dh=0 dv=0
PairPos2: "'kern' Horizontal Kerning lookup 15-1" uniFB56 dx=-170 dy=0 dh=-170 dv=0 dx=0 dy=0 dh=0 dv=0
PairPos2: "'kern' Horizontal Kerning lookup 15-1" afii57506 dx=-170 dy=0 dh=-170 dv=0 dx=0 dy=0 dh=0 dv=0
EndChar

StartChar: uniFEB2
Encoding: 65202 65202 186
Width: 2295
VWidth: 2483
GlyphClass: 2
Flags: W
AnchorPoint: "Anchor-10" 646.903 873.162 basechar 0
AnchorPoint: "Anchor-7" 383.911 -743.191 basechar 0
LayerCount: 2
Fore
SplineSet
1246.2265625 221.198242188 m 0,0,1
 1294 157 1294 157 1406.10253906 160.803710938 c 0,2,3
 1536.98200054 164.999422976 1536.98200054 164.999422976 1542.57617188 346.283203125 c 2,4,-1
 1543.37988281 372.328125 l 1,5,6
 1549 435 1549 435 1587.29589844 435.09375 c 0,7,8
 1634 435 1634 435 1638.91210938 378.537109375 c 1,9,-1
 1643.21875 353.87109375 l 2,10,11
 1674 175 1674 175 1808.98144531 170.247070312 c 0,12,13
 1931.5750656 166.014670358 1931.5750656 166.014670358 1942.64648438 356.791015625 c 2,14,-1
 1946.30078125 419.759765625 l 1,15,16
 1952 482 1952 482 1990.21484375 482.58203125 c 0,17,18
 2037.19578617 483.001749113 2037.19578617 483.001749113 2041.85644531 425.814453125 c 2,19,-1
 2048.22070312 347.723632812 l 2,20,21
 2062.97423901 169.311523438 2062.97423901 169.311523438 2265.30664062 169.311523438 c 2,22,-1
 2301.953125 169.311523438 l 1,23,-1
 2301.953125 -19.126953125 l 1,24,-1
 2272.41210938 -19.126953125 l 2,25,26
 2081 -19 2081 -19 1995.5546875 159.983398438 c 1,27,28
 1924 -11 1924 -11 1812.10644531 -19.3828125 c 0,29,30
 1667 -30 1667 -30 1596.06542969 162.842773438 c 1,31,32
 1529 -13 1529 -13 1401.93457031 -19.7578125 c 0,33,34
 1310 -25 1310 -25 1246.95507812 65.13671875 c 1,35,36
 1244 -3 1244 -3 1236 -54 c 8,37,38
 1159 -541 1159 -541 652 -548 c 0,39,40
 351.370900693 -551.929792148 351.370900693 -551.929792148 220 -392 c 0,41,42
 82 -224 82 -224 139.260742188 92.9365234375 c 0,43,44
 164.609933231 225.829059658 164.609933231 225.829059658 235.321289062 392.310546875 c 1,45,-1
 305.6484375 337.49609375 l 1,46,47
 189 2 189 2 272 -173 c 0,48,49
 366 -373 366 -373 664 -367 c 0,50,51
 1097 -358 1097 -358 1128.25683594 -18.41796875 c 1,52,53
 1094 170 1094 170 1008.04785156 342.657226562 c 1,54,-1
 1151.33300781 464.58203125 l 1,55,56
 1181 308 1181 308 1246.2265625 221.198242188 c 0,0,1
EndSplineSet
EndChar

StartChar: uniFEB3
Encoding: 65203 65203 187
Width: 1287
VWidth: 2482
GlyphClass: 2
Flags: W
AnchorPoint: "Anchor-10" 696.122 970.964 basechar 0
AnchorPoint: "Anchor-7" 590.45 -248.919 basechar 0
LayerCount: 2
Fore
SplineSet
513.408750367 -20.3401876961 m 0,0,1
 354 -20 354 -20 294.8671875 156.244140625 c 1,2,3
 216 -19 216 -19 40.359375 -19 c 2,4,-1
 -15.3359375 -19 l 1,5,-1
 -15.3359375 169 l 1,6,-1
 29.0185546875 169 l 2,7,8
 231.954866357 169 231.954866357 169 241.127929688 311.954101562 c 2,9,-1
 244.239257812 360.44140625 l 2,10,11
 248 423 248 423 289.978897375 423.21866812 c 0,12,13
 331.97486046 423.00013082 331.97486046 423.00013082 339.801757812 366.3828125 c 2,14,-1
 344.231445312 334.33984375 l 2,15,16
 368 161 368 161 513.450529035 160.535177984 c 0,17,18
 639.912575496 160.999678886 639.912575496 160.999678886 663.1015625 382.975585938 c 2,19,-1
 666.982421875 420.125 l 2,20,21
 674 483 674 483 711.361846354 482.723015274 c 0,22,23
 759.735234924 482.998492215 759.735234924 482.998492215 762.528320312 425.900390625 c 2,24,-1
 763.74609375 401.005859375 l 2,25,26
 770 276 770 276 811.6752124 222.830358155 c 0,27,28
 853 170 853 170 940.005452758 169.66071631 c 0,29,30
 1051 170 1051 170 1073.42480469 248.529296875 c 16,31,32
 1075 254 1075 254 1074.64426406 260.561402434 c 0,33,34
 1075 323 1075 323 968.8984375 513.543945312 c 1,35,-1
 1129.1796875 658.971679688 l 1,36,37
 1195 465 1195 465 1195.46968562 327.786155708 c 0,38,39
 1195 190 1195 190 1132.65234375 105.616210938 c 0,40,41
 1040 -20 1040 -20 907.5 -20 c 128,-1,42
 775 -20 775 -20 709.166992188 162.63671875 c 1,43,44
 635 -20 635 -20 513.408750367 -20.3401876961 c 0,0,1
EndSplineSet
EndChar

StartChar: uniFEB4
Encoding: 65204 65204 188
Width: 1372
VWidth: 2482
GlyphClass: 2
Flags: W
AnchorPoint: "Anchor-7" 590.45 -248.919 basechar 0
AnchorPoint: "Anchor-10" 681.637 851.128 basechar 0
LayerCount: 2
Fore
SplineSet
1141.25292969 427.634765625 m 1,0,-1
 1147.56054688 367.060546875 l 2,1,2
 1161.91561634 225.83019688 1161.91561634 225.83019688 1248.14160156 187.799804688 c 0,3,4
 1290.76623906 169 1290.76623906 169 1354.51464844 169 c 2,5,-1
 1380.64550781 169 l 1,6,-1
 1380.64550781 -19 l 1,7,-1
 1361.63769531 -19 l 2,8,9
 1151 -18.662109375 1151 -18.662109375 1090.65332031 156.788085938 c 1,10,11
 1034 -17 1034 -17 894.971679688 -20.59375 c 0,12,13
 764 -24 764 -24 701.103515625 144.639648438 c 1,14,15
 649 -15 649 -15 500.491210938 -18.970703125 c 0,16,17
 362 -22 362 -22 289.7109375 126.004882812 c 1,18,19
 210 -19 210 -19 64.3828125 -19 c 2,20,-1
 -8.2958984375 -19 l 1,21,-1
 -8.2958984375 169 l 1,22,-1
 53.04296875 169.4609375 l 2,23,24
 220.764128557 169.00064732 220.764128557 169.00064732 238.998046875 300.805664062 c 2,25,-1
 242.095703125 323.197265625 l 2,26,27
 251 386 251 386 286.000976562 385.767578125 c 0,28,29
 318 386 318 386 329.94140625 360.313476562 c 0,30,31
 331 358 331 358 342.009765625 309.719726562 c 0,32,33
 375 162 375 162 506.407714844 160.500976562 c 128,-1,34
 637.815263775 159.00210715 637.815263775 159.00210715 648.209960938 346.381835938 c 2,35,-1
 649.353515625 366.99609375 l 2,36,37
 653 429 653 429 693.2734375 429.681640625 c 0,38,39
 739.879112223 429.999176362 739.879112223 429.999176362 744.903320312 372.934570312 c 2,40,-1
 747.206054688 346.780273438 l 2,41,42
 764 161 764 161 908.193359375 170.034179688 c 0,43,44
 1017.00634135 177.000405974 1017.00634135 177.000405974 1039.70703125 370.545898438 c 2,45,-1
 1045.72265625 421.834960938 l 2,46,47
 1053 485 1053 485 1089.68261719 484.348632812 c 0,48,49
 1137 484 1137 484 1141.25292969 427.634765625 c 1,0,-1
EndSplineSet
EndChar

StartChar: uniFEBA
Encoding: 65210 65210 194
Width: 2494
VWidth: 2483
GlyphClass: 2
Flags: W
AnchorPoint: "Anchor-7" 287.069 -679.013 basechar 0
AnchorPoint: "Anchor-10" 605.027 797.729 basechar 0
LayerCount: 2
Fore
SplineSet
1463.27539062 170.306640625 m 1,0,-1
 1666.42480469 170.306640625 l 2,1,2
 2002.01288947 170.00360041 2002.01288947 170.00360041 2091.5 195 c 128,-1,3
 2181 220 2181 220 2136 353.5 c 128,-1,4
 2091 487 2091 487 1946.26171875 503.06640625 c 0,5,6
 1825 517 1825 517 1646.39355469 367.737304688 c 0,7,8
 1548 286 1548 286 1463.27539062 170.306640625 c 1,0,-1
2184 122 m 1,9,10
 2136 65 2136 65 2064.49804688 32.6181640625 c 0,11,12
 1946.2755816 -19.8776300679 1946.2755816 -19.8776300679 1733.3125 -19.884765625 c 2,13,-1
 1471 -19.8935546875 l 2,14,15
 1319 -20 1319 -20 1245.04785156 66.2841796875 c 1,16,17
 1244 -3 1244 -3 1236 -54 c 8,18,19
 1159 -541 1159 -541 652 -548 c 0,20,21
 353 -552 353 -552 220 -392 c 0,22,23
 79 -223 79 -223 139.260742188 92.9365234375 c 0,24,25
 165 228 165 228 235.321289062 392.310546875 c 1,26,-1
 305.6484375 337.49609375 l 1,27,28
 189 2 189 2 272 -173 c 0,29,30
 366 -373 366 -373 664 -367 c 0,31,32
 1097 -358 1097 -358 1128.25683594 -18.41796875 c 1,33,34
 1094 170 1094 170 1008.04785156 342.657226562 c 1,35,-1
 1151.33300781 464.58203125 l 1,36,37
 1191 266 1191 266 1246.2265625 221.198242188 c 24,38,39
 1304 174 1304 174 1376 180 c 1,40,41
 1718 679 1718 679 1952 673.5 c 0,42,43
 2129 670 2129 670 2206.69433594 518.161132812 c 0,44,45
 2254.27968036 424.419014408 2254.27968036 424.419014408 2248.79882812 273.4453125 c 24,46,47
 2245.01181816 169.129617142 2245.01181816 169.129617142 2491.37695312 169 c 2,48,-1
 2504.37011719 169 l 1,49,-1
 2504.37011719 -19 l 1,50,-1
 2466.31640625 -19 l 2,51,52
 2257 -19 2257 -19 2184 122 c 1,9,10
EndSplineSet
EndChar

StartChar: uniFEBB
Encoding: 65211 65211 195
Width: 1574
VWidth: 2483
GlyphClass: 2
Flags: W
AnchorPoint: "Anchor-10" 624.706 1147.5 basechar 0
AnchorPoint: "Anchor-7" 717.45 -260.658 basechar 0
LayerCount: 2
Fore
SplineSet
704.275390625 170.306640625 m 1,0,-1
 907.424804688 170.306640625 l 2,1,2
 1240.01889769 170.003627028 1240.01889769 170.003627028 1333.38085938 195.653320312 c 0,3,4
 1425 221 1425 221 1376.76171875 359.56640625 c 0,5,6
 1332 487 1332 487 1187.26171875 503.06640625 c 0,7,8
 1066 517 1066 517 887.393554688 367.737304688 c 0,9,10
 789 286 789 286 704.275390625 170.306640625 c 1,0,-1
1193 673.5 m 0,11,12
 1370 670 1370 670 1447.69433594 518.161132812 c 0,13,14
 1499 417 1499 417 1483.79882812 273.4453125 c 24,15,16
 1465 104 1465 104 1305.49804688 32.6181640625 c 0,17,18
 1187.2755816 -19.8776300679 1187.2755816 -19.8776300679 974.3125 -19.884765625 c 2,19,-1
 712 -19.8935546875 l 2,20,21
 460 -20 460 -20 348.3984375 159.411132812 c 1,22,23
 215.085680779 -19 215.085680779 -19 18.634765625 -19 c 2,24,-1
 -15.2529296875 -19 l 1,25,-1
 -15.2529296875 169 l 1,26,-1
 6.203125 169 l 2,27,28
 121.635168299 169.458714053 121.635168299 169.458714053 178.04296875 200.33203125 c 0,29,30
 262.144491348 246.362774572 262.144491348 246.362774572 280.291992188 417.521484375 c 0,31,32
 289 495 289 495 332.923828125 495.002929688 c 0,33,34
 380 496 380 496 384.5703125 438.3125 c 1,35,-1
 393.123046875 382.114257812 l 2,36,37
 422 194 422 194 617 180 c 1,38,39
 959 679 959 679 1193 673.5 c 0,11,12
EndSplineSet
EndChar

StartChar: uniFEBC
Encoding: 65212 65212 196
Width: 1733
VWidth: 2483
GlyphClass: 2
Flags: W
AnchorPoint: "Anchor-10" 694.95 1159.66 basechar 0
AnchorPoint: "Anchor-7" 713.497 -259.488 basechar 0
LayerCount: 2
Fore
SplineSet
704.275390625 170.306640625 m 1,0,-1
 907.424804688 170.306640625 l 2,1,2
 1240.01889769 170.003627028 1240.01889769 170.003627028 1333.38085938 195.653320312 c 0,3,4
 1425 221 1425 221 1376.76171875 359.56640625 c 0,5,6
 1332 487 1332 487 1187.26171875 503.06640625 c 0,7,8
 1066 517 1066 517 887.393554688 367.737304688 c 0,9,10
 789 286 789 286 704.275390625 170.306640625 c 1,0,-1
1491.79882812 273.4453125 m 24,11,12
 1488 169 1488 169 1730.73632812 169 c 2,13,-1
 1741.72949219 169 l 1,14,-1
 1741.72949219 -19 l 1,15,-1
 1703.67675781 -19 l 2,16,17
 1501 -18.0791015625 1501 -18.0791015625 1426 122 c 1,18,19
 1381 66 1381 66 1305.49804688 32.6181640625 c 0,20,21
 1187.2755816 -19.8776300679 1187.2755816 -19.8776300679 974.3125 -19.884765625 c 2,22,-1
 712 -19.8935546875 l 2,23,24
 460 -20 460 -20 348.3984375 159.411132812 c 1,25,26
 220.194340171 -13.7375299116 220.194340171 -13.7375299116 18.634765625 -19 c 1,27,-1
 -15.2529296875 -19 l 1,28,-1
 -15.2529296875 169 l 1,29,-1
 6.203125 169 l 2,30,31
 112 169 112 169 178.04296875 200.33203125 c 0,32,33
 260 239 260 239 280.291992188 417.521484375 c 0,34,35
 289 495 289 495 332.923828125 495.002929688 c 0,36,37
 380 496 380 496 384.5703125 438.3125 c 1,38,-1
 393.123046875 382.114257812 l 2,39,40
 422 194 422 194 617 180 c 1,41,42
 959 679 959 679 1193 673.5 c 0,43,44
 1370 670 1370 670 1447.69433594 518.161132812 c 0,45,46
 1498 420 1498 420 1491.79882812 273.4453125 c 24,11,12
EndSplineSet
EndChar

StartChar: uniFEC2
Encoding: 65218 65218 202
Width: 1388
VWidth: 2483
GlyphClass: 2
Flags: W
AnchorPoint: "Anchor-7" 586.76 -259.47 basechar 0
AnchorPoint: "Anchor-10" 337.967 1580.11 basechar 0
LayerCount: 2
Fore
SplineSet
363.275390625 170.306640625 m 1,0,-1
 566.424804688 170.306640625 l 2,1,2
 899.018897689 170.003627028 899.018897689 170.003627028 992.380859375 195.653320312 c 0,3,4
 1084 221 1084 221 1035.76171875 359.56640625 c 0,5,6
 991 487 991 487 846.26171875 503.06640625 c 0,7,8
 725 517 725 517 546.393554688 367.737304688 c 0,9,10
 448 286 448 286 363.275390625 170.306640625 c 1,0,-1
1081.43457031 119 m 1,11,12
 1039 67 1039 67 964.498046875 33.6181640625 c 0,13,14
 846.275581602 -18.8776300679 846.275581602 -18.8776300679 633.3125 -18.884765625 c 2,15,-1
 371 -18.8935546875 l 2,16,17
 91.337890625 -18.9998715469 91.337890625 -18.9998715469 91.337890625 146 c 2,18,-1
 91.337890625 169.538085938 l 1,19,-1
 226.740234375 169.5390625 l 1,20,21
 273 232 273 232 319 294 c 1,22,23
 311 1178 311 1178 258.255859375 1380.81738281 c 1,24,-1
 414.360351562 1495.07519531 l 1,25,-1
 413.658203125 383.359375 l 1,26,27
 675 677 675 677 852 673.5 c 128,-1,28
 1029 670 1029 670 1106.69433594 518.161132812 c 0,29,30
 1160 413 1160 413 1146.79882812 273.4453125 c 16,31,32
 1137 169 1137 169 1365.67675781 169 c 2,33,-1
 1398.71386719 169 l 1,34,-1
 1398.71386719 -19 l 1,35,-1
 1358.88085938 -19 l 2,36,37
 1146 -19 1146 -19 1081.43457031 119 c 1,11,12
EndSplineSet
EndChar

StartChar: uniFEC3
Encoding: 65219 65219 203
Width: 1110
VWidth: 2483
GlyphClass: 2
Flags: W
AnchorPoint: "Anchor-7" 423.867 -258.386 basechar 0
AnchorPoint: "Anchor-10" 180.809 1594.98 basechar 0
LayerCount: 2
Fore
SplineSet
239.275390625 170.306640625 m 1,0,-1
 442.424804688 170.306640625 l 2,1,2
 775.018897689 170.003627028 775.018897689 170.003627028 868.380859375 195.653320312 c 0,3,4
 960 221 960 221 911.76171875 359.56640625 c 0,5,6
 867 487 867 487 722.26171875 503.06640625 c 0,7,8
 601 517 601 517 422.393554688 367.737304688 c 0,9,10
 324 286 324 286 239.275390625 170.306640625 c 1,0,-1
840.498046875 32.6181640625 m 0,11,12
 722.275581602 -19.8776300679 722.275581602 -19.8776300679 509.3125 -19.884765625 c 2,13,-1
 247 -19.8935546875 l 2,14,15
 118 -19 118 -19 -10 -19 c 1,16,17
 -10 70 -10 70 -9.662109375 169.538085938 c 1,18,-1
 102.740234375 169.5390625 l 1,19,20
 148 230 148 230 193 291 c 1,21,22
 184 1197 184 1197 134.255859375 1380.81738281 c 1,23,-1
 290.360351562 1495.07519531 l 1,24,-1
 289.658203125 383.359375 l 1,25,26
 551 677 551 677 728 673.5 c 128,-1,27
 905 670 905 670 982.694335938 518.161132812 c 0,28,29
 1034 417 1034 417 1018.79882812 273.4453125 c 24,30,31
 1000 104 1000 104 840.498046875 32.6181640625 c 0,11,12
EndSplineSet
EndChar

StartChar: uniFEC4
Encoding: 65220 65220 204
Width: 1270
VWidth: 2483
GlyphClass: 2
Flags: W
AnchorPoint: "Anchor-10" 201.497 1583.01 basechar 0
AnchorPoint: "Anchor-7" 512.827 -255.105 basechar 0
LayerCount: 2
Fore
SplineSet
236.275390625 170.306640625 m 1,0,-1
 439.424804688 170.306640625 l 2,1,2
 747.991210938 169.99609375 747.991210938 169.99609375 841.380859375 195.653320312 c 0,3,4
 930 220 930 220 884.76171875 354.56640625 c 0,5,6
 840 489 840 489 718.76171875 503.06640625 c 0,7,8
 598 517 598 517 419.393554688 367.737304688 c 0,9,10
 321 286 321 286 236.275390625 170.306640625 c 1,0,-1
1245.9609375 -19 m 2,11,12
 1032 -19 1032 -19 966.990234375 118.981445312 c 1,13,14
 940 87 940 87 837.498046875 33.6181640625 c 0,15,16
 736.320230216 -18.8339876819 736.320230216 -18.8339876819 506.3125 -18.884765625 c 2,17,-1
 -15.662109375 -19 l 1,18,-1
 -15.662109375 169 l 1,19,-1
 99.740234375 169.5390625 l 1,20,21
 146 238 146 238 192 307 c 1,22,23
 188 1101 188 1101 142.525390625 1402.12988281 c 1,24,-1
 287.360351562 1495.07519531 l 1,25,-1
 286.658203125 413.359375 l 1,26,27
 524 683 524 683 725 676 c 0,28,29
 903 670 903 670 979.694335938 518.161132812 c 0,30,31
 1020 438 1020 438 1023.79882812 273.4453125 c 0,32,33
 1026 169 1026 169 1252.75683594 169 c 2,34,-1
 1286.79296875 169 l 1,35,-1
 1286.79296875 -19 l 1,36,-1
 1245.9609375 -19 l 2,11,12
EndSplineSet
EndChar

StartChar: uniFECA
Encoding: 65226 65226 210
Width: 1198
VWidth: 2481
GlyphClass: 2
Flags: W
AnchorPoint: "Anchor-10" 540.155 1200.4 basechar 0
AnchorPoint: "Anchor-7" 356.855 -808.923 basechar 0
LayerCount: 2
Fore
SplineSet
795.432617188 611.836914062 m 0,0,1
 794.544921875 632.262695312 794.544921875 632.262695312 720.662109375 631.81640625 c 128,-1,2
 646.780273438 631.370117188 646.780273438 631.370117188 641.591796875 615.28125 c 1,3,4
 654.368164062 607.841796875 654.368164062 607.841796875 736.96484375 568.751953125 c 1,5,6
 775.157226562 586.140625 775.157226562 586.140625 785.247070312 597.54296875 c 128,-1,7
 795.336914062 608.9453125 795.336914062 608.9453125 795.432617188 611.836914062 c 0,0,1
796 423.092773438 m 1,8,9
 829.005729896 169 829.005729896 169 1166.30371094 169 c 2,10,-1
 1209.62695312 169 l 1,11,-1
 1209.62695312 -19 l 1,12,-1
 1173.68847656 -19 l 2,13,14
 746 -17.5419921875 746 -17.5419921875 708 365 c 1,15,16
 590 339 590 339 480 281 c 0,17,18
 305 189 305 189 231 59 c 0,19,20
 181 -29 181 -29 181 -131 c 0,21,22
 181 -220 181 -220 231 -288 c 0,23,24
 346 -445 346 -445 676 -459 c 0,25,26
 699 -460 699 -460 722.3828125 -460.251953125 c 0,27,28
 934 -463 934 -463 1117 -350 c 1,29,30
 966 -638 966 -638 631.153320312 -638.310546875 c 0,31,32
 356 -638 356 -638 223.265625 -501.655273438 c 0,33,34
 91 -365 91 -365 91 -178 c 0,35,36
 91 7 91 7 162 143 c 0,37,38
 306 421 306 421 643 488 c 1,39,40
 594 563 594 563 353.456054688 585.411132812 c 1,41,42
 350 681 350 681 353.456054688 719.411132812 c 1,43,44
 461 793 461 793 735.947265625 792.577148438 c 0,45,46
 1002 792 1002 792 1002.38085938 662.834960938 c 0,47,48
 1002 544 1002 544 796 423.092773438 c 1,8,9
EndSplineSet
EndChar

StartChar: uniFECB
Encoding: 65227 65227 211
Width: 883
VWidth: 2479
GlyphClass: 2
Flags: W
AnchorPoint: "Anchor-10" 385.625 1089.71 basechar 0
AnchorPoint: "Anchor-7" 393.263 -287.478 basechar 0
LayerCount: 2
Fore
SplineSet
718 490 m 1,0,1
 610 563 610 563 518 582.392578125 c 0,2,3
 426 602 426 602 335 572.40625 c 0,4,5
 206 530 206 530 180 416 c 0,6,7
 163 342 163 342 332.887695312 228.708984375 c 0,8,9
 367 206 367 206 413.955078125 207.463867188 c 0,10,11
 516.87795528 210.961865518 516.87795528 210.961865518 580.592773438 223.708007812 c 2,12,-1
 792 266 l 1,13,-1
 708 82 l 1,14,15
 419 -19 419 -19 56.8154296875 -19 c 2,16,-1
 -15.78515625 -19 l 1,17,-1
 -15.78515625 169 l 1,18,-1
 190.998046875 169 l 1,19,20
 93 266.174804688 93 266.174804688 94 385.907226562 c 0,21,22
 95 521.303017971 95 521.303017971 191 633 c 0,23,24
 261 715 261 715 347 744 c 0,25,26
 414 767 414 767 474 756 c 0,27,28
 682 718 682 718 718 490 c 1,0,1
EndSplineSet
EndChar

StartChar: uniFECC
Encoding: 65228 65228 212
Width: 905
VWidth: 2481
GlyphClass: 2
Flags: W
AnchorPoint: "Anchor-10" 448.926 982.46 basechar 0
AnchorPoint: "Anchor-7" 403.596 -228.438 basechar 0
LayerCount: 2
Fore
SplineSet
539.9765625 447.42578125 m 0,0,1
 539.088867188 467.8515625 539.088867188 467.8515625 465.206054688 467.405273438 c 128,-1,2
 391.32421875 466.958984375 391.32421875 466.958984375 386.135742188 450.870117188 c 1,3,4
 398.912109375 443.430664062 398.912109375 443.430664062 481.508789062 404.340820312 c 1,5,6
 519.701171875 421.729492188 519.701171875 421.729492188 529.791015625 433.131835938 c 128,-1,7
 539.880859375 444.534179688 539.880859375 444.534179688 539.9765625 447.42578125 c 0,0,1
476.801757812 168.59765625 m 1,8,9
 309 -19 309 -19 68.841796875 -19 c 2,10,-1
 -15.9345703125 -19 l 1,11,-1
 -15.9345703125 169 l 1,12,-1
 41.5830078125 169 l 2,13,14
 222 169 222 169 394.581054688 267.956054688 c 1,15,16
 308 401 308 401 98 421 c 1,17,18
 95 517 95 517 98 555 c 1,19,20
 204 628 204 628 480.491210938 628.166015625 c 0,21,22
 747 628 747 628 746.924804688 498.423828125 c 0,23,24
 747 372 747 372 563.538085938 264.747070312 c 1,25,26
 702 169 702 169 892.225585938 169 c 2,27,-1
 920.958007812 169 l 1,28,-1
 920.958007812 -19 l 1,29,-1
 846.971679688 -19 l 2,30,31
 644 -19 644 -19 476.801757812 168.59765625 c 1,8,9
EndSplineSet
EndChar

StartChar: uniFEDA
Encoding: 65242 65242 226
Width: 1918
VWidth: 2457
GlyphClass: 2
Flags: W
AnchorPoint: "Anchor-10" 504.423 1513.9 basechar 0
AnchorPoint: "Anchor-7" 641.93 -330.521 basechar 0
LayerCount: 2
Fore
SplineSet
1659.93457031 471.728515625 m 24,0,1
 1659.93457031 1484.19824219 l 5,2,-1
 1499.67089844 1369.84570312 l 5,3,4
 1517 1253 1517 1253 1529.5 971.5 c 0,5,6
 1548 549 1548 549 1538.71679688 428.803710938 c 24,7,8
 1524 244 1524 244 1169.86621094 183.932617188 c 0,9,10
 1099 172 1099 172 887 170 c 152,-1,11
 675 168 675 168 552.961914062 173.509765625 c 0,12,13
 198 189 198 189 187 435 c 0,14,15
 184 501 184 501 208 607 c 1,16,-1
 143.921875 639.721679688 l 1,17,18
 92 539 92 539 91 417 c 0,19,20
 89 143 89 143 282.805664062 41.0048828125 c 0,21,22
 403 -22 403 -22 777.559570312 -18.8544921875 c 24,23,24
 1000 -17 1000 -17 1179.62109375 4.47900390625 c 0,25,26
 1359 26 1359 26 1504 131 c 0,27,28
 1544 160 1544 160 1598 226 c 1,29,30
 1714.194328 -20.412109375 1714.194328 -20.412109375 1898.44140625 -20.412109375 c 2,31,-1
 1929.2265625 -20.412109375 l 1,32,-1
 1929.2265625 168.91015625 l 1,33,-1
 1884.92578125 168.91015625 l 2,34,35
 1660 169 1660 169 1659.93457031 471.728515625 c 24,0,1
617.685546875 738.493164062 m 5,36,37
 691 729 691 729 720.234375 728.958984375 c 4,38,39
 825 729 825 729 880.443359375 750.8046875 c 4,40,41
 977 788 977 788 976.870117188 849.434570312 c 4,42,43
 977 919 977 919 865.12109375 936.083984375 c 4,44,45
 725 957 725 957 727.911132812 1086.78125 c 4,46,47
 730 1176 730 1176 817.737304688 1220.16113281 c 4,48,49
 905 1265 905 1265 1033.16796875 1273.01953125 c 5,50,-1
 1033.16796875 1209.06640625 l 5,51,52
 888 1198 888 1198 822.953125 1141.53027344 c 4,53,54
 795 1117 795 1117 795.36328125 1083.61035156 c 4,55,56
 795 1003 795 1003 890.53125 988.564453125 c 4,57,58
 986 975 986 975 1014.79980469 947.991210938 c 4,59,60
 1044 921 1044 921 1043.90039062 874.205078125 c 4,61,62
 1044 762 1044 762 931 698 c 132,-1,63
 818 634 818 634 617.685546875 667.016601562 c 5,64,-1
 617.685546875 738.493164062 l 5,36,37
EndSplineSet
EndChar

StartChar: uniFEDB
Encoding: 65243 65243 227
Width: 844
VWidth: 2458
GlyphClass: 2
Flags: W
AnchorPoint: "Anchor-10" 255.65 1327.62 basechar 0
AnchorPoint: "Anchor-7" 322.498 -254.039 basechar 0
LayerCount: 2
Fore
SplineSet
-15.4404296875 -19 m 1,0,-1
 -15.4404296875 169 l 1,1,-1
 133.661132812 169 l 2,2,3
 464 169.428710938 464 169.428710938 490.109375 302.1484375 c 24,4,5
 507.323972978 389.654045602 507.323972978 389.654045602 337.536132812 570.961914062 c 0,6,7
 180 739 180 739 81.9853515625 779.067382812 c 1,8,9
 60.9881761089 991.119410351 60.9881761089 991.119410351 192.684570312 1071.69140625 c 2,10,-1
 837.703125 1466.31445312 l 1,11,12
 806 1313 806 1313 768.614257812 1240.87304688 c 1,13,-1
 193.069335938 929.45703125 l 1,14,15
 385 779 385 779 492.5 604 c 0,16,17
 679.414802652 296.317188128 679.414802652 296.317188128 523.90234375 107.206054688 c 0,18,19
 420.118851283 -19 420.118851283 -19 118.5 -19 c 2,20,-1
 -15.4404296875 -19 l 1,0,-1
EndSplineSet
EndChar

StartChar: uniFEDC
Encoding: 65244 65244 228
Width: 1058
VWidth: 2458
GlyphClass: 2
Flags: W
AnchorPoint: "Anchor-10" 253.442 1359.31 basechar 0
AnchorPoint: "Anchor-7" 335.349 -250.661 basechar 0
LayerCount: 2
Fore
SplineSet
1049.30175781 -19 m 1,0,1
 802 -20 802 -20 589.59375 312.396484375 c 1,2,3
 587 202 587 202 519.90234375 117.206054688 c 0,4,5
 412 -19 412 -19 107.5 -19 c 2,6,-1
 -15.4404296875 -19 l 1,7,-1
 -15.4404296875 169 l 1,8,-1
 133.661132812 169 l 2,9,10
 286 169 286 169 368 195 c 0,11,12
 477.079083641 227.971023718 477.079083641 227.971023718 490.109375 312.1484375 c 24,13,14
 504 404 504 404 337.524414062 580.974609375 c 0,15,16
 180 749 180 749 81.9677734375 789.07421875 c 1,17,18
 62.0353674648 1003.6193176 62.0353674648 1003.6193176 192.72265625 1081.71777344 c 2,19,-1
 858.8203125 1479.77636719 l 1,20,21
 826 1326 826 1326 789.736328125 1254.45898438 c 1,22,-1
 193.110351562 939.399414062 l 1,23,24
 267 882 267 882 377.5 763 c 0,25,26
 491 641 491 641 592 496 c 0,27,28
 821 168 821 168 1049.015625 169 c 1,29,-1
 1073.00195312 169 l 1,30,-1
 1073.00195312 -19 l 1,31,-1
 1049.30175781 -19 l 1,0,1
EndSplineSet
EndChar

StartChar: uniFEDE
Encoding: 65246 65246 230
Width: 1465
VWidth: 2483
GlyphClass: 2
Flags: W
AnchorPoint: "Anchor-10" 499.464 1032.96 basechar 0
AnchorPoint: "Anchor-7" 340.399 -733.488 basechar 0
LayerCount: 2
Fore
SplineSet
1215.921875 71 m 5,0,1
 1214 28 1214 28 1209 -14 c 0,2,3
 1146 -541 1146 -541 628 -548 c 0,4,5
 328.277799952 -551.917937256 328.277799952 -551.917937256 196 -392 c 0,6,7
 62 -230 62 -230 115.260742188 92.9365234375 c 0,8,9
 135.890440824 214.717575433 135.890440824 214.717575433 211.321289062 392.310546875 c 1,10,-1
 281.6484375 337.49609375 l 1,11,12
 165 2 165 2 248 -173 c 0,13,14
 342 -373 342 -373 640 -367 c 0,15,16
 1073 -358 1073 -358 1104.25683594 -18.41796875 c 0,17,18
 1132 284 1132 284 1096.94921875 777.430664062 c 0,19,20
 1068 1185 1068 1185 1058.22949219 1379.15722656 c 1,21,-1
 1218.50488281 1493.51660156 l 1,22,-1
 1218.50488281 441 l 2,23,24
 1219.00079931 169.5625 1219.00079931 169.5625 1437.04492188 169.5625 c 2,25,-1
 1474.20019531 169.5625 l 1,26,-1
 1474.20019531 -19.759765625 l 1,27,-1
 1453.42480469 -19.759765625 l 2,28,29
 1310 -20 1310 -20 1215.921875 71 c 5,0,1
EndSplineSet
EndChar

StartChar: uniFEDF
Encoding: 65247 65247 231
Width: 502
VWidth: 2457
GlyphClass: 2
Flags: W
AnchorPoint: "Anchor-10" 258.577 1578.99 basechar 0
AnchorPoint: "Anchor-7" 181.023 -291.169 basechar 0
LayerCount: 2
Fore
SplineSet
210.697265625 1381.94042969 m 5,0,-1
 370.969726562 1496.29394531 l 5,1,-1
 370.969726562 487.497070312 l 2,2,3
 371 208 371 208 275.637695312 84.744140625 c 0,4,5
 194.075352252 -19.9033203125 194.075352252 -19.9033203125 7.20703125 -19.9033203125 c 2,6,-1
 -15.8017578125 -19.9033203125 l 1,7,-1
 -15.8017578125 169.53515625 l 1,8,-1
 10.98046875 169.536132812 l 2,9,10
 148 170 148 170 206.298828125 249.376953125 c 0,11,12
 258 320 258 320 257.486328125 483.661132812 c 0,13,14
 257 609 257 609 237.92578125 1035.3046875 c 0,15,16
 230 1217 230 1217 210.697265625 1381.94042969 c 5,0,-1
EndSplineSet
EndChar

StartChar: uniFEE0
Encoding: 65248 65248 232
Width: 617
VWidth: 2457
GlyphClass: 2
Flags: W
AnchorPoint: "Anchor-10" 298.196 1574.39 basechar 0
AnchorPoint: "Anchor-7" 243.841 -244.011 basechar 0
LayerCount: 2
Fore
SplineSet
247.629882812 1381.96582031 m 1,0,-1
 401.329101562 1495.14160156 l 1,1,-1
 401.329101562 445.416992188 l 2,2,3
 400.994349249 256.816346822 400.994349249 256.816346822 488.962890625 204.897460938 c 0,4,5
 549.785599434 169 549.785599434 169 597.389648438 169 c 2,6,-1
 633.955078125 169 l 1,7,-1
 633.955078125 -19 l 1,8,-1
 590.475585938 -19 l 2,9,10
 423 -19 423 -19 324.26953125 123.02734375 c 1,11,12
 195 -19 195 -19 37.41015625 -19 c 2,13,-1
 -16.056640625 -19 l 1,14,-1
 -16.056640625 169 l 1,15,-1
 1.53515625 169 l 1,16,17
 166 168.504882812 166 168.504882812 240.752929688 261.393554688 c 0,18,19
 282.999014104 313.888924297 282.999014104 313.888924297 283.166015625 502.094726562 c 24,20,21
 283 679 283 679 273.922851562 933.864257812 c 0,22,23
 263 1225 263 1225 247.629882812 1381.96582031 c 1,0,-1
EndSplineSet
EndChar

StartChar: uniFEE2
Encoding: 65250 65250 234
Width: 1099
VWidth: 2507
GlyphClass: 2
Flags: W
AnchorPoint: "Anchor-10" 457.224 911.03 basechar 0
AnchorPoint: "Anchor-7" 240.015 -800.122 basechar 0
LayerCount: 2
Fore
SplineSet
670 -44 m 0,0,1
 765 -56 765 -56 791 22 c 0,2,3
 835 154 835 154 634.650390625 241.836914062 c 0,4,5
 614 251 614 251 452.724609375 301.684570312 c 1,6,7
 449 273 449 273 453 242 c 0,8,9
 483 -20 483 -20 670 -44 c 0,0,1
394 293 m 1,10,11
 126.851010039 230.96540308 126.851010039 230.96540308 219.958007812 -161.61328125 c 2,12,-1
 318 -575 l 1,13,-1
 160.368164062 -686.708007812 l 1,14,-1
 97.4169921875 -89.5517578125 l 2,15,16
 91 -29 91 -29 91.0224609375 24.6689453125 c 0,17,18
 91 296 91 296 279.829101562 357.239257812 c 0,19,20
 374 388 374 388 414 507 c 1,21,22
 456 453 456 453 596 414 c 0,23,24
 763 367 763 367 878.461914062 245.821289062 c 0,25,26
 951.280748959 169.706543843 951.280748959 169.706543843 1079.15917969 169.125 c 2,27,-1
 1107.71972656 168.995117188 l 1,28,-1
 1107.71972656 -19 l 1,29,-1
 1092.88476562 -19 l 2,30,31
 979 -18.7783203125 979 -18.7783203125 877.05078125 78.93359375 c 1,32,33
 861 -86 861 -86 787 -162 c 0,34,35
 746 -205 746 -205 684 -209 c 0,36,37
 619 -213 619 -213 572 -194 c 0,38,39
 371 -114 371 -114 394 293 c 1,10,11
EndSplineSet
EndChar

StartChar: uniFEE3
Encoding: 65251 65251 235
Width: 804
VWidth: 2486
GlyphClass: 2
Flags: W
AnchorPoint: "Anchor-10" 384.828 915.12 basechar 0
AnchorPoint: "Anchor-7" 371.159 -278.757 basechar 0
LayerCount: 2
Fore
SplineSet
713 142 m 4,0,1
 693 9 693 9 584 -51 c 4,2,3
 551 -69 551 -69 495 -64 c 4,4,5
 412 -57 412 -57 182 90 c 5,6,7
 96.132084517 -19.8310546875 96.132084517 -19.8310546875 10.392578125 -19.8310546875 c 6,8,-1
 -15.140625 -19.8310546875 l 5,9,-1
 -15.140625 169.56640625 l 5,10,-1
 31.16015625 169.56640625 l 6,11,12
 100 170 100 170 158 255 c 4,13,14
 365 558 365 558 476.263671875 568.86328125 c 4,15,16
 507 572 507 572 529 569 c 4,17,18
 645 549 645 549 688 446.092773438 c 4,19,20
 740 321 740 321 713 142 c 4,0,1
283 231 m 5,21,22
 419 110 419 110 545 90.5 c 4,23,24
 636.371900826 76.2231404959 636.371900826 76.2231404959 600 250 c 4,25,26
 564 422 564 422 472 424 c 4,27,28
 449 425 449 425 430.6796875 412.6640625 c 4,29,30
 368 371 368 371 283 231 c 5,21,22
EndSplineSet
EndChar

StartChar: uniFEE4
Encoding: 65252 65252 236
Width: 877
VWidth: 2486
GlyphClass: 2
Flags: W
AnchorPoint: "Anchor-10" 413.54 967.76 basechar 0
AnchorPoint: "Anchor-7" 423.87 -273.174 basechar 0
LayerCount: 2
Fore
SplineSet
283 231 m 1,0,1
 419 110 419 110 545 90.5 c 0,2,3
 636.371900826 76.2231404959 636.371900826 76.2231404959 600 250 c 0,4,5
 564 422 564 422 472 424 c 0,6,7
 449 425 449 425 430.6796875 412.6640625 c 0,8,9
 368 371 368 371 283 231 c 1,0,1
696 75 m 1,10,11
 653 -14 653 -14 580 -52 c 0,12,13
 548 -69 548 -69 494 -65 c 0,14,15
 412 -59 412 -59 182 89 c 1,16,17
 97.1317463446 -19.8310546875 97.1317463446 -19.8310546875 10.392578125 -19.8310546875 c 2,18,-1
 -15.140625 -19.8310546875 l 1,19,-1
 -15.140625 169.56640625 l 1,20,-1
 31.16015625 169.56640625 l 2,21,22
 97 170 97 170 156.736328125 255.13671875 c 0,23,24
 360 552 360 552 475 569 c 0,25,26
 507 574 507 574 537 568 c 0,27,28
 649 545 649 545 690 446.092773438 c 0,29,30
 725 361 725 361 724.135742188 247 c 8,31,32
 723.999752094 169.859375 723.999752094 169.859375 866.55078125 169.859375 c 2,33,-1
 884.665039062 169.859375 l 1,34,-1
 884.665039062 -19.4619140625 l 1,35,-1
 873.885742188 -19.4619140625 l 2,36,37
 759 -19 759 -19 696 75 c 1,10,11
EndSplineSet
EndChar

StartChar: uniFEEA
Encoding: 65258 65258 242
Width: 929
VWidth: 2475
GlyphClass: 2
Flags: W
AnchorPoint: "Anchor-10" 519.468 1192.24 basechar 0
AnchorPoint: "Anchor-7" 411.938 -226.295 basechar 0
LayerCount: 2
Fore
SplineSet
167.801757812 391.592773438 m 0,0,1
 167.801757812 329.2109375 167.801757812 329.2109375 279.9140625 329.2109375 c 128,-1,2
 392.026367188 329.2109375 392.026367188 329.2109375 569 395 c 1,3,-1
 530.8046875 631.053710938 l 1,4,5
 190 516 190 516 169.758789062 411.09765625 c 0,6,7
 167.801757812 400.57421875 167.801757812 400.57421875 167.801757812 391.592773438 c 0,0,1
161 551 m 0,8,9
 259 680 259 680 511 761 c 1,10,-1
 498 840 l 1,11,-1
 618.703125 932.208984375 l 1,12,-1
 679.774414062 437.40625 l 2,13,14
 713 169 713 169 908.088867188 169 c 2,15,-1
 937.640625 169 l 1,16,-1
 937.640625 -19 l 1,17,-1
 908.202148438 -19 l 2,18,19
 694 -19 694 -19 624 225 c 1,20,21
 423 160 423 160 281 160 c 0,22,23
 177 160 177 160 134 209 c 0,24,25
 91 257 91 257 91 363 c 0,26,27
 91 459 91 459 161 551 c 0,8,9
EndSplineSet
EndChar

StartChar: uniFEEB
Encoding: 65259 65259 243
Width: 1036
VWidth: 2479
GlyphClass: 2
Flags: W
AnchorPoint: "Anchor-10" 395.329 1253.72 basechar 0
AnchorPoint: "Anchor-7" 386.345 -220.107 basechar 0
LayerCount: 2
Fore
SplineSet
627 484 m 1,0,1
 632 309 632 309 479 209 c 1,2,3
 703 88 703 88 766.66796875 135.8359375 c 0,4,5
 836 189 836 189 838 235 c 0,6,7
 842 313 842 313 627 484 c 1,0,1
392.432617188 657.266601562 m 1,8,-1
 298 720 l 1,9,-1
 388.205078125 860.046875 l 1,10,-1
 646.639648438 667.360351562 l 2,11,12
 952 440 952 440 931 214 c 0,13,14
 926 160 926 160 908 127 c 0,15,16
 824 -20 824 -20 729 -19 c 0,17,18
 537 -17 537 -17 347 101 c 1,19,20
 188 -19 188 -19 16.12109375 -19.4931640625 c 2,21,-1
 -15.9287109375 -19.4931640625 l 1,22,-1
 -15.9287109375 169.943359375 l 1,23,-1
 21.6083984375 169.943359375 l 2,24,25
 140 170 140 170 235 195 c 1,26,27
 179 223 179 223 152.932617188 304.314453125 c 0,28,29
 130 375 130 375 166.881835938 462.131835938 c 0,30,31
 219 587 219 587 354.784179688 641.63671875 c 0,32,33
 373 649 373 649 392.432617188 657.266601562 c 1,8,-1
393.673828125 251.651367188 m 1,34,35
 487 303 487 303 536 415.5 c 0,36,37
 578 509 578 509 507 543 c 0,38,39
 416 587 416 587 324.1796875 494.833984375 c 0,40,41
 256 427 256 427 276 353.5 c 128,-1,42
 296 280 296 280 393.673828125 251.651367188 c 1,34,35
EndSplineSet
EndChar

StartChar: uniFEEC
Encoding: 65260 65260 244
Width: 865
VWidth: 2498
GlyphClass: 2
Flags: W
AnchorPoint: "Anchor-7" 312.435 -714.977 basechar 0
AnchorPoint: "Anchor-10" 291.308 1179.33 basechar 0
LayerCount: 2
Fore
SplineSet
254.758789062 169.399414062 m 1,0,1
 454.754156214 172.977709498 454.754156214 172.977709498 458 302 c 0,2,3
 462 461 462 461 362 565 c 0,4,5
 315 614 315 614 302.946289062 589 c 0,6,7
 247 475 247 475 248 314 c 0,8,9
 249 214 249 214 254.758789062 169.399414062 c 1,0,1
368.719726562 780.548828125 m 0,10,11
 563 633 563 633 544 285 c 0,12,13
 535 121 535 121 444 34 c 0,14,15
 390 -18 390 -18 276 -20 c 1,16,17
 290 -182 290 -182 464.961914062 -363.368164062 c 1,18,19
 489 33 489 33 719 137 c 0,20,21
 787.520903719 167.784753845 787.520903719 167.784753845 856.407226562 168.678710938 c 2,22,-1
 881.165039062 169 l 5,23,-1
 881.165039062 -19 l 1,24,-1
 852.653320312 -19.9912109375 l 2,25,26
 756 -23 756 -23 692.9921875 -50.9443359375 c 0,27,28
 490 -140 490 -140 610 -482 c 1,29,-1
 498.5703125 -578.907226562 l 1,30,31
 231 -386 231 -386 191.151367188 -19.900390625 c 1,32,-1
 -15.830078125 -19 l 1,33,-1
 -15.830078125 169 l 1,34,-1
 176 166 l 1,35,36
 164 253 164 253 164 314 c 0,37,38
 164 630 164 630 277.586914062 773.587890625 c 0,39,40
 315 821 315 821 368.719726562 780.548828125 c 0,10,11
EndSplineSet
EndChar

StartChar: uniFEEE
Encoding: 65262 65262 246
Width: 779
VWidth: 2501
GlyphClass: 2
Flags: W
AnchorPoint: "Anchor-10" 220.961 1203.52 basechar 0
AnchorPoint: "Anchor-7" 426.438 -733.283 basechar 0
LayerCount: 2
Fore
SplineSet
662.376953125 -19 m 1,0,1
 603 -353 603 -353 418.338867188 -494 c 0,2,3
 375 -527 375 -527 323 -526.650390625 c 0,4,5
 164 -526 164 -526 29 -479 c 0,6,7
 6 -471 6 -471 35 -452.501953125 c 0,8,9
 49 -444 49 -444 62.75390625 -439.795898438 c 0,10,11
 470 -302 470 -302 564.912109375 -20.1396484375 c 1,12,13
 507 -26 507 -26 452 -26.5 c 128,-1,14
 397 -27 397 -27 348.373046875 -24.4912109375 c 0,15,16
 198 -17 198 -17 145.10546875 67.44921875 c 0,17,18
 97 144 97 144 110.564453125 266.889648438 c 0,19,20
 134 471 134 471 235.885742188 565.1953125 c 0,21,22
 299 624 299 624 382.5 624 c 128,-1,23
 466 624 466 624 537.787109375 548.08203125 c 0,24,25
 647.015605063 434.983842089 647.015605063 434.983842089 660.27734375 260.791015625 c 2,26,-1
 667.265625 169 l 1,27,-1
 789.850585938 169 l 1,28,-1
 789.850585938 -19 l 1,29,-1
 662.376953125 -19 l 1,0,1
526.258789062 314.05859375 m 0,30,31
 480 422 480 422 363 422 c 128,-1,32
 246 422 246 422 218.350585938 271.958984375 c 0,33,34
 198.563499765 166.677505941 198.563499765 166.677505941 288.583007812 159.536132812 c 0,35,36
 434 148 434 148 557.154296875 163.40234375 c 5,37,38
 558 240 558 240 526.258789062 314.05859375 c 0,30,31
EndSplineSet
EndChar

StartChar: uniFEF0
Encoding: 65264 65264 248
Width: 1321
VWidth: 2516
GlyphClass: 2
Flags: W
AnchorPoint: "Anchor-10" 611.919 529.07 basechar 0
AnchorPoint: "Anchor-7" 219.086 -700.196 basechar 0
LayerCount: 2
Fore
SplineSet
887 8 m 0,0,1
 920 83 920 83 1009.15820312 129.321289062 c 0,2,3
 1085 169 1085 169 1251.54296875 169 c 2,4,-1
 1336.41503906 169 l 1,5,-1
 1336.41503906 -19 l 1,6,-1
 1268.07128906 -19 l 2,7,8
 1201 -19 1201 -19 1132.5 -4 c 0,9,10
 1054 13 1054 13 1040.07519531 13.8642578125 c 0,11,12
 966 18 966 18 955 -44.166015625 c 0,13,14
 952 -60 952 -60 969 -62.96484375 c 0,15,16
 1036 -73 1036 -73 1114 -95 c 128,-1,17
 1192 -117 1192 -117 1208 -169 c 0,18,19
 1215 -192 1215 -192 1207 -242 c 0,20,21
 1177 -414 1177 -414 941 -522 c 0,22,23
 778 -597 778 -597 544.645507812 -582.000976562 c 0,24,25
 154 -557 154 -557 90.9765625 -273.241210938 c 0,26,27
 45.0905217498 -67.4060615732 45.0905217498 -67.4060615732 199 234 c 2,28,-1
 247 328 l 1,29,-1
 326 298 l 1,30,31
 121 -86 121 -86 270.5 -279.5 c 0,32,33
 353 -386 353 -386 576.5 -394.5 c 128,-1,34
 800 -403 800 -403 942 -362 c 128,-1,35
 1084 -321 1084 -321 1113 -275 c 128,-1,36
 1142 -229 1142 -229 1104 -222.790039062 c 0,37,38
 923 -196 923 -196 892 -160 c 0,39,40
 839 -100 839 -100 887 8 c 0,0,1
EndSplineSet
EndChar

StartChar: uniFEFB
Encoding: 65275 65275 259
Width: 1149
VWidth: 2457
GlyphClass: 3
Flags: W
AnchorPoint: "Anchor-9" 916.39 1561.73 baselig 0
AnchorPoint: "Anchor-6" 910.209 -251.876 baselig 0
AnchorPoint: "Anchor-6" 367.976 -255.858 baselig 1
AnchorPoint: "Anchor-9" 130.892 1467.83 baselig 1
LayerCount: 2
Fore
SplineSet
148.360351562 1323.91113281 m 1,0,1
 617 751 617 751 716.225585938 194.89453125 c 1,2,3
 767 215 767 215 823 286 c 0,4,5
 893.51746832 375.126244682 893.51746832 375.126244682 911.956054688 528.994140625 c 0,6,7
 924 629 924 629 889.52734375 1031.72753906 c 0,8,9
 866 1307 866 1307 845.611328125 1343.27148438 c 1,10,-1
 1018.26953125 1496.79101562 l 1,11,-1
 1018.26953125 527.907226562 l 2,12,13
 1018 320 1018 320 911.5 173.157226562 c 0,14,15
 771.679305561 -17.4371495708 771.679305561 -17.4371495708 508.176757812 -19.9033203125 c 2,16,-1
 391 -21 l 1,17,18
 264 26 264 26 220.657226562 155.245117188 c 1,19,20
 440 115 440 115 629 168 c 1,21,22
 531 687 531 687 91 1135 c 1,23,-1
 148.360351562 1323.91113281 l 1,0,1
EndSplineSet
LCarets2: 1 0
Ligature2: "'rlig' Required Ligatures in Arabic lookup 16 subtable" uniFEDF uniFE8E
EndChar

StartChar: uniFEFC
Encoding: 65276 65276 260
Width: 1357
VWidth: 2457
GlyphClass: 3
Flags: W
AnchorPoint: "Anchor-9" 968.386 1558.17 baselig 0
AnchorPoint: "Anchor-6" 945.402 -257.678 baselig 0
AnchorPoint: "Anchor-6" 447.059 -265.846 baselig 1
AnchorPoint: "Anchor-9" 111.319 1443 baselig 1
LayerCount: 2
Fore
SplineSet
153.403320312 1323.96289062 m 1,0,1
 608 787 608 787 722 199 c 1,2,3
 798 267 798 267 844.033203125 340.33203125 c 0,4,5
 909 444 909 444 922.03515625 551.21875 c 0,6,7
 945 740 945 740 933.905273438 933.586914062 c 0,8,9
 923 1116 923 1116 886.209960938 1335.89941406 c 1,10,-1
 1057.4375 1494.75585938 l 1,11,-1
 1057.4375 713.068359375 l 2,12,13
 1057.00778257 470.395034814 1057.00778257 470.395034814 1104.32226562 331.934570312 c 0,14,15
 1160.02703046 168.920898438 1160.02703046 168.920898438 1332.69824219 168.920898438 c 2,16,-1
 1367.38867188 168.920898438 l 1,17,-1
 1367.38867188 -20.4296875 l 1,18,-1
 1302.34570312 -19.759765625 l 2,19,20
 1048 -17 1048 -17 964.729492188 376.157226562 c 1,21,22
 927 254 927 254 841.9609375 160.430664062 c 0,23,24
 676.04922107 -21.9458943011 676.04922107 -21.9458943011 479.356445312 -20.40234375 c 2,25,-1
 397.224609375 -19.7578125 l 1,26,27
 262 18 262 18 224.251953125 159.540039062 c 1,28,29
 475 115 475 115 633 166 c 1,30,31
 529 694 529 694 91 1129 c 1,32,-1
 153.403320312 1323.96289062 l 1,0,1
EndSplineSet
LCarets2: 1 0
Ligature2: "'rlig' Required Ligatures in Arabic lookup 16 subtable" uniFEE0 uniFE8E
EndChar

StartChar: arabic_dot
Encoding: 65536 -1 261
Width: 157
VWidth: 2150
GlyphClass: 2
Flags: W
LayerCount: 2
Fore
SplineSet
93.7467911665 180.050274927 m 2,0,-1
 176.357198965 97.4402671296 l 2,1,2
 187.2219152 86.575131947 187.2219152 86.575131947 176.882228963 76.335162869 c 2,3,-1
 90.3287698387 -10.2186961748 l 2,4,5
 77.9339657609 -22.1338226903 77.9339657609 -22.1338226903 66.192566953 -10.289833047 c 2,6,-1
 -19.9861342082 75.8888681141 l 2,7,8
 -31.0317207719 86.3172067114 -31.0317207719 86.3172067114 -16.7576308467 100.589235247 c 2,9,-1
 63.5921222538 180.939224311 l 2,10,11
 78.1597545653 195.638864177 78.1597545653 195.638864177 93.7467911665 180.050274927 c 2,0,-1
EndSplineSet
EndChar

StartChar: arabic_2dots
Encoding: 65537 -1 262
Width: 474
VWidth: 2150
GlyphClass: 2
Flags: W
LayerCount: 2
Fore
SplineSet
127.532238408 179.864227686 m 2,0,-1
 209.958210326 97.4392557688 l 2,1,2
 220.771917421 86.6252706863 220.771917421 86.6252706863 210.482226888 76.3351607934 c 2,3,-1
 124.38327395 -9.76439214497 l 2,4,5
 111.825513462 -22.3215715246 111.825513462 -22.3215715246 99.7921771684 -10.2898432625 c 2,6,-1
 13.2905402602 76.2127933941 l 2,7,8
 3.34136062898 86.664482838 3.34136062898 86.664482838 16.382530283 100.130396412 c 2,9,-1
 97.1671109469 180.915177043 l 2,10,11
 111.824664355 195.571801739 111.824664355 195.571801739 127.532238408 179.864227686 c 2,0,-1
376.382189819 179.865276275 m 2,12,-1
 458.808198961 97.439267134 l 2,13,14
 469.67241267 86.5746344419 469.67241267 86.5746344419 459.333247419 76.3351813249 c 2,15,-1
 373.232171691 -9.76449440546 l 2,16,17
 360.62201456 -22.3755269377 360.62201456 -22.3755269377 348.642770031 -10.2898361249 c 2,18,-1
 262.464419895 75.8888140997 l 2,19,20
 251.419591979 86.3176775164 251.419591979 86.3176775164 265.692777954 100.589244049 c 2,21,-1
 346.042732489 180.940234639 l 2,22,23
 360.60966728 195.639341661 360.60966728 195.639341661 376.382189819 179.865276275 c 2,12,-1
EndSplineSet
EndChar

StartChar: arabic_3dots
Encoding: 65538 -1 263
Width: 477
VWidth: 2150
GlyphClass: 2
Flags: W
LayerCount: 2
Fore
SplineSet
252.743127197 369.996338897 m 2,0,-1
 335.869233047 286.870233047 l 2,1,2
 346.733831021 276.005635073 346.733831021 276.005635073 336.394233047 265.765766953 c 2,3,-1
 250.294233047 179.665766953 l 2,4,5
 237.684143242 167.055677148 237.684143242 167.055677148 225.704746434 179.140787472 c 2,6,-1
 139.525511337 265.318021983 l 2,7,8
 128.48180653 275.748272624 128.48180653 275.748272624 142.753744945 290.020211039 c 2,9,-1
 223.079950284 370.344416397 l 2,10,11
 237.534045301 384.801509878 237.534045301 384.801509878 252.743127197 369.996338897 c 2,0,-1
380.58322983 167.264236264 m 2,12,-1
 463.007312569 84.8395535287 l 2,13,14
 473.822042846 74.0257961738 473.822042846 74.0257961738 463.532237153 63.7355710593 c 2,15,-1
 377.432171691 -22.3640944055 l 2,16,17
 364.875601315 -34.9215364627 364.875601315 -34.9215364627 352.842762847 -22.8894289407 c 2,18,-1
 266.742766953 63.210166953 l 2,19,20
 255.927829756 74.0251041499 255.927829756 74.0251041499 269.892780158 87.9890462518 c 2,21,-1
 350.21667361 168.314139709 l 2,22,23
 364.492262538 182.588221183 364.492262538 182.588221183 380.58322983 167.264236264 c 2,12,-1
127.532197334 167.26426876 m 2,24,-1
 209.958096731 84.8397693734 l 2,25,26
 220.771222488 74.0249757823 220.771222488 74.0249757823 210.482226888 63.7355607934 c 2,27,-1
 124.38327395 -22.363992145 l 2,28,29
 111.825513462 -34.9211715239 111.825513462 -34.9211715239 99.792166953 -22.889433047 c 2,30,-1
 13.2905970328 63.6121368732 l 2,31,32
 3.13501909595 74.2821417524 3.13501909595 74.2821417524 16.841966953 87.989033047 c 2,33,-1
 97.1672042913 168.314270386 l 2,34,35
 111.825158458 182.972843776 111.825158458 182.972843776 127.532197334 167.26426876 c 2,24,-1
EndSplineSet
EndChar

StartChar: arabic_3dots_a
Encoding: 65539 -1 264
Width: 476
VWidth: 2150
GlyphClass: 2
Flags: W
LayerCount: 2
Fore
SplineSet
252.19140625 -14.0751953125 m 6,0,-1
 334.919921875 -96.8046875 l 6,1,2
 345.784179688 -107.668945312 345.784179688 -107.668945312 335.446289062 -117.909179688 c 6,3,-1
 249.344726562 -204.009765625 l 6,4,5
 236.735351562 -216.62109375 236.735351562 -216.62109375 224.75390625 -204.534179688 c 6,6,-1
 138.576171875 -118.35546875 l 6,7,8
 127.533203125 -107.927734375 127.533203125 -107.927734375 141.803710938 -93.654296875 c 6,9,-1
 222.383789062 -13.076171875 l 6,10,11
 236.953125 0.7626953125 236.953125 0.7626953125 252.19140625 -14.0751953125 c 6,0,-1
379.3862384 188.411227694 m 2,12,-1
 461.95924441 105.839221685 l 2,13,14
 472.772226796 95.0263782999 472.772226796 95.0263782999 462.483226785 84.7355606909 c 2,15,-1
 376.383274978 -1.36500111755 l 2,16,17
 363.824879527 -13.9228008322 363.824879527 -13.9228008322 351.790790857 -1.8894869517 c 2,18,-1
 265.638803806 84.2648300993 l 2,19,20
 254.878308238 95.0257743324 254.878308238 95.0257743324 268.841766953 108.989233047 c 2,21,-1
 349.183860468 189.331326567 l 2,22,23
 363.824225457 203.973240637 363.824225457 203.973240637 379.3862384 188.411227694 c 2,12,-1
127.533238411 188.264227683 m 2,24,-1
 209.95924441 105.839221685 l 2,25,26
 220.381019768 95.4175802996 220.381019768 95.4175802996 210.483226785 84.7355606909 c 2,27,-1
 124.383274978 -1.36500111755 l 2,28,29
 111.824556195 -13.9231241496 111.824556195 -13.9231241496 99.7921672607 -1.88946335482 c 2,30,-1
 13.2577692864 84.6449647522 l 2,31,32
 3.28178736235 95.0766354643 3.28178736235 95.0766354643 16.4316044987 108.578869571 c 2,33,-1
 97.183766953 189.331233047 l 2,34,35
 111.825 203.972466094 111.825 203.972466094 127.533238411 188.264227683 c 2,24,-1
EndSplineSet
EndChar

StartChar: uni066E.fina
Encoding: 65540 -1 265
Width: 1787
VWidth: 2483
GlyphClass: 2
Flags: W
AnchorPoint: "Anchor-10" 739.444 1187.16 basechar 0
AnchorPoint: "Anchor-7" 693.685 -247.584 basechar 0
LayerCount: 2
Fore
SplineSet
1795.29199219 169 m 1,0,-1
 1795.29199219 -19 l 1,1,-1
 1766.2265625 -19.1708984375 l 2,2,3
 1491 -21 1491 -21 1477.42578125 238.393554688 c 1,4,5
 1451 192 1451 192 1350.57519531 123.706054688 c 0,6,7
 1149 -14 1149 -14 777 -18.5 c 128,-1,8
 405 -23 405 -23 282.805664062 41.0048828125 c 0,9,10
 97.7327796712 137.945286689 97.7327796712 137.945286689 96 384 c 4,11,12
 95 526 95 526 143.921875 639.721679688 c 1,13,-1
 208 607 l 1,14,15
 184 501 184 501 187 435 c 0,16,17
 195 189 195 189 552.961914062 173.509765625 c 0,18,19
 675 168 675 168 856.611328125 169.599609375 c 0,20,21
 1135 172 1135 172 1304.90136719 265.83984375 c 0,22,23
 1385 310 1385 310 1445.64257812 376.155273438 c 0,24,25
 1506 442 1506 442 1523.359375 506.8046875 c 1,26,-1
 1600.80273438 481.263671875 l 1,27,-1
 1588.23339844 456.220703125 l 1,28,29
 1462 169 1462 169 1761.04589844 169 c 2,30,-1
 1795.29199219 169 l 1,0,-1
EndSplineSet
EndChar

StartChar: uni06A1.fina
Encoding: 65543 -1 268
Width: 1762
VWidth: 2480
GlyphClass: 2
Flags: W
AnchorPoint: "Anchor-10" 531.829 1306.3 basechar 0
AnchorPoint: "Anchor-7" 655.684 -303.818 basechar 0
LayerCount: 2
Fore
SplineSet
1439.19628906 316.895507812 m 0,0,1
 1544 420 1544 420 1439.30664062 536.166992188 c 0,2,3
 1388 593 1388 593 1328.64160156 592.610351562 c 0,4,5
 1269 593 1269 593 1207.25292969 523.400390625 c 0,6,7
 1115 420 1115 420 1218.47460938 316.876953125 c 0,8,9
 1264 271 1264 271 1327 271 c 0,10,11
 1393 271 1393 271 1439.19628906 316.895507812 c 0,0,1
777.057617188 -18.5966796875 m 9,12,13
 403 -22 403 -22 282.805664062 41.0048828125 c 0,14,15
 99 139 99 139 95 392 c 0,16,17
 93 531 93 531 143.921875 639.721679688 c 1,18,-1
 208 607 l 1,19,20
 184 501 184 501 187 435 c 0,21,22
 198 189 198 189 552.961914062 173.509765625 c 0,23,24
 675 168 675 168 835.057617188 168.841796875 c 1,25,-1
 893.77734375 168.842773438 l 2,26,27
 1165 169 1165 169 1227.65820312 188.516601562 c 1,28,29
 1101 245 1101 245 1069.61230469 367.319335938 c 0,30,31
 1034 510 1034 510 1109.00683594 629.31640625 c 0,32,33
 1183 748 1183 748 1332.234375 749.87109375 c 0,34,35
 1405 751 1405 751 1460.38964844 718.260742188 c 0,36,37
 1553 664 1553 664 1580.71875 562.22265625 c 0,38,39
 1609 458 1609 458 1581.0859375 366.8984375 c 0,40,41
 1549 263 1549 263 1424.8515625 187.82421875 c 1,42,43
 1492.51309566 168.141639318 1492.51309566 168.141639318 1724.11816406 168.842773438 c 2,44,-1
 1776.0546875 169 l 1,45,-1
 1776.0546875 -18.99609375 l 1,46,-1
 1716.9296875 -19 l 1,47,48
 1520 -21 1520 -21 1328 112 c 5,49,50
 1177.46489593 -18.5966796875 1177.46489593 -18.5966796875 883.684570312 -18.5966796875 c 2,51,-1
 777.057617188 -18.5966796875 l 9,12,13
EndSplineSet
EndChar

StartChar: uni06A1.init
Encoding: 65544 -1 269
Width: 721
VWidth: 2501
GlyphClass: 2
Flags: W
AnchorPoint: "Anchor-10" 436.264 1369 basechar 0
AnchorPoint: "Anchor-7" 332.086 -245.164 basechar 0
LayerCount: 2
Fore
SplineSet
328.30859375 782.115234375 m 4,0,1
 217 780 217 780 192.131835938 631.9375 c 4,2,3
 173.350121887 517.990319365 173.350121887 517.990319365 248.85546875 503.284179688 c 4,4,5
 367 481 367 481 515.123046875 514.6171875 c 5,6,7
 517 594 517 594 478.13671875 678.393554688 c 4,8,9
 431 784 431 784 328.30859375 782.115234375 c 4,0,1
626.688476562 310.651367188 m 4,10,11
 577 -19.21875 577 -19.21875 119.760742188 -19 c 2,12,-1
 -16.076171875 -19 l 1,13,-1
 -16.076171875 169 l 1,14,-1
 23.5732421875 169 l 2,15,16
 502 169 502 169 512.176757812 331.56640625 c 5,17,18
 418 308 418 308 302.369140625 320.240234375 c 4,19,20
 136 337 136 337 93.15234375 477.508789062 c 4,21,22
 75 537 75 537 84.9609375 634.75 c 4,23,24
 104 824 104 824 209.6640625 925.20703125 c 4,25,26
 268 981 268 981 354.70703125 974.154296875 c 4,27,28
 446 967 446 967 525.3125 877.79296875 c 4,29,30
 605 789 605 789 625.1640625 619.51953125 c 4,31,32
 645.561652983 435.94594952 645.561652983 435.94594952 626.688476562 310.651367188 c 4,10,11
EndSplineSet
EndChar

StartChar: uni06A1.medi
Encoding: 65545 -1 270
Width: 908
VWidth: 2480
GlyphClass: 2
Flags: W
AnchorPoint: "Anchor-10" 510.216 1121.82 basechar 0
AnchorPoint: "Anchor-7" 510.216 -240.57 basechar 0
LayerCount: 2
Fore
SplineSet
588.196289062 316.895507812 m 0,0,1
 693 420 693 420 588.307128906 536.166503906 c 0,2,3
 537 593 537 593 477.641601562 592.610351562 c 0,4,5
 418 593 418 593 356.252929688 523.400390625 c 0,6,7
 264 420 264 420 367.474609375 316.876953125 c 0,8,9
 413 271 413 271 476 271 c 0,10,11
 542 271 542 271 588.196289062 316.895507812 c 0,0,1
477.609375 97.0322265625 m 5,12,13
 327.514637586 -20.5966796875 327.514637586 -20.5966796875 90.6845703125 -20.5966796875 c 2,14,-1
 -15.9423828125 -20.5966796875 l 1,15,-1
 -15.9423828125 168.841796875 l 1,16,-1
 42.77734375 168.842773438 l 2,17,18
 314 169 314 169 376.658203125 188.516601562 c 1,19,20
 250 245 250 245 218.612304688 367.319335938 c 0,21,22
 183 510 183 510 258.007054195 629.315982615 c 0,23,24
 332 748 332 748 481.234375 749.87109375 c 0,25,26
 554 751 554 751 609.389648438 718.260742188 c 0,27,28
 701 666 701 666 729.719238281 562.22265625 c 0,29,30
 758 458 758 458 730.085449219 361.898925781 c 0,31,32
 702 265 702 265 573.8515625 187.82421875 c 1,33,34
 649.482088017 166.866409647 649.482088017 166.866409647 873.118164062 168.842773438 c 2,35,-1
 925.0546875 169.301757812 l 1,36,-1
 925.0546875 -19.99609375 l 1,37,-1
 865.9296875 -20.5966796875 l 2,38,39
 655 -23 655 -23 477.609375 97.0322265625 c 5,12,13
EndSplineSet
EndChar

StartChar: uni066F.fina
Encoding: 65546 -1 271
Width: 1361
VWidth: 2501
GlyphClass: 2
Flags: W
AnchorPoint: "Anchor-10" 357.433 1019.46 basechar 0
AnchorPoint: "Anchor-7" 454.252 -854.352 basechar 0
LayerCount: 2
Fore
SplineSet
1228.93164062 -19.8544921875 m 1,0,1
 1227 -35 1227 -35 1224.32617188 -53.2578125 c 24,2,3
 1147 -540 1147 -540 632.326171875 -547.2578125 c 0,4,5
 326 -551 326 -551 200.326171875 -391.2578125 c 0,6,7
 57 -209 57 -209 127.586914062 93.6787109375 c 0,8,9
 165 256 165 256 223.647460938 393.052734375 c 1,10,-1
 293.974609375 338.23828125 l 1,11,12
 177 3 177 3 260.326171875 -172.2578125 c 0,13,14
 354 -372 354 -372 652.326171875 -366.2578125 c 0,15,16
 1085 -357 1085 -357 1116.58300781 -17.67578125 c 1,17,18
 1078 -21 1078 -21 932.756835938 -18.1865234375 c 0,19,20
 859 -17 859 -17 809.854980469 2.76806640625 c 0,21,22
 760 22 760 22 735.600585938 60.759765625 c 0,23,24
 682 142 682 142 694.892578125 268.854492188 c 0,25,26
 700 319 700 319 710.9296875 363.41015625 c 0,27,28
 721 407 721 407 737.116210938 444.658203125 c 0,29,30
 753 482 753 482 773.538085938 512.61328125 c 0,31,32
 794 543 794 543 820.22265625 567.140625 c 0,33,34
 892 633 892 633 981.120117188 624.857421875 c 0,35,36
 1054 618 1054 618 1122.08886719 550.037109375 c 0,37,38
 1212 458 1212 458 1233.85058594 169.03125 c 5,39,-1
 1376.57128906 169.443359375 l 5,40,-1
 1376.57128906 -19.8544921875 l 1,41,-1
 1228.93164062 -19.8544921875 l 1,0,1
943.866210938 424.03125 m 0,42,43
 904 423 904 423 874.818359375 406.499023438 c 0,44,45
 846 390 846 390 827.840820312 356.6953125 c 0,46,47
 810 324 810 324 802.674804688 273.899414062 c 0,48,49
 788 171 788 171 867.602539062 163.192382812 c 4,50,51
 1012 148 1012 148 1126.47851562 165.345703125 c 5,52,53
 1128 257 1128 257 1102.58203125 315.995117188 c 0,54,55
 1055 426 1055 426 943.866210938 424.03125 c 0,42,43
688.559570312 -554.319335938 m 1024,56,-1
EndSplineSet
EndChar

StartChar: arabic_ring
Encoding: 65549 -1 274
Width: 477
VWidth: 2240
GlyphClass: 2
Flags: W
LayerCount: 2
Fore
SplineSet
343.15234375 244.240234375 m 0,0,1
 343.15234375 265.786132812 343.15234375 265.786132812 335.684570312 283.923828125 c 128,-1,2
 328.215820312 302.061523438 328.215820312 302.061523438 313.126953125 317.150390625 c 0,3,4
 303.063476562 327.573242188 303.063476562 327.573242188 291.544921875 334.474609375 c 128,-1,5
 280.02734375 341.375 280.02734375 341.375 266.955078125 344.809570312 c 128,-1,6
 253.883789062 348.244140625 253.883789062 348.244140625 239.1484375 348.244140625 c 0,7,8
 195.171875 348.244140625 195.171875 348.244140625 165.157226562 318.23046875 c 128,-1,9
 135.143554688 288.216796875 135.143554688 288.216796875 135.143554688 244.240234375 c 0,10,11
 135.143554688 236.6875 135.143554688 236.6875 135.9765625 229.578125 c 128,-1,12
 136.809570312 222.467773438 136.809570312 222.467773438 138.477539062 215.79296875 c 128,-1,13
 140.145507812 209.118164062 140.145507812 209.118164062 142.643554688 202.875 c 128,-1,14
 145.141601562 196.6328125 145.141601562 196.6328125 148.478515625 190.806640625 c 128,-1,15
 151.814453125 184.981445312 151.814453125 184.981445312 155.977539062 179.578125 c 128,-1,16
 160.140625 174.174804688 160.140625 174.174804688 165.14453125 169.170898438 c 0,17,18
 195.151367188 140.236328125 195.151367188 140.236328125 239.1484375 140.236328125 c 128,-1,19
 283.125 140.236328125 283.125 140.236328125 313.138671875 170.25 c 128,-1,20
 343.15234375 200.263671875 343.15234375 200.263671875 343.15234375 244.240234375 c 0,0,1
480.215820312 244.240234375 m 128,-1,22
 480.215820312 142.990234375 480.215820312 142.990234375 410.857421875 72.53125 c 0,23,24
 340.409179688 2.080078125 340.409179688 2.080078125 239.1484375 2.080078125 c 128,-1,25
 137.880859375 2.080078125 137.880859375 2.080078125 68.53125 72.53125 c 0,26,27
 -1.919921875 142.98046875 -1.919921875 142.98046875 -1.919921875 244.240234375 c 128,-1,28
 -1.919921875 345.500976562 -1.919921875 345.500976562 68.53125 415.94921875 c 0,29,30
 137.88671875 485.307617188 137.88671875 485.307617188 239.1484375 485.307617188 c 128,-1,31
 340.397460938 485.307617188 340.397460938 485.307617188 410.857421875 415.94921875 c 0,32,21
 480.215820312 345.490234375 480.215820312 345.490234375 480.215820312 244.240234375 c 128,-1,22
EndSplineSet
EndChar

StartChar: arabic_gaf_bar
Encoding: 65550 -1 275
Width: 622
VWidth: 2240
GlyphClass: 2
Flags: W
LayerCount: 2
Fore
SplineSet
557.677734375 1774.56933594 m 5,0,-1
 -4.763671875 1440.20800781 l 1,1,-1
 49.732421875 1580.49511719 l 1,2,-1
 609.318359375 1926.296875 l 5,3,-1
 557.677734375 1774.56933594 l 5,0,-1
EndSplineSet
EndChar

StartChar: uni066E.init.math
Encoding: 65560 -1 285
Width: 992
VWidth: 2485
GlyphClass: 2
Flags: W
LayerCount: 2
Fore
SplineSet
643.634765625 69.3447265625 m 0,0,1
 559.5 -30.3310546875 559.5 -30.3310546875 374.56640625 -30.3310546875 c 2,2,-1
 -27.623046875 -30.3310546875 l 1,3,-1
 -27.623046875 159.731445312 l 1,4,-1
 306.446289062 159.731445312 l 2,5,6
 371.872070312 159.731445312 371.872070312 159.731445312 419.451171875 174.796875 c 128,-1,7
 467.030273438 189.862304688 467.030273438 189.862304688 496.934570312 219.766601562 c 0,8,9
 563.1640625 285.999023438 563.1640625 285.999023438 563.1640625 425.118164062 c 2,10,-1
 563.1640625 674.966796875 l 1,11,-1
 753.224609375 674.966796875 l 1,12,-1
 753.224609375 425.118164062 l 2,13,14
 753.224609375 201.0390625 753.224609375 201.0390625 643.634765625 69.3447265625 c 0,0,1
EndSplineSet
EndChar

StartChar: guillemotleft
Encoding: 171 171 286
Width: 1085
VWidth: 2240
Flags: W
LayerCount: 2
Fore
SplineSet
520.755859375 1022.67871094 m 1,0,-1
 491.282226562 970.85546875 l 2,1,2
 426.603515625 857.12890625 426.603515625 857.12890625 394.407226562 746.521484375 c 0,3,4
 361.248046875 632.630859375 361.248046875 632.630859375 361.248046875 515.729492188 c 128,-1,5
 361.248046875 398.8046875 361.248046875 398.8046875 394.421875 284.104492188 c 0,6,7
 426.626953125 172.750976562 426.626953125 172.750976562 491.234375 59.6103515625 c 2,8,-1
 520.856445312 7.734375 l 1,9,-1
 370.135742188 7.734375 l 1,10,-1
 359.91796875 23.828125 l 2,11,12
 280.427734375 149.036132812 280.427734375 149.036132812 240.67578125 270.153320312 c 0,13,14
 220.422851562 331.876953125 220.422851562 331.876953125 210.291992188 393.27734375 c 128,-1,15
 200.16015625 454.677734375 200.16015625 454.677734375 200.16015625 515.729492188 c 0,16,17
 200.16015625 546.141601562 200.16015625 546.141601562 202.694335938 576.638671875 c 128,-1,18
 205.229492188 607.135742188 205.229492188 607.135742188 210.295898438 637.70703125 c 128,-1,19
 215.36328125 668.278320312 215.36328125 668.278320312 222.9609375 698.924804688 c 128,-1,20
 230.559570312 729.571289062 230.559570312 729.571289062 240.6875 760.293945312 c 0,21,22
 250.631835938 790.454101562 250.631835938 790.454101562 263.056640625 820.927734375 c 128,-1,23
 275.482421875 851.401367188 275.482421875 851.401367188 290.384765625 882.180664062 c 128,-1,24
 305.286132812 912.959960938 305.286132812 912.959960938 322.661132812 944.044921875 c 128,-1,25
 340.036132812 975.12890625 340.036132812 975.12890625 359.889648438 1006.53027344 c 2,26,-1
 370.102539062 1022.67871094 l 1,27,-1
 520.755859375 1022.67871094 l 1,0,-1
931.34765625 1022.67871094 m 1,28,-1
 901.874023438 970.85546875 l 2,29,30
 837.1953125 857.12890625 837.1953125 857.12890625 805 746.521484375 c 0,31,32
 788.41796875 689.569335938 788.41796875 689.569335938 780.12890625 631.875976562 c 128,-1,33
 771.83984375 574.18359375 771.83984375 574.18359375 771.83984375 515.729492188 c 0,34,35
 771.83984375 398.801757812 771.83984375 398.801757812 805.012695312 284.104492188 c 0,36,37
 821.111328125 228.440429688 821.111328125 228.440429688 845.313476562 172.317382812 c 128,-1,38
 869.514648438 116.193359375 869.514648438 116.193359375 901.827148438 59.6103515625 c 2,39,-1
 931.446289062 7.734375 l 1,40,-1
 780.727539062 7.734375 l 1,41,-1
 770.509765625 23.828125 l 2,42,43
 691.041992188 148.990234375 691.041992188 148.990234375 651.268554688 270.153320312 c 0,44,45
 610.750976562 393.63671875 610.750976562 393.63671875 610.750976562 515.729492188 c 0,46,47
 610.750976562 637.364257812 610.750976562 637.364257812 651.279296875 760.293945312 c 0,48,49
 691.01953125 880.829101562 691.01953125 880.829101562 770.483398438 1006.53027344 c 2,50,-1
 780.694335938 1022.67871094 l 1,51,-1
 931.34765625 1022.67871094 l 1,28,-1
EndSplineSet
EndChar

StartChar: guillemotright
Encoding: 187 187 287
Width: 1085
VWidth: 2240
Flags: W
LayerCount: 2
Fore
SplineSet
565.784179688 1022.67871094 m 1,0,-1
 716.4375 1022.67871094 l 1,1,-1
 726.649414062 1006.53027344 l 2,2,3
 766.375 943.696289062 766.375 943.696289062 796.177734375 882.138671875 c 128,-1,4
 825.98046875 820.581054688 825.98046875 820.581054688 845.852539062 760.293945312 c 0,5,6
 886.379882812 637.368164062 886.379882812 637.368164062 886.379882812 515.729492188 c 0,7,8
 886.379882812 475.026367188 886.379882812 475.026367188 881.875976562 434.163085938 c 128,-1,9
 877.37109375 393.299804688 877.37109375 393.299804688 868.368164062 352.299804688 c 128,-1,10
 859.365234375 311.299804688 859.365234375 311.299804688 845.864257812 270.15234375 c 0,11,12
 806.196289062 149.315429688 806.196289062 149.315429688 726.828125 24.1533203125 c 2,13,-1
 716.404296875 7.734375 l 1,14,-1
 565.68359375 7.734375 l 1,15,-1
 595.305664062 59.6103515625 l 2,16,17
 659.9375 172.802734375 659.9375 172.802734375 692.118164062 284.104492188 c 0,18,19
 725.291992188 398.8046875 725.291992188 398.8046875 725.291992188 515.729492188 c 128,-1,20
 725.291992188 632.630859375 725.291992188 632.630859375 692.1328125 746.521484375 c 0,21,22
 659.930664062 857.12890625 659.930664062 857.12890625 595.2578125 970.85546875 c 2,23,-1
 565.784179688 1022.67871094 l 1,0,-1
155.192382812 1022.67871094 m 1,24,-1
 305.845703125 1022.67871094 l 1,25,-1
 316.056640625 1006.53027344 l 2,26,27
 395.5078125 880.8671875 395.5078125 880.8671875 435.260742188 760.29296875 c 0,28,29
 475.7890625 637.364257812 475.7890625 637.364257812 475.7890625 515.729492188 c 0,30,31
 475.7890625 475.02734375 475.7890625 475.02734375 471.284179688 434.165039062 c 128,-1,32
 466.780273438 393.301757812 466.780273438 393.301757812 457.776367188 352.301757812 c 128,-1,33
 448.772460938 311.301757812 448.772460938 311.301757812 435.271484375 270.15234375 c 0,34,35
 395.512695312 149.037109375 395.512695312 149.037109375 316.030273438 23.828125 c 2,36,-1
 305.8125 7.734375 l 1,37,-1
 155.09375 7.734375 l 1,38,-1
 184.712890625 59.6103515625 l 2,39,40
 249.344726562 172.801757812 249.344726562 172.801757812 281.52734375 284.104492188 c 0,41,42
 314.69921875 398.801757812 314.69921875 398.801757812 314.69921875 515.729492188 c 128,-1,43
 314.69921875 632.630859375 314.69921875 632.630859375 281.540039062 746.521484375 c 0,44,45
 249.338867188 857.12890625 249.338867188 857.12890625 184.666015625 970.85546875 c 2,46,-1
 155.192382812 1022.67871094 l 1,24,-1
EndSplineSet
EndChar

StartChar: NameMe.337
Encoding: 65562 -1 294
Width: 670
VWidth: 2385
Flags: W
LayerCount: 2
Fore
SplineSet
299.848632812 105.890625 m 2,0,1
 206.891601562 2.080078125 206.891601562 2.080078125 88.125 2.080078125 c 2,2,-1
 -24.197265625 2.080078125 l 1,3,-1
 -24.197265625 190.446289062 l 1,4,-1
 23.8603515625 190.446289062 l 2,5,6
 52.6982421875 190.446289062 52.6982421875 190.446289062 78.283203125 194.029296875 c 128,-1,7
 103.869140625 197.611328125 103.869140625 197.611328125 126.157226562 204.76171875 c 128,-1,8
 148.4453125 211.912109375 148.4453125 211.912109375 167.479492188 222.581054688 c 128,-1,9
 186.514648438 233.25 186.514648438 233.25 202.369140625 247.461914062 c 0,10,11
 274.36328125 312.084960938 274.36328125 312.084960938 268.123046875 441.045898438 c 2,12,-1
 225.470703125 1322.12792969 l 1,13,-1
 400.686523438 1400.3125 l 1,14,-1
 400.686523438 441.137695312 l 2,15,16
 400.686523438 311.379882812 400.686523438 311.379882812 433.711914062 263.904296875 c 0,17,18
 484.815429688 190.446289062 484.815429688 190.446289062 649.314453125 190.446289062 c 2,19,-1
 696.279296875 190.446289062 l 1,20,-1
 696.279296875 2.080078125 l 1,21,-1
 585.049804688 2.080078125 l 2,22,23
 421.748046875 2.080078125 421.748046875 2.080078125 326.171875 106.111328125 c 2,24,-1
 312.94140625 120.510742188 l 1,25,-1
 299.848632812 105.890625 l 2,0,1
EndSplineSet
EndChar

StartChar: NameMe.338
Encoding: 65563 -1 295
Width: 580
VWidth: 2385
Flags: W
LayerCount: 2
Fore
SplineSet
431.260742188 480.865234375 m 2,0,1
 431.260742188 214.180664062 431.260742188 214.180664062 317.344726562 101.0078125 c 0,2,3
 214.01953125 2.080078125 214.01953125 2.080078125 59.7333984375 2.080078125 c 2,4,-1
 -24.197265625 2.080078125 l 1,5,-1
 -24.197265625 190.446289062 l 1,6,-1
 14.0322265625 190.446289062 l 2,7,8
 165.060546875 190.446289062 165.060546875 190.446289062 234.326171875 276.991210938 c 0,9,10
 302.321289062 361.96484375 302.321289062 361.96484375 296.513671875 494.802734375 c 2,11,-1
 254.961914062 1445.59863281 l 1,12,-1
 431.260742188 1523.77539062 l 1,13,-1
 431.260742188 480.865234375 l 2,0,1
EndSplineSet
EndChar

StartChar: exclam
Encoding: 33 33 298
Width: 859
VWidth: 4
Flags: W
LayerCount: 2
Fore
SplineSet
304.6875 121.872070312 m 128,-1,1
 304.6875 171.912109375 304.6875 171.912109375 339.08984375 207.357421875 c 0,2,3
 375.577148438 242.802734375 375.577148438 242.802734375 425.6171875 242.802734375 c 128,-1,4
 475.657226562 242.802734375 475.657226562 242.802734375 511.102539062 207.357421875 c 128,-1,5
 546.547851562 171.912109375 546.547851562 171.912109375 546.547851562 121.872070312 c 128,-1,6
 546.547851562 71.83203125 546.547851562 71.83203125 511.102539062 35.3447265625 c 0,7,8
 475.657226562 0.9423828125 475.657226562 0.9423828125 425.6171875 0.9423828125 c 128,-1,9
 375.577148438 0.9423828125 375.577148438 0.9423828125 339.08984375 35.3447265625 c 0,10,0
 304.6875 71.83203125 304.6875 71.83203125 304.6875 121.872070312 c 128,-1,1
513.7421875 227.508789062 m 1026,11,12
381 1480.08789062 m 6,13,-1
 459 1480.08789062 l 2,14,15
 503.326171875 1480.08789062 503.326171875 1480.08789062 501.804584334 1406 c 2,16,-1
 482.502929688 466.1796875 l 1,17,-1
 361.4921875 466.1796875 l 1,18,-1
 341.217227775 1404 l 2,19,20
 339.572265625 1480.08789062 339.572265625 1480.08789062 381 1480.08789062 c 6,13,-1
EndSplineSet
EndChar

StartChar: period
Encoding: 46 46 299
Width: 687
VWidth: 2246
Flags: W
LayerCount: 2
Fore
SplineSet
233.6875 121.872070312 m 132,-1,1
 233.6875 171.912109375 233.6875 171.912109375 268.08984375 207.357421875 c 4,2,3
 304.577148438 242.802734375 304.577148438 242.802734375 354.6171875 242.802734375 c 132,-1,4
 404.657226562 242.802734375 404.657226562 242.802734375 440.102539062 207.357421875 c 132,-1,5
 475.547851562 171.912109375 475.547851562 171.912109375 475.547851562 121.872070312 c 132,-1,6
 475.547851562 71.83203125 475.547851562 71.83203125 440.102539062 35.3447265625 c 4,7,8
 404.657226562 0.9423828125 404.657226562 0.9423828125 354.6171875 0.9423828125 c 132,-1,9
 304.577148438 0.9423828125 304.577148438 0.9423828125 268.08984375 35.3447265625 c 4,10,0
 233.6875 71.83203125 233.6875 71.83203125 233.6875 121.872070312 c 132,-1,1
EndSplineSet
EndChar

StartChar: colon
Encoding: 58 58 300
Width: 687
VWidth: 2246
Flags: W
LayerCount: 2
Fore
SplineSet
233.6875 698.872070312 m 128,-1,1
 233.6875 748.912109375 233.6875 748.912109375 268.08984375 784.357421875 c 0,2,3
 304.577148438 819.802734375 304.577148438 819.802734375 354.6171875 819.802734375 c 128,-1,4
 404.657226562 819.802734375 404.657226562 819.802734375 440.102539062 784.357421875 c 128,-1,5
 475.547851562 748.912109375 475.547851562 748.912109375 475.547851562 698.872070312 c 128,-1,6
 475.547851562 648.83203125 475.547851562 648.83203125 440.102539062 612.344726562 c 0,7,8
 404.657226562 577.942382812 404.657226562 577.942382812 354.6171875 577.942382812 c 128,-1,9
 304.577148438 577.942382812 304.577148438 577.942382812 268.08984375 612.344726562 c 0,10,0
 233.6875 648.83203125 233.6875 648.83203125 233.6875 698.872070312 c 128,-1,1
442.7421875 804.508789062 m 1026,11,12
233.6875 121.872070312 m 128,-1,14
 233.6875 171.912109375 233.6875 171.912109375 268.08984375 207.357421875 c 0,15,16
 304.577148438 242.802734375 304.577148438 242.802734375 354.6171875 242.802734375 c 128,-1,17
 404.657226562 242.802734375 404.657226562 242.802734375 440.102539062 207.357421875 c 128,-1,18
 475.547851562 171.912109375 475.547851562 171.912109375 475.547851562 121.872070312 c 128,-1,19
 475.547851562 71.83203125 475.547851562 71.83203125 440.102539062 35.3447265625 c 0,20,21
 404.657226562 0.9423828125 404.657226562 0.9423828125 354.6171875 0.9423828125 c 128,-1,22
 304.577148438 0.9423828125 304.577148438 0.9423828125 268.08984375 35.3447265625 c 0,23,13
 233.6875 71.83203125 233.6875 71.83203125 233.6875 121.872070312 c 128,-1,14
442.7421875 227.508789062 m 1026,24,25
EndSplineSet
EndChar
